/* XPM */
static char * archive_xpm[] = {
"56 70 520 2",
"  	c None",
". 	c #444329",
"+ 	c #595232",
"@ 	c #71643D",
"# 	c #71633D",
"$ 	c #71633C",
"% 	c #71633B",
"& 	c #71623B",
"* 	c #71623A",
"= 	c #655A35",
"- 	c #585437",
"; 	c #E7E1D6",
"> 	c #FEFDFB",
", 	c #FEFCFA",
"' 	c #FEFCF9",
") 	c #FEFBF8",
"! 	c #FDFBF8",
"~ 	c #FDFBF7",
"{ 	c #FDFAF6",
"] 	c #FDFAF5",
"^ 	c #FDF9F4",
"/ 	c #FDF9F3",
"( 	c #FDF8F2",
"_ 	c #FCF8F1",
": 	c #FCF8F0",
"< 	c #FCF7F0",
"[ 	c #FCF7EF",
"} 	c #FCF7EE",
"| 	c #FCF6EE",
"1 	c #FCF6ED",
"2 	c #FCF6EC",
"3 	c #FCF5EC",
"4 	c #FBF5EB",
"5 	c #FBF5EA",
"6 	c #FBF4E9",
"7 	c #FBF4E8",
"8 	c #FBF3E7",
"9 	c #FBF3E6",
"0 	c #FBF2E5",
"a 	c #FBF2E4",
"b 	c #F4E9D8",
"c 	c #766D4C",
"d 	c #524E32",
"e 	c #DBD3C4",
"f 	c #F7E6CC",
"g 	c #F5E0BF",
"h 	c #F5DFBE",
"i 	c #F4DFBE",
"j 	c #F4DFBD",
"k 	c #F4DFBC",
"l 	c #F4DEBC",
"m 	c #F4DEBB",
"n 	c #F4DEBA",
"o 	c #F4DDB9",
"p 	c #F4DDB8",
"q 	c #F4DCB8",
"r 	c #F4DCB7",
"s 	c #F3DCB6",
"t 	c #F3DBB5",
"u 	c #F3DBB4",
"v 	c #F3DAB3",
"w 	c #F9EEDE",
"x 	c #EEE1CC",
"y 	c #6A6242",
"z 	c #4B482C",
"A 	c #CAC2AE",
"B 	c #F5E1C1",
"C 	c #E9BA70",
"D 	c #E9B96E",
"E 	c #EFCC97",
"F 	c #FAEFDF",
"G 	c #E4D6BE",
"H 	c #5D5637",
"I 	c #46442A",
"J 	c #B8AF98",
"K 	c #F8E8D0",
"L 	c #E9BB71",
"M 	c #F1D2A2",
"N 	c #FAEFDE",
"O 	c #D8CAAE",
"P 	c #524D2F",
"Q 	c #454429",
"R 	c #A59B81",
"S 	c #F9ECD9",
"T 	c #EABD76",
"U 	c #E9B96F",
"V 	c #F2D7AC",
"W 	c #F9EEDD",
"X 	c #CABB9C",
"Y 	c #4D4A2D",
"Z 	c #91886C",
"` 	c #FAF7F2",
" .	c #FAF1E3",
"..	c #EBC07D",
"+.	c #E9BA71",
"@.	c #F9EDDA",
"#.	c #B9A989",
"$.	c #47452A",
"%.	c #686449",
"&.	c #F8F4EC",
"*.	c #ECC484",
"=.	c #EABB73",
"-.	c #F5E0C0",
";.	c #F8EBD7",
">.	c #938869",
",.	c #797660",
"'.	c #FBF7F1",
").	c #E2BE87",
"!.	c #CE902F",
"~.	c #D39E49",
"{.	c #F0DEC3",
"].	c #A3977B",
"^.	c #79765F",
"/.	c #FAF5EE",
"(.	c #DAB171",
"_.	c #C17D11",
":.	c #C88B2C",
"<.	c #EDDABC",
"[.	c #A39779",
"}.	c #79755F",
"|.	c #FAF4EC",
"1.	c #DAB170",
"2.	c #C88B2B",
"3.	c #EDD9BA",
"4.	c #A29678",
"5.	c #78755E",
"6.	c #F9F3E9",
"7.	c #D9B06F",
"8.	c #C78B2B",
"9.	c #ECD8B8",
"0.	c #A29677",
"a.	c #78745D",
"b.	c #F8F2E7",
"c.	c #D9B06E",
"d.	c #BF7C11",
"e.	c #BF7B11",
"f.	c #C78B2A",
"g.	c #ECD7B6",
"h.	c #A19576",
"i.	c #F8F1E5",
"j.	c #D9AF6D",
"k.	c #AB6F0F",
"l.	c #83550C",
"m.	c #81540B",
"n.	c #82540C",
"o.	c #A56B0F",
"p.	c #EBD6B4",
"q.	c #A19474",
"r.	c #78745C",
"s.	c #F7F0E3",
"t.	c #95600D",
"u.	c #7B500B",
"v.	c #88590C",
"w.	c #8A590C",
"x.	c #89590C",
"y.	c #7C510B",
"z.	c #926319",
"A.	c #C37F15",
"B.	c #C78A2A",
"C.	c #EBD5B2",
"D.	c #A19473",
"E.	c #F7EEE1",
"F.	c #D8AE6C",
"G.	c #94600D",
"H.	c #B17310",
"I.	c #B67610",
"J.	c #B37410",
"K.	c #80530B",
"L.	c #94671F",
"M.	c #C48219",
"N.	c #EAD4AF",
"O.	c #A09372",
"P.	c #78735B",
"Q.	c #F6EDDF",
"R.	c #D8AE6B",
"S.	c #C78A29",
"T.	c #E9D2AD",
"U.	c #A09271",
"V.	c #77735A",
"W.	c #F6ECDD",
"X.	c #D8AD6A",
"Y.	c #E9D1AB",
"Z.	c #A09270",
"`.	c #F5EBDA",
" +	c #D8AD69",
".+	c #C78A28",
"++	c #E8D0AA",
"@+	c #9F916F",
"#+	c #777259",
"$+	c #F5EAD8",
"%+	c #D7AC68",
"&+	c #E8CFA7",
"*+	c #9F906E",
"=+	c #F4E9D6",
"-+	c #D7AC67",
";+	c #C78928",
">+	c #E7CEA5",
",+	c #9F906D",
"'+	c #767258",
")+	c #F4E8D5",
"!+	c #D7AB66",
"~+	c #E7CDA3",
"{+	c #9E8F6B",
"]+	c #767158",
"^+	c #F3E6D2",
"/+	c #D7AB65",
"(+	c #C78927",
"_+	c #E6CBA0",
":+	c #9E8E6A",
"<+	c #767157",
"[+	c #F2E5D0",
"}+	c #D6AA64",
"|+	c #E5CA9E",
"1+	c #9E8E69",
"2+	c #767057",
"3+	c #F2E4CE",
"4+	c #D6AA63",
"5+	c #B57510",
"6+	c #96620D",
"7+	c #8E5C0C",
"8+	c #915E0D",
"9+	c #B0720F",
"0+	c #C68926",
"a+	c #E5C99D",
"b+	c #9D8D68",
"c+	c #767056",
"d+	c #F1E2CC",
"e+	c #D6A962",
"f+	c #AE710F",
"g+	c #7C500B",
"h+	c #A0670E",
"i+	c #C68826",
"j+	c #E4C89B",
"k+	c #9D8C67",
"l+	c #767055",
"m+	c #F1E1C9",
"n+	c #D6A961",
"o+	c #AD700F",
"p+	c #895707",
"q+	c #9D6202",
"r+	c #925C04",
"s+	c #9F670E",
"t+	c #E4C698",
"u+	c #9D8B66",
"v+	c #757055",
"w+	c #F0E0C7",
"x+	c #D5A860",
"y+	c #8E5A07",
"z+	c #A86801",
"A+	c #9A6004",
"B+	c #E3C596",
"C+	c #9C8B64",
"D+	c #756F54",
"E+	c #F0DFC6",
"F+	c #D5A85F",
"G+	c #925D07",
"H+	c #B16E01",
"I+	c #A06404",
"J+	c #C68825",
"K+	c #E3C494",
"L+	c #9C8A63",
"M+	c #EFDEC3",
"N+	c #D5A75E",
"O+	c #935E07",
"P+	c #B47002",
"Q+	c #A26605",
"R+	c #E2C391",
"S+	c #9C8962",
"T+	c #756E53",
"U+	c #EEDDC1",
"V+	c #E2C28F",
"W+	c #9B8961",
"X+	c #756E52",
"Y+	c #EEDCBF",
"Z+	c #D4A65C",
"`+	c #8B5A0C",
" @	c #8D5B0C",
".@	c #81540A",
"+@	c #8A5809",
"@@	c #855609",
"#@	c #86570C",
"$@	c #8C5B0C",
"%@	c #95671F",
"&@	c #C68724",
"*@	c #E1C18E",
"=@	c #9B8860",
"-@	c #746E52",
";@	c #EDDBBD",
">@	c #D4A65B",
",@	c #AC7215",
"'@	c #835813",
")@	c #815611",
"!@	c #815610",
"~@	c #805510",
"{@	c #815510",
"]@	c #825712",
"^@	c #B6873C",
"/@	c #C48117",
"(@	c #E1C08C",
"_@	c #9A885F",
":@	c #746D51",
"<@	c #D4A55B",
"[@	c #C27F14",
"}@	c #D1983E",
"|@	c #D39D47",
"1@	c #D29C46",
"2@	c #D19A44",
"3@	c #D29C45",
"4@	c #D59E48",
"5@	c #CF9333",
"6@	c #E0BE89",
"7@	c #9A875D",
"8@	c #ECD8B9",
"9@	c #D4A55A",
"0@	c #C58723",
"a@	c #DFBD87",
"b@	c #9A865C",
"c@	c #746D50",
"d@	c #ECD7B7",
"e@	c #D4A459",
"f@	c #DFBC85",
"g@	c #99855B",
"h@	c #746D4F",
"i@	c #D3A458",
"j@	c #B97810",
"k@	c #B87710",
"l@	c #DEBB83",
"m@	c #99855A",
"n@	c #736C4F",
"o@	c #D3A357",
"p@	c #A3690E",
"q@	c #9C650F",
"r@	c #C58722",
"s@	c #DEBA81",
"t@	c #998459",
"u@	c #736C4E",
"v@	c #EAD4B0",
"w@	c #D3A356",
"x@	c #935F0D",
"y@	c #95610D",
"z@	c #7D510B",
"A@	c #93651C",
"B@	c #C38016",
"C@	c #C58622",
"D@	c #DDB97F",
"E@	c #988358",
"F@	c #EAD3AE",
"G@	c #D2A255",
"H@	c #C58621",
"I@	c #DDB87D",
"J@	c #988357",
"K@	c #736B4D",
"L@	c #E9D1AC",
"M@	c #D2A254",
"N@	c #DCB67A",
"O@	c #988255",
"P@	c #726B4D",
"Q@	c #D2A154",
"R@	c #DBB578",
"S@	c #978254",
"T@	c #726A4C",
"U@	c #E8CFA8",
"V@	c #D2A153",
"W@	c #C58521",
"X@	c #DBB476",
"Y@	c #978153",
"Z@	c #726A4B",
"`@	c #E7CEA6",
" #	c #D1A052",
".#	c #C58520",
"+#	c #DBB374",
"@#	c #978052",
"##	c #D1A051",
"$#	c #DAB272",
"%#	c #968051",
"&#	c #72694A",
"*#	c #E6CCA1",
"=#	c #D19F50",
"-#	c #D9B170",
";#	c #967F4F",
">#	c #71694A",
",#	c #E6CB9F",
"'#	c #D19F4F",
")#	c #C5851F",
"!#	c #D9AF6E",
"~#	c #967E4E",
"{#	c #716949",
"]#	c #D19E4E",
"^#	c #C4851F",
"/#	c #957D4D",
"(#	c #716849",
"_#	c #D09E4D",
":#	c #B47510",
"<#	c #AC700F",
"[#	c #C4841F",
"}#	c #957D4C",
"|#	c #716848",
"1#	c #E4C799",
"2#	c #D09D4C",
"3#	c #AE700F",
"4#	c #7D510A",
"5#	c #805309",
"6#	c #7F520A",
"7#	c #C4841E",
"8#	c #947C4A",
"9#	c #716847",
"0#	c #E4C697",
"a#	c #D09C4B",
"b#	c #8B5807",
"c#	c #A06301",
"d#	c #945D04",
"e#	c #716747",
"f#	c #D09C4A",
"g#	c #8F5B07",
"h#	c #A96901",
"i#	c #AA6A01",
"j#	c #9B6104",
"k#	c #D6A963",
"l#	c #947B48",
"m#	c #706746",
"n#	c #E2C392",
"o#	c #CF9B49",
"p#	c #B26F01",
"q#	c #A06504",
"r#	c #C4841D",
"s#	c #D5A861",
"t#	c #937A47",
"u#	c #706645",
"v#	c #E2C290",
"w#	c #CF9B48",
"x#	c #935D07",
"y#	c #C4831D",
"z#	c #D5A75F",
"A#	c #937A46",
"B#	c #434229",
"C#	c #CF9A48",
"D#	c #D4A65D",
"E#	c #937945",
"F#	c #706644",
"G#	c #CE9A46",
"H#	c #80540B",
"I#	c #7E520B",
"J#	c #7F520B",
"K#	c #966921",
"L#	c #C4831C",
"M#	c #927844",
"N#	c #E0BF8A",
"O#	c #CE9A45",
"P#	c #B57819",
"Q#	c #946822",
"R#	c #90641E",
"S#	c #8F631D",
"T#	c #8C601A",
"U#	c #8E621C",
"V#	c #936720",
"W#	c #C49347",
"X#	c #927843",
"Y#	c #434228",
"Z#	c #6F6543",
"`#	c #E0BE88",
" $	c #CE9945",
".$	c #C17D12",
"+$	c #CE9130",
"@$	c #D3983B",
"#$	c #C98924",
"$$	c #927742",
"%$	c #CE9944",
"&$	c #C4831B",
"*$	c #917640",
"=$	c #6F6442",
"-$	c #CE9842",
";$	c #C3821B",
">$	c #D2A052",
",$	c #91763F",
"'$	c #6F6441",
")$	c #C68927",
"!$	c #91753E",
"~$	c #DDB980",
"{$	c #DDB87E",
"]$	c #DCB77C",
"^$	c #DCB77B",
"/$	c #DCB679",
"($	c #DBB577",
"_$	c #DAB373",
":$	c #DAB273",
"<$	c #D6AA65",
"[$	c #D4A55C",
"}$	c #D3A459",
"|$	c #D2A256",
"1$	c #90743D",
"2$	c #5B5434",
"3$	c #967F50",
"4$	c #957E4D",
"5$	c #957D4B",
"6$	c #947C4B",
"7$	c #947C49",
"8$	c #947B49",
"9$	c #947A48",
"0$	c #947A47",
"a$	c #947A46",
"b$	c #937946",
"c$	c #937944",
"d$	c #927741",
"e$	c #927641",
"f$	c #91753F",
"g$	c #91753D",
"h$	c #90743C",
"i$	c #90733B",
"j$	c #90733A",
"k$	c #907239",
"l$	c #8F7239",
"m$	c #8F7238",
"n$	c #6D5C31",
"o$	c #212013",
"p$	c #201F13",
"q$	c #1F1F13",
"r$	c #1F1E12",
"s$	c #1E1E12",
"t$	c #1F1E13",
"u$	c #202013",
"                    . . . . . . . . . . . . . . . . . . . . . . . . . . . . . . . . . . . .                     ",
"                    . + @ @ @ @ @ @ # # # # # $ $ $ $ $ $ $ $ % % % % % % % % % & & & * = . .                   ",
"                  . - ; > , ' ) ! ~ { ] ] ^ / / ( _ : < [ } | 1 2 3 4 5 6 6 7 8 8 9 0 a b c . .                 ",
"                . d e ' f g h i j j k k l m m n n n o o p q r r r s s t t t u u v v v t w x y .                 ",
"              . z A ' B C D D D D D D D D D D D D D D D D D D D D D D D D D D D D D D D E F G H .               ",
"            . I J ) K L D D D D D D D D D D D D D D D D D D D D D D D D D D D D D D D D D M N O P .             ",
"          . Q R ~ S T D D D D D D D D D D D D D D D D D D D D D D D D D D D D D D D D D D U V W X Y .           ",
"        . . Z `  ...D D D D D D D D D D D D D D D D D D D D D D D D D D D D D D D D D D D D +.r @.#.$..         ",
"        . %.&.4 *.D D D D D D D D D D D D D D D D D D D D D D D D D D D D D D D D D D D D D D =.-.;.>..         ",
"        . ,.'.).!.!.!.!.!.!.!.!.!.!.!.!.!.!.!.!.!.!.!.!.!.!.!.!.!.!.!.!.!.!.!.!.!.!.!.!.!.!.!.!.~.{.]..         ",
"        . ^./.(._._._._._._._._._._._._._._._._._._._._._._._._._._._._._._._._._._._._._._._._.:.<.[..         ",
"        . }.|.1._._._._._._._._._._._._._._._._._._._._._._._._._._._._._._._._._._._._._._._._.2.3.4..         ",
"        . 5.6.7._._._._._._._._._._._._._._._._._._._._._._._._._._._._._._._._._._._._._._._._.8.9.0..         ",
"        . a.b.c._._._.d.e.e.e.e.e.e.e.e.e.e.e.e.e.e.e.e.e.e.e.e.e.e.e.e.e.e.e.e.e.e.e.e.d._._._.f.g.h..         ",
"        . a.i.j._._.k.l.m.m.m.m.m.m.m.m.m.m.m.m.m.m.m.m.m.m.m.m.m.m.m.m.m.m.m.m.m.m.m.m.n.o._._.f.p.q..         ",
"        . r.s.j._._.t.u.v.w.w.w.w.w.w.w.w.w.w.w.w.w.w.w.w.w.w.w.w.w.w.w.w.w.w.w.w.w.w.x.y.z.A._.B.C.D..         ",
"        . r.E.F._._.G.u.H.I.I.I.I.I.I.I.I.I.I.I.I.I.I.I.I.I.I.I.I.I.I.I.I.I.I.I.I.I.I.J.K.L.M._.B.N.O..         ",
"        . P.Q.R._._.G.u.H.I.I.I.I.I.I.I.I.I.I.I.I.I.I.I.I.I.I.I.I.I.I.I.I.I.I.I.I.I.I.J.K.L.M._.S.T.U..         ",
"        . V.W.X._._.G.u.H.I.I.I.I.I.I.I.I.I.I.I.I.I.I.I.I.I.I.I.I.I.I.I.I.I.I.I.I.I.I.J.K.L.M._.S.Y.Z..         ",
"        . V.`. +_._.G.u.H.I.I.I.I.I.I.I.I.I.I.I.I.I.I.I.I.I.I.I.I.I.I.I.I.I.I.I.I.I.I.J.K.L.M._..+++@+.         ",
"        . #+$+%+_._.G.u.H.I.I.I.I.I.I.I.I.I.I.I.I.I.I.I.I.I.I.I.I.I.I.I.I.I.I.I.I.I.I.J.K.L.M._..+&+*+.         ",
"        . #+=+-+_._.G.u.H.I.I.I.I.I.I.I.I.I.I.I.I.I.I.I.I.I.I.I.I.I.I.I.I.I.I.I.I.I.I.J.K.L.M._.;+>+,+.         ",
"        . '+)+!+_._.G.u.H.I.I.I.I.I.I.I.I.I.I.I.I.I.I.I.I.I.I.I.I.I.I.I.I.I.I.I.I.I.I.J.K.L.M._.;+~+{+.         ",
"        . ]+^+/+_._.G.u.H.I.I.I.I.I.I.I.I.I.I.I.I.I.I.I.I.I.I.I.I.I.I.I.I.I.I.I.I.I.I.J.K.L.M._.(+_+:+.         ",
"        . <+[+}+_._.G.u.H.I.I.I.I.I.I.I.I.I.I.I.I.I.I.I.I.I.I.I.I.I.I.I.I.I.I.I.I.I.I.J.K.L.M._.(+|+1+.         ",
"        . 2+3+4+_._.G.u.H.I.I.I.I.I.I.I.I.5+6+7+7+7+7+7+7+7+7+7+7+8+9+I.I.I.I.I.I.I.I.J.K.L.M._.0+a+b+.         ",
"        . c+d+e+_._.G.u.H.I.I.I.I.I.I.I.I.f+u.u.y.y.y.y.y.y.y.y.g+u.h+I.I.I.I.I.I.I.I.J.K.L.M._.i+j+k+.         ",
"        . l+m+n+_._.G.u.H.I.I.I.I.I.I.I.I.o+u.p+q+q+q+q+q+q+q+q+r+u.s+I.I.I.I.I.I.I.I.J.K.L.M._.i+t+u+.         ",
"        . v+w+x+_._.G.u.H.I.I.I.I.I.I.I.I.o+u.y+z+z+z+z+z+z+z+z+A+u.s+I.I.I.I.I.I.I.I.J.K.L.M._.i+B+C+.         ",
"        . D+E+F+_._.G.u.H.I.I.I.I.I.I.I.I.o+u.G+H+H+H+H+H+H+H+H+I+u.s+I.I.I.I.I.I.I.I.J.K.L.M._.J+K+L+.         ",
"        . D+M+N+_._.G.u.H.I.I.I.I.I.I.I.I.o+u.O+P+P+P+P+P+P+P+P+Q+u.s+I.I.I.I.I.I.I.I.J.K.L.M._.J+R+S+.         ",
"        . T+U+N+_._.G.u.H.I.I.I.I.I.I.I.I.o+u.O+P+P+P+P+P+P+P+P+Q+u.s+I.I.I.I.I.I.I.I.J.K.L.M._.J+V+W+.         ",
"        . X+Y+Z+_._.G.u.`+ @ @ @ @ @ @ @ @w.u..@+@+@+@+@+@+@+@+@@@u.#@ @ @ @ @ @ @ @ @$@y.%@M._.&@*@=@.         ",
"        . -@;@>@_._.,@'@)@)@)@)@)@)@)@)@)@)@!@~@~@~@~@~@~@~@~@~@~@{@)@)@)@)@)@)@)@)@)@)@]@^@/@_.&@(@_@.         ",
"        . :@3.<@_._.[@}@|@|@|@|@|@|@|@|@|@|@1@2@2@2@2@2@2@2@2@2@2@3@|@|@|@|@|@|@|@|@|@|@4@5@_._.&@6@7@.         ",
"        . :@8@9@_._._._._._._._._._._._._._._._._._._._._._._._._._._._._._._._._._._._._._._._.0@a@b@.         ",
"        . c@d@e@_._._._._._._._._._._._._._._._._._._._._._._._._._._._._._._._._._._._._._._._.0@f@g@.         ",
"        . h@p.i@_._._.j@I.I.I.I.I.I.I.I.I.I.I.I.I.I.I.I.I.I.I.I.I.I.I.I.I.I.I.I.I.I.I.I.k@_._._.0@l@m@.         ",
"        . n@C.o@_._.p@u.u.u.u.u.u.u.u.u.u.u.u.u.u.u.u.u.u.u.u.u.u.u.u.u.u.u.u.u.u.u.u.u.u.q@_._.r@s@t@.         ",
"        . u@v@w@_._.G.u.x@y@y@y@y@y@y@y@y@y@y@y@y@y@y@y@y@y@y@y@y@y@y@y@y@y@y@y@y@y@y@G.z@A@B@_.C@D@E@.         ",
"        . u@F@G@_._.G.u.H.I.I.I.I.I.I.I.I.I.I.I.I.I.I.I.I.I.I.I.I.I.I.I.I.I.I.I.I.I.I.J.K.L.M._.H@I@J@.         ",
"        . K@L@M@_._.G.u.H.I.I.I.I.I.I.I.I.I.I.I.I.I.I.I.I.I.I.I.I.I.I.I.I.I.I.I.I.I.I.J.K.L.M._.H@N@O@.         ",
"        . P@++Q@_._.G.u.H.I.I.I.I.I.I.I.I.I.I.I.I.I.I.I.I.I.I.I.I.I.I.I.I.I.I.I.I.I.I.J.K.L.M._.H@R@S@.         ",
"        . T@U@V@_._.G.u.H.I.I.I.I.I.I.I.I.I.I.I.I.I.I.I.I.I.I.I.I.I.I.I.I.I.I.I.I.I.I.J.K.L.M._.W@X@Y@.         ",
"        . Z@`@ #_._.G.u.H.I.I.I.I.I.I.I.I.I.I.I.I.I.I.I.I.I.I.I.I.I.I.I.I.I.I.I.I.I.I.J.K.L.M._..#+#@#.         ",
"        . Z@~+##_._.G.u.H.I.I.I.I.I.I.I.I.I.I.I.I.I.I.I.I.I.I.I.I.I.I.I.I.I.I.I.I.I.I.J.K.L.M._..#$#%#.         ",
"        . &#*#=#_._.G.u.H.I.I.I.I.I.I.I.I.I.I.I.I.I.I.I.I.I.I.I.I.I.I.I.I.I.I.I.I.I.I.J.K.L.M._..#-#;#.         ",
"        . >#,#'#_._.G.u.H.I.I.I.I.I.I.I.I.I.I.I.I.I.I.I.I.I.I.I.I.I.I.I.I.I.I.I.I.I.I.J.K.L.M._.)#!#~#.         ",
"        . {#a+]#_._.G.u.H.I.I.I.I.I.I.I.I.I.I.5+5+5+5+5+5+5+5+5+5+5+I.I.I.I.I.I.I.I.I.J.K.L.M._.^#R./#.         ",
"        . (#j+_#_._.G.u.H.I.I.I.I.I.I.I.I.:#`+l.l.l.l.l.l.l.l.l.l.#@<#I.I.I.I.I.I.I.I.J.K.L.M._.[# +}#.         ",
"        . |#1#2#_._.G.u.H.I.I.I.I.I.I.I.I.3#u.4#5#5#5#5#5#5#5#5#6#u.s+I.I.I.I.I.I.I.I.J.K.L.M._.7#-+8#.         ",
"        . 9#0#a#_._.G.u.H.I.I.I.I.I.I.I.I.o+u.b#c#c#c#c#c#c#c#c#d#u.s+I.I.I.I.I.I.I.I.J.K.L.M._.7#/+8#.         ",
"        . e#K+f#_._.G.u.H.I.I.I.I.I.I.I.I.o+u.g#h#i#i#i#i#i#i#i#j#u.s+I.I.I.I.I.I.I.I.J.K.L.M._.7#k#l#.         ",
"        . m#n#o#_._.G.u.H.I.I.I.I.I.I.I.I.o+u.G+p#p#p#p#p#p#p#p#q#u.s+I.I.I.I.I.I.I.I.J.K.L.M._.r#s#t#.         ",
"        . u#v#w#_._.G.u.H.I.I.I.I.I.I.I.I.o+u.x#P+P+P+P+P+P+P+P+Q+u.s+I.I.I.I.I.I.I.I.J.K.L.M._.y#z#A#.         ",
"        B#u#*@C#_._.G.u.H.I.I.I.I.I.I.I.I.o+u.x#P+P+P+P+P+P+P+P+Q+u.s+I.I.I.I.I.I.I.I.J.K.L.M._.y#D#E#.         ",
"        B#F#(@G#_._.y@u.H#m.m.m.m.m.m.m.m.K.u.y.I#I#I#I#I#I#I#I#z@u.J#m.m.m.m.m.m.m.m.m.u.K#M._.L#9@M#.         ",
"        B#F#N#O#_._.P#Q#R#R#R#R#R#R#R#R#R#R#S#T#T#T#T#T#T#T#T#T#T#U#R#R#R#R#R#R#R#R#R#R#V#W#B@_.L#i@X#.         ",
"        Y#Z#`# $_._..$+$@$@$@$@$@$@$@$@$@$@$@$@$@$@$@$@$@$@$@$@$@$@$@$@$@$@$@$@$@$@$@$@$@$#$_._.L#o@$$.         ",
"        Y#Z#f@%$_._._._._._._._._._._._._._._._._._._._._._._._._._._._._._._._._._._._._._._._.&$Q@*$.         ",
"        B#=$l@-$_._._._._._._._._._._._._._._._._._._._._._._._._._._._._._._._._._._._._._._._.;$>$,$.         ",
"        B#'$s@=#B.B.S.S.S.S..+.+;+(+(+(+(+)$i+i+i+J+J+J+J+&@&@&@&@0@0@0@0@C@C@C@H@H@H@W@.#.#.#.#)$=#!$.         ",
"        . '$~${$I@]$^$/$R@($X@+#_$:$$#-#7.!#j.F.X. +%+-+/+<$}+k#e+x+z#N+D#[$9@}$i@o@|$G@Q@V@##=#'#]#1$.         ",
"        . 2$3$;#;#~#4$4$}#}#5$6$8#8#7$8$l#9$0$a$b$E#E#c$M#X#X#$$$$d$e$*$,$f$!$!$g$1$h$h$i$j$j$k$l$m$n$.         ",
"        . . . . . . . . . . . . . . . . . . . . . . . . . . . . . . . . . . . . . . . . . . . . . . . .         ",
"                                          o$p$q$q$r$s$s$s$s$r$t$q$p$u$                                          ",
"                                                                                                                ",
"                                                                                                                ",
"                                                                                                                ",
"                                                                                                                "};
