/* XPM */
static char * barc_xpm[] = {
"169 50 153 2",
"  	c None",
". 	c #FFFFFF",
"+ 	c #060606",
"@ 	c #000000",
"# 	c #D3D3D3",
"$ 	c #9B9B9B",
"% 	c #ADADAD",
"& 	c #787878",
"* 	c #CFCFCF",
"= 	c #7B7B7B",
"- 	c #161616",
"; 	c #7E7E7E",
"> 	c #121212",
", 	c #5C5C5C",
"' 	c #7D7D7D",
") 	c #F0F0F0",
"! 	c #585858",
"~ 	c #858585",
"{ 	c #2E2E2E",
"] 	c #484848",
"^ 	c #666666",
"/ 	c #2B2B2B",
"( 	c #202020",
"_ 	c #707070",
": 	c #464646",
"< 	c #4B4B4B",
"[ 	c #242424",
"} 	c #B6B6B6",
"| 	c #010101",
"1 	c #D8D8D8",
"2 	c #4D4D4D",
"3 	c #8C8C8C",
"4 	c #989898",
"5 	c #1B1B1B",
"6 	c #9C9C9C",
"7 	c #B7B7B7",
"8 	c #606060",
"9 	c #EAEAEA",
"0 	c #A5A5A5",
"a 	c #111111",
"b 	c #C8C8C8",
"c 	c #CBCBCB",
"d 	c #0E0E0E",
"e 	c #636363",
"f 	c #E4E4E4",
"g 	c #414141",
"h 	c #505050",
"i 	c #272727",
"j 	c #909090",
"k 	c #BFBFBF",
"l 	c #F3F3F3",
"m 	c #7A7A7A",
"n 	c #CDCDCD",
"o 	c #A0A0A0",
"p 	c #CACACA",
"q 	c #A3A3A3",
"r 	c #383838",
"s 	c #595959",
"t 	c #5E5E5E",
"u 	c #616161",
"v 	c #0A0A0A",
"w 	c #B8B8B8",
"x 	c #F2F2F2",
"y 	c #E2E2E2",
"z 	c #E8E8E8",
"A 	c #F1F1F1",
"B 	c #D9D9D9",
"C 	c #BCBCBC",
"D 	c #DADADA",
"E 	c #BBBBBB",
"F 	c #D0D0D0",
"G 	c #FBFBFB",
"H 	c #DCDCDC",
"I 	c #C3C3C3",
"J 	c #C2C2C2",
"K 	c #D6D6D6",
"L 	c #C0C0C0",
"M 	c #F4F4F4",
"N 	c #CCCCCC",
"O 	c #DEDEDE",
"P 	c #BEBEBE",
"Q 	c #E3E3E3",
"R 	c #D2D2D2",
"S 	c #F9F9F9",
"T 	c #E5E5E5",
"U 	c #EFEFEF",
"V 	c #BABABA",
"W 	c #F7F7F7",
"X 	c #C9C9C9",
"Y 	c #C1C1C1",
"Z 	c #DFDFDF",
"` 	c #EDEDED",
" .	c #FCFCFC",
"..	c #C6C6C6",
"+.	c #D1D1D1",
"@.	c #B9B9B9",
"#.	c #555555",
"$.	c #F6F6F6",
"%.	c #DBDBDB",
"&.	c #494949",
"*.	c #EEEEEE",
"=.	c #F8F8F8",
"-.	c #FAFAFA",
";.	c #3A3A3A",
">.	c #6D6D6D",
",.	c #444444",
"'.	c #363636",
").	c #1D1D1D",
"!.	c #323232",
"~.	c #4C4C4C",
"{.	c #969696",
"].	c #747474",
"^.	c #676767",
"/.	c #353535",
"(.	c #3B3B3B",
"_.	c #020202",
":.	c #2D2D2D",
"<.	c #8F8F8F",
"[.	c #868686",
"}.	c #878787",
"|.	c #3D3D3D",
"1.	c #A7A7A7",
"2.	c #B1B1B1",
"3.	c #9F9F9F",
"4.	c #7C7C7C",
"5.	c #8E8E8E",
"6.	c #373737",
"7.	c #6A6A6A",
"8.	c #D7D7D7",
"9.	c #3C3C3C",
"0.	c #A9A9A9",
"a.	c #C7C7C7",
"b.	c #252525",
"c.	c #929292",
"d.	c #B5B5B5",
"e.	c #838383",
"f.	c #767676",
"g.	c #A4A4A4",
"h.	c #AFAFAF",
"i.	c #303030",
"j.	c #8D8D8D",
"k.	c #808080",
"l.	c #939393",
"m.	c #888888",
"n.	c #979797",
"o.	c #4E4E4E",
"p.	c #9D9D9D",
"q.	c #C5C5C5",
"r.	c #7F7F7F",
"s.	c #757575",
"t.	c #999999",
"u.	c #626262",
"v.	c #FDFDFD",
". . . . . . . . . . + @ # $ % . & * . . . = - . . . ; > . , @ ' ) ! . . ~ @ @ @ { . ] . ^ / . . . . ( _ : < . [ @ } | @ 1 . 2 @ 3 . 4 @ @ @ 5 6 @ @ @ 7 8 . ] . 9 @ 0 a @ b . . c @ d . . . . ] . e f . g h . . 3 @ @ @ i j | } @ [ . < : _ ( . . . . ] . . k @ @ @ @ l m n o @ @ @ p q @ @ ; r s t @ = . . u @ @ v % $ # @ + . . . . . . . . . . ",
". . . . . . . . . . + @ # $ % . & * . . . = - . . . ; > . , @ ' ) ! . . ~ @ @ @ { . ] . ^ / . . . . ( _ : < . [ @ } | @ 1 . 2 @ 3 . 4 @ @ @ 5 6 @ @ @ 7 8 . ] . 9 @ 0 a @ b . . c @ d . . . . ] . e f . g h . . 3 @ @ @ i j | } @ [ . < : _ ( . . . . ] . . k @ @ @ @ l m n o @ @ @ p q @ @ ; r s t @ = . . u @ @ v % $ # @ + . . . . . . . . . . ",
". . . . . . . . . . + @ # $ % . & * . . . = - . . . ; > . , @ ' ) ! . . ~ @ @ @ { . ] . ^ / . . . . ( _ : < . [ @ } | @ 1 . 2 @ 3 . 4 @ @ @ 5 6 @ @ @ 7 8 . ] . 9 @ 0 a @ b . . c @ d . . . . ] . e f . g h . . 3 @ @ @ i j | } @ [ . < : _ ( . . . . ] . . k @ @ @ @ l m n o @ @ @ p q @ @ ; r s t @ = . . u @ @ v % $ # @ + . . . . . . . . . . ",
". . . . . . . . . . + @ # $ % . & * . . . = - . . . ; > . , @ ' ) ! . . ~ @ @ @ { . ] . ^ / . . . . ( _ : < . [ @ } | @ 1 . 2 @ 3 . 4 @ @ @ 5 6 @ @ @ 7 8 . ] . 9 @ 0 a @ b . . c @ d . . . . ] . e f . g h . . 3 @ @ @ i j | } @ [ . < : _ ( . . . . ] . . k @ @ @ @ l m n o @ @ @ p q @ @ ; r s t @ = . . u @ @ v % $ # @ + . . . . . . . . . . ",
". . . . . . . . . . + @ # $ % . & * . . . = - . . . ; > . , @ ' ) ! . . ~ @ @ @ { . ] . ^ / . . . . ( _ : < . [ @ } | @ 1 . 2 @ 3 . 4 @ @ @ 5 6 @ @ @ 7 8 . ] . 9 @ 0 a @ b . . c @ d . . . . ] . e f . g h . . 3 @ @ @ i j | } @ [ . < : _ ( . . . . ] . . k @ @ @ @ l m n o @ @ @ p q @ @ ; r s t @ = . . u @ @ v % $ # @ + . . . . . . . . . . ",
". . . . . . . . . . + @ # $ % . & * . . . = - . . . ; > . , @ ' ) ! . . ~ @ @ @ { . ] . ^ / . . . . ( _ : < . [ @ } | @ 1 . 2 @ 3 . 4 @ @ @ 5 6 @ @ @ 7 8 . ] . 9 @ 0 a @ b . . c @ d . . . . ] . e f . g h . . 3 @ @ @ i j | } @ [ . < : _ ( . . . . ] . . k @ @ @ @ l m n o @ @ @ p q @ @ ; r s t @ = . . u @ @ v % $ # @ + . . . . . . . . . . ",
". . . . . . . . . . + @ # $ % . & * . . . = - . . . ; > . , @ ' ) ! . . ~ @ @ @ { . ] . ^ / . . . . ( _ : < . [ @ } | @ 1 . 2 @ 3 . 4 @ @ @ 5 6 @ @ @ 7 8 . ] . 9 @ 0 a @ b . . c @ d . . . . ] . e f . g h . . 3 @ @ @ i j | } @ [ . < : _ ( . . . . ] . . k @ @ @ @ l m n o @ @ @ p q @ @ ; r s t @ = . . u @ @ v % $ # @ + . . . . . . . . . . ",
". . . . . . . . . . + @ # $ % . & * . . . = - . . . ; > . , @ ' ) ! . . ~ @ @ @ { . ] . ^ / . . . . ( _ : < . [ @ } | @ 1 . 2 @ 3 . 4 @ @ @ 5 6 @ @ @ 7 8 . ] . 9 @ 0 a @ b . . c @ d . . . . ] . e f . g h . . 3 @ @ @ i j | } @ [ . < : _ ( . . . . ] . . k @ @ @ @ l m n o @ @ @ p q @ @ ; r s t @ = . . u @ @ v % $ # @ + . . . . . . . . . . ",
". . . . . . . . . . + @ # $ % . & * . . . = - . . . ; > . , @ ' ) ! . . ~ @ @ @ { . ] . ^ / . . . . ( _ : < . [ @ } | @ 1 . 2 @ 3 . 4 @ @ @ 5 6 @ @ @ 7 8 . ] . 9 @ 0 a @ b . . c @ d . . . . ] . e f . g h . . 3 @ @ @ i j | } @ [ . < : _ ( . . . . ] . . k @ @ @ @ l m n o @ @ @ p q @ @ ; r s t @ = . . u @ @ v % $ # @ + . . . . . . . . . . ",
". . . . . . . . . . + @ # $ % . & * . . . = - . . . ; > . , @ ' ) ! . . ~ @ @ @ { . ] . ^ / . . . . ( _ : < . [ @ } | @ 1 . 2 @ 3 . 4 @ @ @ 5 6 @ @ @ 7 8 . ] . 9 @ 0 a @ b . . c @ d . . . . ] . e f . g h . . 3 @ @ @ i j | } @ [ . < : _ ( . . . . ] . . k @ @ @ @ l m n o @ @ @ p q @ @ ; r s t @ = . . u @ @ v % $ # @ + . . . . . . . . . . ",
". . . . . . . . . . + @ # $ % . & * . . . = - . . . ; > . , @ ' ) ! . . ~ @ @ @ { . ] . ^ / . . . . ( _ : < . [ @ } | @ 1 . 2 @ 3 . 4 @ @ @ 5 6 @ @ @ 7 8 . ] . 9 @ 0 a @ b . . c @ d . . . . ] . e f . g h . . 3 @ @ @ i j | } @ [ . < : _ ( . . . . ] . . k @ @ @ @ l m n o @ @ @ p q @ @ ; r s t @ = . . u @ @ v % $ # @ + . . . . . . . . . . ",
". . . . . . . . . . + @ # $ % . & * . . . = - . . . ; > . , @ ' ) ! . . ~ @ @ @ { . ] . ^ / . . . . ( _ : < . [ @ } | @ 1 . 2 @ 3 . 4 @ @ @ 5 6 @ @ @ 7 8 . ] . 9 @ 0 a @ b . . c @ d . . . . ] . e f . g h . . 3 @ @ @ i j | } @ [ . < : _ ( . . . . ] . . k @ @ @ @ l m n o @ @ @ p q @ @ ; r s t @ = . . u @ @ v % $ # @ + . . . . . . . . . . ",
". . . . . . . . . . + @ # $ % . & * . . . = - . . . ; > . , @ ' ) ! . . ~ @ @ @ { . ] . ^ / . . . . ( _ : < . [ @ } | @ 1 . 2 @ 3 . 4 @ @ @ 5 6 @ @ @ 7 8 . ] . 9 @ 0 a @ b . . c @ d . . . . ] . e f . g h . . 3 @ @ @ i j | } @ [ . < : _ ( . . . . ] . . k @ @ @ @ l m n o @ @ @ p q @ @ ; r s t @ = . . u @ @ v % $ # @ + . . . . . . . . . . ",
". . . . . . . . . . + @ # $ % . & * . . . = - . . . ; > . , @ ' ) ! . . ~ @ @ @ { . ] . ^ / . . . . ( _ : < . [ @ } | @ 1 . 2 @ 3 . 4 @ @ @ 5 6 @ @ @ 7 8 . ] . 9 @ 0 a @ b . . c @ d . . . . ] . e f . g h . . 3 @ @ @ i j | } @ [ . < : _ ( . . . . ] . . k @ @ @ @ l m n o @ @ @ p q @ @ ; r s t @ = . . u @ @ v % $ # @ + . . . . . . . . . . ",
". . . . . . . . . . + @ # $ % . & * . . . = - . . . ; > . , @ ' ) ! . . ~ @ @ @ { . ] . ^ / . . . . ( _ : < . [ @ } | @ 1 . 2 @ 3 . 4 @ @ @ 5 6 @ @ @ 7 8 . ] . 9 @ 0 a @ b . . c @ d . . . . ] . e f . g h . . 3 @ @ @ i j | } @ [ . < : _ ( . . . . ] . . k @ @ @ @ l m n o @ @ @ p q @ @ ; r s t @ = . . u @ @ v % $ # @ + . . . . . . . . . . ",
". . . . . . . . . . + @ # $ % . & * . . . = - . . . ; > . , @ ' ) ! . . ~ @ @ @ { . ] . ^ / . . . . ( _ : < . [ @ } | @ 1 . 2 @ 3 . 4 @ @ @ 5 6 @ @ @ 7 8 . ] . 9 @ 0 a @ b . . c @ d . . . . ] . e f . g h . . 3 @ @ @ i j | } @ [ . < : _ ( . . . . ] . . k @ @ @ @ l m n o @ @ @ p q @ @ ; r s t @ = . . u @ @ v % $ # @ + . . . . . . . . . . ",
". . . . . . . . . . + @ # $ % . & * . . . = - . . . ; > . , @ ' ) ! . . ~ @ @ @ { . ] . ^ / . . . . ( _ : < . [ @ } | @ 1 . 2 @ 3 . 4 @ @ @ 5 6 @ @ @ 7 8 . ] . 9 @ 0 a @ b . . c @ d . . . . ] . e f . g h . . 3 @ @ @ i j | } @ [ . < : _ ( . . . . ] . . k @ @ @ @ l m n o @ @ @ p q @ @ ; r s t @ = . . u @ @ v % $ # @ + . . . . . . . . . . ",
". . . . . . . . . . + @ # $ % . & * . . . = - . . . ; > . , @ ' ) ! . . ~ @ @ @ { . ] . ^ / . . . . ( _ : < . [ @ } | @ 1 . 2 @ 3 . 4 @ @ @ 5 6 @ @ @ 7 8 . ] . 9 @ 0 a @ b . . c @ d . . . . ] . e f . g h . . 3 @ @ @ i j | } @ [ . < : _ ( . . . . ] . . k @ @ @ @ l m n o @ @ @ p q @ @ ; r s t @ = . . u @ @ v % $ # @ + . . . . . . . . . . ",
". . . . . . . . . . + @ # $ % . & * . . . = - . . . ; > . , @ ' ) ! . . ~ @ @ @ { . ] . ^ / . . . . ( _ : < . [ @ } | @ 1 . 2 @ 3 . 4 @ @ @ 5 6 @ @ @ 7 8 . ] . 9 @ 0 a @ b . . c @ d . . . . ] . e f . g h . . 3 @ @ @ i j | } @ [ . < : _ ( . . . . ] . . k @ @ @ @ l m n o @ @ @ p q @ @ ; r s t @ = . . u @ @ v % $ # @ + . . . . . . . . . . ",
". . . . . . . . . . + @ # $ % . & * . . . = - . . . ; > . , @ ' ) ! . . ~ @ @ @ { . ] . ^ / . . . . ( _ : < . [ @ } | @ 1 . 2 @ 3 . 4 @ @ @ 5 6 @ @ @ 7 8 . ] . 9 @ 0 a @ b . . c @ d . . . . ] . e f . g h . . 3 @ @ @ i j | } @ [ . < : _ ( . . . . ] . . k @ @ @ @ l m n o @ @ @ p q @ @ ; r s t @ = . . u @ @ v % $ # @ + . . . . . . . . . . ",
". . . . . . . . . . + @ # $ % . & * . . . = - . . . ; > . , @ ' ) ! . . ~ @ @ @ { . ] . ^ / . . . . ( _ : < . [ @ } | @ 1 . 2 @ 3 . 4 @ @ @ 5 6 @ @ @ 7 8 . ] . 9 @ 0 a @ b . . c @ d . . . . ] . e f . g h . . 3 @ @ @ i j | } @ [ . < : _ ( . . . . ] . . k @ @ @ @ l m n o @ @ @ p q @ @ ; r s t @ = . . u @ @ v % $ # @ + . . . . . . . . . . ",
". . . . . . . . . . + @ # $ % . & * . . . = - . . . ; > . , @ ' ) ! . . ~ @ @ @ { . ] . ^ / . . . . ( _ : < . [ @ } | @ 1 . 2 @ 3 . 4 @ @ @ 5 6 @ @ @ 7 8 . ] . 9 @ 0 a @ b . . c @ d . . . . ] . e f . g h . . 3 @ @ @ i j | } @ [ . < : _ ( . . . . ] . . k @ @ @ @ l m n o @ @ @ p q @ @ ; r s t @ = . . u @ @ v % $ # @ + . . . . . . . . . . ",
". . . . . . . . . . + @ # $ % . & * . . . = - . . . ; > . , @ ' ) ! . . ~ @ @ @ { . ] . ^ / . . . . ( _ : < . [ @ } | @ 1 . 2 @ 3 . 4 @ @ @ 5 6 @ @ @ 7 8 . ] . 9 @ 0 a @ b . . c @ d . . . . ] . e f . g h . . 3 @ @ @ i j | } @ [ . < : _ ( . . . . ] . . k @ @ @ @ l m n o @ @ @ p q @ @ ; r s t @ = . . u @ @ v % $ # @ + . . . . . . . . . . ",
". . . . . . . . . . + @ # $ % . & * . . . = - . . . ; > . , @ ' ) ! . . ~ @ @ @ { . ] . ^ / . . . . ( _ : < . [ @ } | @ 1 . 2 @ 3 . 4 @ @ @ 5 6 @ @ @ 7 8 . ] . 9 @ 0 a @ b . . c @ d . . . . ] . e f . g h . . 3 @ @ @ i j | } @ [ . < : _ ( . . . . ] . . k @ @ @ @ l m n o @ @ @ p q @ @ ; r s t @ = . . u @ @ v % $ # @ + . . . . . . . . . . ",
". . . . . . . . . . + @ # $ % . & * . . . = - . . . ; > . , @ ' ) ! . . ~ @ @ @ { . ] . ^ / . . . . ( _ : < . [ @ } | @ 1 . 2 @ 3 . 4 @ @ @ 5 6 @ @ @ 7 8 . ] . 9 @ 0 a @ b . . c @ d . . . . ] . e f . g h . . 3 @ @ @ i j | } @ [ . < : _ ( . . . . ] . . k @ @ @ @ l m n o @ @ @ p q @ @ ; r s t @ = . . u @ @ v % $ # @ + . . . . . . . . . . ",
". . . . . . . . . . + @ # $ % . & * . . . = - . . . ; > . , @ ' ) ! . . ~ @ @ @ { . ] . ^ / . . . . ( _ : < . [ @ } | @ 1 . 2 @ 3 . 4 @ @ @ 5 6 @ @ @ 7 8 . ] . 9 @ 0 a @ b . . c @ d . . . . ] . e f . g h . . 3 @ @ @ i j | } @ [ . < : _ ( . . . . ] . . k @ @ @ @ l m n o @ @ @ p q @ @ ; r s t @ = . . u @ @ v % $ # @ + . . . . . . . . . . ",
". . . . . . . . . . + @ # $ % . & * . . . = - . . . ; > . , @ ' ) ! . . ~ @ @ @ { . ] . ^ / . . . . ( _ : < . [ @ } | @ 1 . 2 @ 3 . 4 @ @ @ 5 6 @ @ @ 7 8 . ] . 9 @ 0 a @ b . . c @ d . . . . ] . e f . g h . . 3 @ @ @ i j | } @ [ . < : _ ( . . . . ] . . k @ @ @ @ l m n o @ @ @ p q @ @ ; r s t @ = . . u @ @ v % $ # @ + . . . . . . . . . . ",
". . . . . . . . . . + @ # $ % . & * . . . = - . . . ; > . , @ ' ) ! . . ~ @ @ @ { . ] . ^ / . . . . ( _ : < . [ @ } | @ 1 . 2 @ 3 . 4 @ @ @ 5 6 @ @ @ 7 8 . ] . 9 @ 0 a @ b . . c @ d . . . . ] . e f . g h . . 3 @ @ @ i j | } @ [ . < : _ ( . . . . ] . . k @ @ @ @ l m n o @ @ @ p q @ @ ; r s t @ = . . u @ @ v % $ # @ + . . . . . . . . . . ",
". . . . . . . . . . + @ # $ % . & * . . . = - . . . ; > . , @ ' ) ! . . ~ @ @ @ { . ] . ^ / . . . . ( _ : < . [ @ } | @ 1 . 2 @ 3 . 4 @ @ @ 5 6 @ @ @ 7 8 . ] . 9 @ 0 a @ b . . c @ d . . . . ] . e f . g h . . 3 @ @ @ i j | } @ [ . < : _ ( . . . . ] . . k @ @ @ @ l m n o @ @ @ p q @ @ ; r s t @ = . . u @ @ v % $ # @ + . . . . . . . . . . ",
". . . . . . . . . . + @ # $ % . & * . . . = - . . . ; > . , @ ' ) ! . . ~ @ @ @ { . ] . ^ / . . . . ( _ : < . [ @ } | @ 1 . 2 @ 3 . 4 @ @ @ 5 6 @ @ @ 7 8 . ] . 9 @ 0 a @ b . . c @ d . . . . ] . e f . g h . . 3 @ @ @ i j | } @ [ . < : _ ( . . . . ] . . k @ @ @ @ l m n o @ @ @ p q @ @ ; r s t @ = . . u @ @ v % $ # @ + . . . . . . . . . . ",
". . . . . . . . . . + @ # $ % . & * . . . = - . . . ; > . , @ ' ) ! . . ~ @ @ @ { . ] . ^ / . . . . ( _ : < . [ @ } | @ 1 . 2 @ 3 . 4 @ @ @ 5 6 @ @ @ 7 8 . ] . 9 @ 0 a @ b . . c @ d . . . . ] . e f . g h . . 3 @ @ @ i j | } @ [ . < : _ ( . . . . ] . . k @ @ @ @ l m n o @ @ @ p q @ @ ; r s t @ = . . u @ @ v % $ # @ + . . . . . . . . . . ",
". . . . . . . . . . + @ # $ % . & * . . . = - . . . ; > . , @ ' ) ! . . ~ @ @ @ { . ] . ^ / . . . . ( _ : < . [ @ } | @ 1 . 2 @ 3 . 4 @ @ @ 5 6 @ @ @ 7 8 . ] . 9 @ 0 a @ b . . c @ d . . . . ] . e f . g h . . 3 @ @ @ i j | } @ [ . < : _ ( . . . . ] . . k @ @ @ @ l m n o @ @ @ p q @ @ ; r s t @ = . . u @ @ v % $ # @ + . . . . . . . . . . ",
". . . . . . . . . . + @ # $ % . & * . . . = - . . . ; > . , @ ' ) ! . . ~ @ @ @ { . ] . ^ / . . . . ( _ : < . [ @ } | @ 1 . 2 @ 3 . 4 @ @ @ 5 6 @ @ @ 7 8 . ] . 9 @ 0 a @ b . . c @ d . . . . ] . e f . g h . . 3 @ @ @ i j | } @ [ . < : _ ( . . . . ] . . k @ @ @ @ l m n o @ @ @ p q @ @ ; r s t @ = . . u @ @ v % $ # @ + . . . . . . . . . . ",
". . . . . . . . . . + @ # $ % . & * . . . = - . . . ; > . , @ ' ) ! . . ~ @ @ @ { . ] . ^ / . . . . ( _ : < . [ @ } | @ 1 . 2 @ 3 . 4 @ @ @ 5 6 @ @ @ 7 8 . ] . 9 @ 0 a @ b . . c @ d . . . . ] . e f . g h . . 3 @ @ @ i j | } @ [ . < : _ ( . . . . ] . . k @ @ @ @ l m n o @ @ @ p q @ @ ; r s t @ = . . u @ @ v % $ # @ + . . . . . . . . . . ",
". . . . . . . . . . + @ # $ % . & * . . . = - . . . ; > . , @ ' ) ! . . ~ @ @ @ { . ] . ^ / . . . . ( _ : < . [ @ } | @ 1 . 2 @ 3 . 4 @ @ @ 5 6 @ @ @ 7 8 . ] . 9 @ 0 a @ b . . c @ d . . . . ] . e f . g h . . 3 @ @ @ i j | } @ [ . < : _ ( . . . . ] . . k @ @ @ @ l m n o @ @ @ p q @ @ ; r s t @ = . . u @ @ v % $ # @ + . . . . . . . . . . ",
". . . . . . . . . . + @ # $ % . & * . . . = - . . . ; > . , @ ' ) ! . . ~ @ @ @ { . ] . ^ / . . . . ( _ : < . [ @ } | @ 1 . 2 @ 3 . 4 @ @ @ 5 6 @ @ @ 7 8 . ] . 9 @ 0 a @ b . . c @ d . . . . ] . e f . g h . . 3 @ @ @ i j | } @ [ . < : _ ( . . . . ] . . k @ @ @ @ l m n o @ @ @ p q @ @ ; r s t @ = . . u @ @ v % $ # @ + . . . . . . . . . . ",
". . . . . . . . . . + @ # $ % . & * . . . = - . . . ; > . , @ ' ) ! . . ~ @ @ @ { . ] . ^ / . . . . ( _ : < . [ @ } | @ 1 . 2 @ 3 . 4 @ @ @ 5 6 @ @ @ 7 8 . ] . 9 @ 0 a @ b . . c @ d . . . . ] . e f . g h . . 3 @ @ @ i j | } @ [ . < : _ ( . . . . ] . . k @ @ @ @ l m n o @ @ @ p q @ @ ; r s t @ = . . u @ @ v % $ # @ + . . . . . . . . . . ",
". . . . . . . . . . + @ # $ % . & * . . . = - . . . ; > . , @ ' ) ! . . ~ @ @ @ { . ] . ^ / . . . . ( _ : < . [ @ } | @ 1 . 2 @ 3 . 4 @ @ @ 5 6 @ @ @ 7 8 . ] . 9 @ 0 a @ b . . c @ d . . . . ] . e f . g h . . 3 @ @ @ i j | } @ [ . < : _ ( . . . . ] . . k @ @ @ @ l m n o @ @ @ p q @ @ ; r s t @ = . . u @ @ v % $ # @ + . . . . . . . . . . ",
". . . . . . . . . . + @ # $ % . & * . . . = - . . . ; > . , @ ' ) ! . . ~ @ @ @ { . ] . ^ / . . . . ( _ : < . [ @ } | @ 1 . 2 @ 3 . 4 @ @ @ 5 6 @ @ @ 7 8 . ] . 9 @ 0 a @ b . . c @ d . . . . ] . e f . g h . . 3 @ @ @ i j | } @ [ . < : _ ( . . . . ] . . k @ @ @ @ l m n o @ @ @ p q @ @ ; r s t @ = . . u @ @ v % $ # @ + . . . . . . . . . . ",
". . . . . . . . . . w } x y z . 1 A . . . B C . . . D E . F } D G * . . H } } } I . c . # J . . . . k K p c . L } 9 } } M . N } O . y } } } P Q } } } 9 R . c . S } T E } U . . ) } V . . . . c . # W . X n . . O } } } Y Z } 9 } L . c p K k . . . . c . . ` } } } }  .B A f } } } ) T } } D ..* +.} B . . R } } @.z y x } w . . . . . . . . . . ",
". . . . . . . . . . . . . . . . . . . * G . . . . . . . . . . . . . . . . . . . . . . . . . . . . . . . . . . . . . . . . . . . . . . . . . . . . . . . . . . . . . . . . . . . . . . . . . . . . . . . . . . . . . . . . . . . . . . . . . . . . . . . . . . . . . . . . . . . c . . . . . . . . . . . . . . . . . . . . . . . . . . . . . . . . ",
". . . . . . . . . . . . . . . . . . . #.x . . . . . . . . . . . . . . . . . . . . . . . . . . . . . . . . . . . . . . . . . . . . . . . . . . . . . . . . . . . . . . . . . . . . . . . . . . . . . . . . . . . . . . . . . . . . . . . . . . . . . . . . . . . . . . . . . . . ] . . . . . . . . . . . . . . . . . . . . . . . . . . . . . . . . ",
". . . . . . . . . . . . . . . $.%.%.%.&.x . . . . . . . . . W %.%.%.A . . . . . . . . . . Z %.%.%.) . . . . . . . . . . . . . . . . . . . . . . . $.*.y %.%.%.%.=.. . . . . . . . . Q %.%.y . . . . . . . . . . U %.%.%.-.. . . . . . . . . . ) %.%.%.S . . . . . . . . . . . . ] . . . . . . . . . . . . l %.%.%.$.. . . . . . . . . . . . . . . ",
". . . . . . . . . . . . . . . L ;.>.,.@ x . . . . . . . . . p '.>.] o . . . . . . . . . . ).!.>.~.{.. . . . . . . . . . . . . . . . . . . . . . . Y 2 ].,.@ ^./.c . . . . . . . . p i >.>.(.. . . . . . . . . . 3 _.>.:.<.. . . . . . . . . . {.~.>.!.[.. . . . . . . . . . . . ] . . . . . . . . . . . S u ,.>.;.L . . . . . . . . . . . . . . . ",
". . . . . . . . . . . . . . . L }.. Q |.x . . . . . . . . . >.D . 1.o . . . . . . . . . . ).].. 2.{.. . . . . . . . . . . . . . . . . . . . . . . Y 8 A 3.& G 4.c . . . . . . . . %.V . 5.6.. . . . . . . . . . 3 }.. 7.i . . . . . . . . . . {.2.. 8.9.. . . . . . . . . . . . ] . . . . . . . . . . . x |.Q . }.L . . . . . . . . . . . . . . . ",
". . . . . . . . . . . . . . . L }.. . #.x . . . . . . . . . ] . . 1.o . . . . . . . . . . ).].. 2.{.. . . . . . . . . . . . . . . . . . . . . . . Y [.. 3.0.. 4.c . . . . . . . . %.{ &.V ] . . . . . . . . . . 3 E . 7.i . . . . . . . . . . {.2.. . ] . . . . . . . . . . . . ] . . . . . . . . . . . x #.. . }.L . . . . . . . . . . . . . . . ",
". . . . . . . . . . . . . . . L }.. a.b.x . . . . . . . . . c.d.. 1.o . . . . . . . . . . ).].. 2.{.. . . . . . . . . . . . . . . . . . . . . . . Y [.. 3.0.. 4.c . . . . . . . . e.f.. g.(.. . . . . . . . . . 3 E . 7.i . . . . . . . . . . {.2.. h.i.. . . . . . . . . . . . ] . . . . . . . . . . . x b.a.. }.L . . . . . . . . . . . . . . . ",
". . . . . . . . . . . . . . . $.j.&.k.u M . . . . . . . . . W l.&.= A . . . . . . . . . . |.m.. C 0 . . . . . . . . . . . . . . . . . . . . . . . p n.. % d.. <.# . . . . . . . . ` 7.&.!.o.. . . . . . . . . . p.q.. r.: . . . . . . . . . . ) s.&.t.Z . . . . . . . . . . . . u.. . . . . . . . . . . v.%.k.&.j.$.. . . . . . . . . . . . . . . ",
". . . . . . . . . . . . . . . . . . . . . . . . . . . . . . . . . . . . . . . . . . . . . . . . . . . . . . . . . . . . . . . . . . . . . . . . . . . . . . . . . . . . . . . . . . . . . . . . . . . . . . . . . . . . . . . . . . . . . . . . . . . . . . . . . . . . . . . . . . . . . . . . . . . . . . . . . . . . . . . . . . . . . . . . . ",
". . . . . . . . . . . . . . . . . . . . . . . . . . . . . . . . . . . . . . . . . . . . . . . . . . . . . . . . . . . . . . . . . . . . . . . . . . . . . . . . . . . . . . . . . . . . . . . . . . . . . . . . . . . . . . . . . . . . . . . . . . . . . . . . . . . . . . . . . . . . . . . . . . . . . . . . . . . . . . . . . . . . . . . . . "};
