/* XPM */
static char * calendar_xpm[] = {
"70 75 369 2",
"  	c None",
". 	c #696969",
"+ 	c #6B6B6B",
"@ 	c #6F6F6F",
"# 	c #6E6E6E",
"$ 	c #6A6A6A",
"% 	c #777777",
"& 	c #ACACAC",
"* 	c #B4B4B4",
"= 	c #9D9D9D",
"- 	c #A8A8A8",
"; 	c #ADADAD",
"> 	c #A9A9A9",
", 	c #898989",
"' 	c #9B9B9B",
") 	c #CECECE",
"! 	c #B5B5B5",
"~ 	c #B6B6B6",
"{ 	c #B9B9B9",
"] 	c #B8B8B8",
"^ 	c #9E9E9E",
"/ 	c #707070",
"( 	c #AAAAAA",
"_ 	c #BABABA",
": 	c #9F9F9F",
"< 	c #A3A3A3",
"[ 	c #A2A2A2",
"} 	c #A0A0A0",
"| 	c #797979",
"1 	c #6C6C6C",
"2 	c #C8C8C8",
"3 	c #CBCBCB",
"4 	c #808080",
"5 	c #727272",
"6 	c #9A9A9A",
"7 	c #A1A1A1",
"8 	c #878787",
"9 	c #787878",
"0 	c #8D8D8D",
"a 	c #7B7B7B",
"b 	c #909090",
"c 	c #989898",
"d 	c #828282",
"e 	c #737373",
"f 	c #818181",
"g 	c #676767",
"h 	c #8F9090",
"i 	c #A9AAAA",
"j 	c #A8A9A9",
"k 	c #A7A8A8",
"l 	c #A7A7A7",
"m 	c #A6A7A7",
"n 	c #A6A6A6",
"o 	c #A5A6A6",
"p 	c #A5A5A5",
"q 	c #A4A5A5",
"r 	c #A4A4A4",
"s 	c #A3A4A4",
"t 	c #A2A3A3",
"u 	c #A1A2A2",
"v 	c #A0A1A1",
"w 	c #999999",
"x 	c #686868",
"y 	c #D5D5D5",
"z 	c #FFFFFF",
"A 	c #FBFBFB",
"B 	c #737474",
"C 	c #F0F0F0",
"D 	c #FEFEFE",
"E 	c #F3F5F5",
"F 	c #F2F5F5",
"G 	c #F3F6F6",
"H 	c #F4F6F6",
"I 	c #F4F7F7",
"J 	c #F5F7F7",
"K 	c #F6F7F7",
"L 	c #F6F8F8",
"M 	c #F7F8F8",
"N 	c #F7F9F9",
"O 	c #F8F9F9",
"P 	c #F9FAFA",
"Q 	c #FDFDFD",
"R 	c #939494",
"S 	c #767676",
"T 	c #FAFAFA",
"U 	c #E7EBEB",
"V 	c #E6EBEB",
"W 	c #E7ECEC",
"X 	c #E8EDED",
"Y 	c #E9EDED",
"Z 	c #EAEEEE",
"` 	c #EBEFEF",
" .	c #ECF0F0",
"..	c #EDF0F0",
"+.	c #EEF1F1",
"@.	c #EEF2F2",
"#.	c #B2B2B2",
"$.	c #E8ECEC",
"%.	c #E9EEEE",
"&.	c #EFF2F2",
"*.	c #D2D2D2",
"=.	c #ECEFEF",
"-.	c #EDF1F1",
";.	c #F1F4F4",
">.	c #F2F2F2",
",.	c #6D6D6D",
"'.	c #BEBEBE",
").	c #EFF1F1",
"!.	c #F0F3F3",
"~.	c #FCFDFD",
"{.	c #7E7E7E",
"].	c #D6D6D6",
"^.	c #EBEEEE",
"/.	c #E3E8E8",
"(.	c #DFE4E4",
"_.	c #E4E9E9",
":.	c #F1F3F3",
"<.	c #EFEFEF",
"[.	c #E8EBEB",
"}.	c #C3C7C7",
"|.	c #838585",
"1.	c #4E5050",
"2.	c #2E2F2F",
"3.	c #242525",
"4.	c #242424",
"5.	c #313232",
"6.	c #5E6060",
"7.	c #AFB3B3",
"8.	c #CCD0D0",
"9.	c #949797",
"0.	c #535555",
"a.	c #ACAFAF",
"b.	c #C2C2C2",
"c.	c #F9F9F9",
"d.	c #FAFBFB",
"e.	c #575959",
"f.	c #070707",
"g.	c #000000",
"h.	c #040404",
"i.	c #5C5E5E",
"j.	c #DDE2E2",
"k.	c #D8DDDD",
"l.	c #707272",
"m.	c #323333",
"n.	c #0A0A0A",
"o.	c #898B8B",
"p.	c #E0E0E0",
"q.	c #E5EAEA",
"r.	c #141414",
"s.	c #676969",
"t.	c #E1E6E6",
"u.	c #8E9191",
"v.	c #4D4E4E",
"w.	c #191A1A",
"x.	c #010101",
"y.	c #727474",
"z.	c #F2F4F4",
"A.	c #FCFCFC",
"B.	c #D7DCDC",
"C.	c #0B0B0B",
"D.	c #101010",
"E.	c #434444",
"F.	c #2F3030",
"G.	c #0F1010",
"H.	c #080909",
"I.	c #CDD2D2",
"J.	c #DADFDF",
"K.	c #060606",
"L.	c #5B5C5C",
"M.	c #8E8E8E",
"N.	c #C6CACA",
"O.	c #232424",
"P.	c #878A8A",
"Q.	c #D1D6D6",
"R.	c #C9CDCD",
"S.	c #444545",
"T.	c #A0A3A3",
"U.	c #DEE3E3",
"V.	c #181919",
"W.	c #151616",
"X.	c #D7D7D7",
"Y.	c #D4D9D9",
"Z.	c #C7CBCB",
"`.	c #0D0E0E",
" +	c #9A9E9E",
".+	c #E2E7E7",
"++	c #2B2C2C",
"@+	c #121212",
"#+	c #4B4D4D",
"$+	c #929595",
"%+	c #CFD3D3",
"&+	c #7F8282",
"*+	c #2D2E2E",
"=+	c #CDCDCD",
"-+	c #EEEEEE",
";+	c #1F2020",
">+	c #C2C6C6",
",+	c #B9BDBD",
"'+	c #D7DBDB",
")+	c #989B9B",
"!+	c #161616",
"~+	c #7A7B7B",
"{+	c #F8F8F8",
"]+	c #1B1C1C",
"^+	c #AFB2B2",
"/+	c #E9ECEC",
"(+	c #FDFEFE",
"_+	c #696C6C",
":+	c #777A7A",
"<+	c #C1C5C5",
"[+	c #050606",
"}+	c #D4D7D7",
"|+	c #4E4F4F",
"1+	c #414343",
"2+	c #D1D5D5",
"3+	c #0D0D0D",
"4+	c #BDC0C0",
"5+	c #BDBDBD",
"6+	c #BEC2C2",
"7+	c #1A1A1A",
"8+	c #171717",
"9+	c #0F0F0F",
"0+	c #6F7171",
"a+	c #E2E6E6",
"b+	c #141515",
"c+	c #A7A9A9",
"d+	c #DCDCDC",
"e+	c #D8D8D8",
"f+	c #A7ABAB",
"g+	c #272828",
"h+	c #9DA1A1",
"i+	c #909292",
"j+	c #F7F7F7",
"k+	c #EDEDED",
"l+	c #212222",
"m+	c #A7AAAA",
"n+	c #3A3B3B",
"o+	c #787A7A",
"p+	c #8A8B8B",
"q+	c #A0A4A4",
"r+	c #4A4B4B",
"s+	c #494A4A",
"t+	c #111111",
"u+	c #B3B7B7",
"v+	c #525353",
"w+	c #616262",
"x+	c #F8FAFA",
"y+	c #D9DEDE",
"z+	c #131313",
"A+	c #696B6B",
"B+	c #4A4A4A",
"C+	c #FBFCFC",
"D+	c #CFCFCF",
"E+	c #8C8F8F",
"F+	c #808282",
"G+	c #F4F4F4",
"H+	c #717171",
"I+	c #BDC1C1",
"J+	c #DCE1E1",
"K+	c #989A9A",
"L+	c #1A1B1B",
"M+	c #959595",
"N+	c #D9D9D9",
"O+	c #A6AAAA",
"P+	c #2A2B2B",
"Q+	c #090909",
"R+	c #ECECEC",
"S+	c #606262",
"T+	c #C3C5C5",
"U+	c #050505",
"V+	c #D8DADA",
"W+	c #848787",
"X+	c #303131",
"Y+	c #A1A5A5",
"Z+	c #C7CCCC",
"`+	c #5D5F5F",
" @	c #020202",
".@	c #BBBFBF",
"+@	c #D5D8D8",
"@@	c #030303",
"#@	c #6D7070",
"$@	c #1C1C1C",
"%@	c #5F6262",
"&@	c #545555",
"*@	c #383A3A",
"=@	c #0C0C0C",
"-@	c #717474",
";@	c #E7EAEA",
">@	c #AEAFAF",
",@	c #7C7C7C",
"'@	c #656767",
")@	c #E0E5E5",
"!@	c #202121",
"~@	c #979898",
"{@	c #CACACA",
"]@	c #BFBFBF",
"^@	c #585A5A",
"/@	c #222323",
"(@	c #9A9D9D",
"_@	c #383939",
":@	c #7F8080",
"<@	c #AAAEAE",
"[@	c #464848",
"}@	c #303232",
"|@	c #1F1F1F",
"1@	c #282929",
"2@	c #3B3C3C",
"3@	c #A6A9A9",
"4@	c #686969",
"5@	c #272727",
"6@	c #7F8181",
"7@	c #868686",
"8@	c #EBEBEB",
"9@	c #F0F2F2",
"0@	c #7D7D7D",
"a@	c #7A7A7A",
"b@	c #9C9C9C",
"c@	c #8F8F8F",
"d@	c #C0C0C0",
"e@	c #C1C1C1",
"f@	c #757575",
"g@	c #F1F1F1",
"h@	c #C9C9C9",
"i@	c #666666",
"j@	c #FEFFFF",
"k@	c #E4E4E4",
"l@	c #C7C7C7",
"m@	c #ABABAB",
"n@	c #929292",
"o@	c #838383",
"p@	c #656565",
"q@	c #BABBBB",
"r@	c #BBBBBB",
"s@	c #B2B3B3",
"t@	c #B1B1B1",
"u@	c #969696",
"v@	c #858585",
"w@	c #888888",
"x@	c #949494",
"y@	c #747474",
"z@	c #AFAFAF",
"A@	c #AEAEAE",
"B@	c #979797",
"C@	c #7F7F7F",
"D@	c #CCCCCC",
"E@	c #DEDEDE",
"F@	c #DDDDDD",
"G@	c #DADADA",
"H@	c #D4D4D4",
"I@	c #D3D3D3",
"J@	c #D1D1D1",
"K@	c #D0D0D0",
"L@	c #C5C5C5",
"M@	c #C4C4C4",
"N@	c #C3C3C3",
"O@	c #BCBCBC",
"P@	c #B7B7B7",
"Q@	c #B3B3B3",
"R@	c #B0B0B0",
"S@	c #939393",
"T@	c #C6C6C6",
"U@	c #8B8B8B",
"V@	c #646464",
"W@	c #919191",
"X@	c #8C8C8C",
"Y@	c #848484",
"Z@	c #8A8A8A",
"`@	c #2D2D2D",
" #	c #2C2C2C",
"                    . . . . . . . . . . . . . . . . . . . . . . . . . . . . . . . . . . . . . . . . . . . . . .                             ",
"                  . . + @ @ @ @ @ @ @ @ @ @ @ @ @ @ @ @ @ @ @ @ @ @ @ @ @ @ @ @ @ @ @ @ @ @ @ @ @ @ @ @ @ @ # $ .                           ",
"                  . % & * = - ; ; ; ; ; ; ; ; ; ; ; ; ; ; ; ; ; ; ; ; ; ; ; ; ; ; ; ; ; ; ; ; ; ; ; ; ; ; ; > , $ .                         ",
"                . . ' ) ) ! ~ { { { { { { { { { { { { { { { { { { { { { { { { { { { { { { { { { { { { { { { ] ^ / .                         ",
"                . . ( ) ) _ : < [ [ [ [ [ [ [ [ [ [ [ [ [ < [ [ [ [ [ [ < [ [ [ [ [ [ < [ [ < < [ [ < [ [ [ } ' | .                         ",
"                . 1 : 2 3 > ' ' ' ' ' ' ' ' ' ' ' ' ' ' ' ' ' ' ' ' ' ' ' ' ' ' ' ' ' ' ' ' ' ' ' ' ' ' ' ' ' ' 4 .                         ",
"                . 5 6 : 7 ' ' ' ' ' ' ' ' ' ' ' ' ' ' ' ' ' ' ' ' ' ' ' ' ' ' ' ' ' ' ' ' ' ' ' ' ' ' ' ' ' ' ' 8 .                         ",
"                . 9 ' ' ' ' ' ' ' ' ' ' ' ' ' ' ' ' ' ' ' ' ' ' ' ' ' ' ' ' ' ' ' ' ' ' ' ' ' ' ' ' ' ' ' ' ' ' 0 . .                       ",
"                . a ' ' ' ' ' ' ' ' ' ' ' ' ' ' ' ' ' ' ' ' ' ' ' ' ' ' ' ' ' ' ' ' ' ' ' ' ' ' ' ' ' ' ' ' ' ' b . .                       ",
"                . / c ' ' ' ' ' ' ' ' ' ' ' ' ' ' ' ' ' ' ' ' ' ' ' ' ' ' ' ' ' ' ' ' ' ' ' ' ' ' ' ' ' ' ' ' ' d . .                       ",
"                . . e f d d d d d d d d d d d d d d d d d d d d d d d d d d d d d d d d d d d d d d d d d d d a + .                         ",
"                  . . . . . . . . . . . . . . . . . . . . . . . . . . . . . . . . . . . . . . . . . . . . . . . . .                         ",
"                g . h ( ( i > > j - k k l m m n o o p q q r s s < t t [ u u 7 v } } } } } } } } } } } } } } v w + .                         ",
"                x . y z z z z z z z z z z z z z z z z z z z z z z z z z z z z z z z z z z z z z z z z z z z z A B .                         ",
"                x . C D E E E E F E E E E E E E G G G G G H H H H H H H H H H H I J J J J J K L L M N O O P Q z R .                         ",
"                x S T A U U U V V V V V V V V V V V V V V V V V V V V V V V V V V V V V V W X Y Z `  ...+.@.L z #..                         ",
"                . 0 D M U U U V V V V V V V V V V V V V V V V V V V V V V V V V V V V V W $.Y %.Z `  ...+.&.G z *.. .                       ",
"                . r z E U U V V V V V V V V V V V V V V V V V V V V V V V V V V V V V V W X Y Z ` =. .-.+.&.;.D >.,..                       ",
"              g . '.z ).U U V V V V V V V V V V V V V V V V V V V V V V V V V V V V V U $.X %.Z `  ...+.&.&.!.~.z {..                       ",
"              x . ].z ^.U V V V V V V V V V V V V /.(.(._.V V V V V V V V V V V V V V W $.Y Y ` `  .-.+.&.!.:.P z : .                       ",
"              x $ <.D [.U V V V V V V V V _.}.|.1.2.3.4.5.6.7./.V V V V V V V V V V /.8.9.0.a.`  ...-.@.&.!.;.M z b..                       ",
"              x | c.d.U U V V V V V V V V e.f.g.g.g.g.g.g.g.h.i.j.V V V V V V k.7.l.m.n.g.g.o.`  ...+.&.!.!.;.H z p.. .                     ",
"              . 0 D L U V V V V V V V V q.r.g.g.g.g.g.g.g.g.g.g.s.q.V V t.u.v.w.x.g.g.g.g.g.y.=. .-.+.&.!.;.z.E D A.# .                     ",
"              . p z z.U V V V V V V V V B.C.g.D.m.E.F.G.g.g.g.g.H.I.V V J.K.g.g.g.g.g.g.g.g.L. ...+.&.&.!.;.F E A.z M..                     ",
"              . '.z +.V V V V V V V V V N.O.P.Q.q.V q.R.S.g.g.g.g.T.V V U.V.g.g.g.C.W.g.g.g.S. .-.+.&.!.:.z.F G P z ; .                     ",
"            x . X.z Z V V V V V V V V V k.Y.V V V V V V Z.`.g.g.g. +V V .+++@+#+$+%+&+g.g.g.*+..+.@.&.!.;.z.E H N z =+. .                   ",
"            x + -+D $.V V V V V V V V V V V V V V V V V (.;+g.g.g.>+V V V ,+'+q.W $.)+g.g.g.!+..+.&.!.:.;.F E H L z C . .                   ",
"            x ~+{+d.U V V V V V V V V V V V V V V V V V I.`.g.g.]+(.V V V V V V W X ^+g.g.g.h./++.&.!.;.z.E G H J (+Q a .                   ",
"            . 0 D L V V V V V V V V V V V V V V V V V _._+g.g.g.:+V V V V V V U $.X <+[+g.g.x.}+&.!.!.;.F E H J K A.z w .                   ",
"            . n z F V V V V V V V V V V V V V V V U.7.|+x.g.g.1+U.V V V V V V W $.Y 2+3+g.g.x.4+&.!.:.z.F G H J L d.z 5+.                   ",
"            . '.z +.V V V V V V V V V V V 6+7+8+9+g.g.g.g.D.0+U.V V V V V V V W X Y a+b+g.g.g.c+&.!.;.z.E H J J L P z d+. .                 ",
"          x . e+z Z V V V V V V V V V V V f+x.g.g.g.g.g.g+h+U.V V V V V V V W $.Y %.Z O.g.g.g.i+!.:.;.F E H J K M O z j+# .                 ",
"          x 1 k+Q W V V V V V V V V V V V $+g.g.g.g.g.g.g.g.l+m+V V V V V V W X Y Z ` n+g.g.g.o+!.;.z.E H H J L N O (+D p+.                 ",
"          x a {+d.V V V V V V V V V V V V q+r+s+n+g+t+x.g.g.g.n.u+V V V V U $.X %.Z ` v+g.g.g.w+!.;.F E H J K L N x+~.z > .                 ",
"          . 0 z L V V V V V V V V V V V V V V V V V y+$+z+g.g.g.S._.V V V W $.Y Z Z ` A+g.g.g.B+:.z.F G H J L M O P C+z D+. .               ",
"          . n z z.V V V V V V V V V V V V V V V V V V V E+g.g.g.b+j.V V U W X Y Z `  .F+g.g.g.m.;.z.E H J J L N O P d.z G+H+.               ",
"          . '.z +.V V V V V V V V V V V V V V V V V V V I+g.g.g.G.J+V V W $.Y Z Z `  .K+g.g.g.L+;.F E H J L M O x+P d.D D M+.               ",
"        x . N+z Z V V V V V V V V V V V V V V V V V V V O+g.g.g.P+.+V V W X Y Z ` =. .^+g.g.g.Q+^.E H H J L M O P d.A Q z 3 . .             ",
"        x # R+Q $.V V V V V V V V V I.J.V V V V V V V .+v.g.g.g.S+V V U $.X %.Z `  ...T+U+g.g.K.V+E H J K L N x+P d.C+A.z j+a .             ",
"        x a c.d.V V V V V V V V V V W+X+Y+(.V V V V Z+`+ @g.g.f..@V V W $.Y Z ` `  .-.+@n.g.g.@@T+G H J L M O P P d.C+~.D z { .             ",
"        . 0 z L V V V V V V V V V V #@g.@@$@r+%@&@*@=@g.g.g.g.-@q.V U W X Y Z `  ...+.;@D.g.g.g.>@H J J L N O P d.A A.~.(+z G+,@.           ",
"        . l z z.V V V V V V V V V V e.g.g.g.g.g.g.g.g.g.g. @'@)@V V W $.Y %.Z `  ...+.&.!@g.g.g.~@H J L M O x+P d.C+A.Q D z z {@$ .         ",
"        . ]@z +.V V V V V V V V V V ^@g.g.g.g.g.g.g.g.g./@(@/.V V V W X Y Z ` =. .-.+.&._@g.g.g.:@H J L N O P d.d.C+~.Q D z z Q ' . .       ",
"      x . N+z Z V V V V V V V V V V t.<@s.[@}@|@1@2@s.3@(.V V V V U $.X %.Z `  ...+.&.&.4@5@5@5@6@J K L N x+P d.C+A.Q D D z z z G+7@. .     ",
"      x @ 8@Q $.V V V V V V V V V V V V V V _./._.q.V V V V V V V W $.Y Z ` `  .-.+.&.!.&.&.9@:.E J L M O P P d.C+~.Q D z z z z z k+0@. .   ",
"      x a@T d.V V V V V V V V V V V V V V V V V V V V V V V V V V W X Y Z `  ...+.@.&.!.;.z.E H J K L N O P d.A A.~.(+D z z z z z z <.8 . . ",
"      x M.z L V V V V V V V V V V V V V V V V V V V V V V V V V W $.Y %.Z `  .-.+.&.!.!.;.F E H J L M O x+P d.C+~.Q D z z z z z z z c.b@. . ",
"      . l z z.V V V V V V V V V V V V V V V V V V V V V V V V V W X Y Z ` =. .-.+.&.!.;.z.E H H J L N O P d.d.C+~.Q D z z z z z z k+c@. .   ",
"      . d@z -.V V V V V V V V V V V V V V V V V V V V V V V V U $.X %.Z `  ...+.&.&.!.;.F E H J K M N x+P d.C+A.Q D D z z z z {+e@f@. .     ",
"    x . N+z Z V V V V V V V V V V V V V V V V V V V V V V V V W $.Y Z ` `  .-.+.&.!.:.z.F G H J L M O P d.A A.Q D z z z z g@5+{.. .         ",
"    x / R+D !.@.@.@.@.@.@.@.@.@.@.@.@.@.@.@.@.@.@.@.@.@.@.@.&.&.!.!.;.z.F E G H H J L L N x+P d.C+C+Q D D z z z z Q k+h@6 e . # + i@        ",
"    x | A z z z z z z z z z z z z z z z z z z z z z z z z z z z z z z z z z z z z z z z z z z z z z z j@T <.k@l@m@8 # . . ,.. n@o@p@        ",
"    x | _ _ _ _ _ _ _ _ _ _ _ _ _ _ _ _ _ _ _ _ _ _ _ _ _ _ _ _ _ _ q@q@q@q@q@r@r@r@r@_ ] ! s@t@; p u@7@0@H+. . . + f@v@M+M+. d c p@        ",
"    . . . . . . . . . . . . . . . . . . . . . . . . . . . . . . . . . . . . . . . . . . . . . . . . . 1 / f@0@w@x@^ r r < : @ 5 l i@p@      ",
"    g 8 y@1 - z@z@A@; ; & m@m@( > > - l l n p p r < [ [ 7 } } : ^ ^ = b@b@' ' 6 w c c B@u@B@c 6 ' : < p - ( > - l n p r < 7 | $ ( ,.p@      ",
"  p@p@l C@1 D@E@F@d+G@N+e+X.].y H@I@J@K@D+) =+D@3 {@h@2 l@L@M@N@b.e@d@]@5+O@r@_ { ] P@! * Q@#.t@R@z@A@; & ( > - l n p r < 7 a@$ t@a p@      ",
"  p@g * 0 . S@*.X.].y H@I@*.K@D+) ) D@3 {@h@2 l@T@L@M@N@b.d@]@]@5+O@r@_ { ] P@~ ! * Q@#.R@R@z@A@& m@( > - l n p r < [ 7 : c@+ H+'.b p@      ",
"  p@1 '.U@. . # @ @ @ @ @ @ @ @ @ @ @ # # # # # # # # # # # # # # # # ,.,.,.,.,.,.,.,.,.,.,.,.,.,.,.,.,.1 1 1 1 1 1 1 1 1 $ . e ]@p p@      ",
"  p@% e@C@$ v@| S S S S S S S S S S S S S S S S S S S S S S S S S S S S S S S S S S S S S S S S S S S S S S S S S S S S S d e + #.P@. V@    ",
"  p@7@]@| ,._ M@M@M@M@M@M@M@M@M@M@M@M@M@M@M@M@M@M@M@M@M@M@M@M@M@M@M@M@M@M@M@M@M@M@M@M@M@M@M@M@M@M@M@M@M@M@M@M@M@M@M@M@M@M@L@, . r b.f@p@    ",
"  p@u@5+d . [ L@L@L@L@L@L@L@L@L@L@L@L@L@L@L@L@L@L@L@L@L@L@L@L@L@L@L@L@L@L@L@L@L@L@L@L@L@L@L@L@L@L@L@L@L@L@L@L@L@L@L@L@L@L@'.y@+ } M@w@p@    ",
"p@p@n r@W@$ 1 v@X@X@X@X@X@X@X@X@X@X@X@X@X@X@X@X@X@X@X@X@X@X@X@X@X@X@X@X@X@X@X@X@X@X@X@X@X@X@X@X@X@X@X@X@X@X@X@X@X@X@X@X@U@S . | b@b.= p@    ",
"p@g * r@c Y@1 . . . . . . . . . . . . . . . . . . . . . . . . . . . . . . . . . . . . . . . . . . . . . . . . . . . . . . $ % W@c e@t@g p@  ",
"p@$ e@O@M+M+n@U@Z@Z@Z@Z@Z@Z@Z@Z@Z@Z@Z@Z@Z@Z@Z@Z@Z@Z@Z@Z@Z@Z@Z@Z@Z@Z@Z@Z@Z@Z@Z@Z@Z@Z@Z@Z@Z@Z@Z@Z@Z@Z@Z@Z@Z@Z@Z@Z@Z@Z@Z@Z@Z@c@M+M+' 5+]@# p@  ",
"p@H+L@O@= M+M+M+M+M+M+M+M+M+M+M+M+M+M+M+M+M+M+M+M+M+M+M+M+M+M+M+M+M+M+M+M+M+M+M+M+M+M+M+M+M+M+M+M+M+M+M+M+M+M+M+M+M+M+M+M+M+M+c r ] M@% p@  ",
"p@@ b.N@'._ P@P@P@P@P@P@P@P@P@P@P@P@P@P@P@P@P@P@P@P@P@P@P@P@P@P@P@P@P@P@P@P@P@P@P@P@P@P@P@P@P@P@P@P@P@P@P@P@P@P@P@P@P@P@P@P@{ 5+'.b.M@f@p@  ",
"p@i@= b.M@M@M@M@M@M@M@M@M@M@M@M@M@M@M@M@M@M@M@M@M@M@M@M@M@M@M@M@M@M@M@M@M@M@M@M@M@M@M@M@M@M@M@M@M@M@M@M@M@M@M@M@M@M@M@M@M@M@M@M@M@N@m@g p@  ",
"  p@i@% 4 4 4 4 4 4 4 4 4 4 4 4 4 4 4 4 4 4 4 4 4 4 4 4 4 4 4 4 4 4 4 4 4 4 4 4 4 4 4 4 4 4 4 4 4 4 4 4 4 4 4 4 4 4 4 4 4 4 4 4 4 {.$ p@    ",
"    p@p@p@p@p@p@p@p@p@p@p@p@p@p@p@p@p@p@p@p@p@p@p@p@p@p@p@p@p@p@p@p@p@p@p@p@p@p@p@p@p@p@p@p@p@p@p@p@p@p@p@p@p@p@p@p@p@p@p@p@p@p@p@p@p@p@    ",
"                                                              `@`@`@ # #`@`@`@                                                              ",
"                                                                                                                                            ",
"                                                                                                                                            ",
"                                                                                                                                            ",
"                                                                                                                                            ",
"                                                                                                                                            "};
