/* XPM */
static char * document_print_xpm[] = {
"35 35 258 2",
"  	c None",
". 	c #F3F3F3",
"+ 	c #EFEFEF",
"@ 	c #EBEBEB",
"# 	c #E0E0E0",
"$ 	c #D4D4D4",
"% 	c #D1D1D1",
"& 	c #ECECEC",
"* 	c #E1E1E1",
"= 	c #D8D8D8",
"- 	c #D7D7D7",
"; 	c #CCCCCC",
"> 	c #CECECE",
", 	c #EEEEEE",
"' 	c #E5E5E5",
") 	c #D0D0D0",
"! 	c #C6C6C6",
"~ 	c #A9A9A9",
"{ 	c #ABABAB",
"] 	c #C9C9C9",
"^ 	c #E4E4E4",
"/ 	c #E3E3E3",
"( 	c #EDEDED",
"_ 	c #F0F0F0",
": 	c #E8E8E8",
"< 	c #E2E2E2",
"[ 	c #DCDCDC",
"} 	c #ADADAD",
"| 	c #A7A7A7",
"1 	c #B7B7B7",
"2 	c #E7E7E7",
"3 	c #F1F1F1",
"4 	c #D9D9D9",
"5 	c #D5D5D5",
"6 	c #AFAFAF",
"7 	c #BEBEBE",
"8 	c #DEDEDE",
"9 	c #B4B4B4",
"0 	c #F5F5F5",
"a 	c #F4F4F4",
"b 	c #EAEAEA",
"c 	c #BDBDBD",
"d 	c #AAAAAA",
"e 	c #F8F8F8",
"f 	c #C1C1C1",
"g 	c #B1B1B1",
"h 	c #F2F2F2",
"i 	c #F7F7F7",
"j 	c #FAFAFA",
"k 	c #FCFCFC",
"l 	c #A8A8A8",
"m 	c #B6B6B6",
"n 	c #FBFBFB",
"o 	c #F9F9F9",
"p 	c #F6F6F6",
"q 	c #B5B5B5",
"r 	c #B2B2B2",
"s 	c #E6E6E6",
"t 	c #DBDBDB",
"u 	c #CDCDCD",
"v 	c #AEAEAE",
"w 	c #D2D2D2",
"x 	c #CACACA",
"y 	c #BFBFBF",
"z 	c #C0C0C0",
"A 	c #C2C2C2",
"B 	c #E9E9E9",
"C 	c #A0A0A0",
"D 	c #B0B0B0",
"E 	c #B3B3B3",
"F 	c #B8B8B8",
"G 	c #9F9F9F",
"H 	c #909090",
"I 	c #979797",
"J 	c #989898",
"K 	c #999999",
"L 	c #DDDDDD",
"M 	c #F5F4F4",
"N 	c #DADADA",
"O 	c #D6D6D6",
"P 	c #FDFDFD",
"Q 	c #FCFCFB",
"R 	c #FCFBFB",
"S 	c #EEEEED",
"T 	c #DCDCDA",
"U 	c #E2E2E1",
"V 	c #E4E4E1",
"W 	c #E3E3E1",
"X 	c #E1E1E0",
"Y 	c #E1E1DF",
"Z 	c #E1E0DE",
"` 	c #E0E0DE",
" .	c #E0DFDD",
"..	c #DFDFDC",
"+.	c #DFDEDC",
"@.	c #DDDDDB",
"#.	c #DDDDDA",
"$.	c #DBDBD9",
"%.	c #DADAD8",
"&.	c #DADAD7",
"*.	c #D9D9D7",
"=.	c #D8D8D5",
"-.	c #D8D7D5",
";.	c #D7D6D4",
">.	c #D6D6D4",
",.	c #D6D5D3",
"'.	c #D5D4D2",
").	c #CDCCCB",
"!.	c #C0BFBD",
"~.	c #BFBEBC",
"{.	c #DFDFDE",
"].	c #EDEDEC",
"^.	c #D7D7D5",
"/.	c #D3D3D1",
"(.	c #D4D4D3",
"_.	c #DDDCDB",
":.	c #F2F1F0",
"<.	c #F2F1EF",
"[.	c #F2F0EF",
"}.	c #F1F0EF",
"|.	c #F1F0EE",
"1.	c #F0EFEE",
"2.	c #F0EFED",
"3.	c #F0EEED",
"4.	c #E9E8E6",
"5.	c #B6B5B4",
"6.	c #BBBAB8",
"7.	c #DCDBDA",
"8.	c #EBEBEA",
"9.	c #CBCBC9",
"0.	c #B5B4B4",
"a.	c #C4C3C2",
"b.	c #E2E2E0",
"c.	c #D6D5D5",
"d.	c #F7F6F5",
"e.	c #949493",
"f.	c #D9D8D7",
"g.	c #E9E9E8",
"h.	c #CFCFCD",
"i.	c #8B8A89",
"j.	c #F6F5F4",
"k.	c #DAD9D8",
"l.	c #DBDADA",
"m.	c #868685",
"n.	c #D5D5D4",
"o.	c #E7E7E6",
"p.	c #9D9D9C",
"q.	c #7C7C7B",
"r.	c #868686",
"s.	c #868585",
"t.	c #858585",
"u.	c #858584",
"v.	c #858484",
"w.	c #848484",
"x.	c #848383",
"y.	c #797878",
"z.	c #A8A7A6",
"A.	c #D2D1D0",
"B.	c #E6E6E4",
"C.	c #D2D2D0",
"D.	c #CCCCCA",
"E.	c #CBCBCA",
"F.	c #CACAC9",
"G.	c #CACAC8",
"H.	c #C9C9C7",
"I.	c #C8C7C5",
"J.	c #C7C6C4",
"K.	c #C6C5C3",
"L.	c #C5C4C2",
"M.	c #C4C3C1",
"N.	c #C3C2C0",
"O.	c #C1C1C0",
"P.	c #C0C0BF",
"Q.	c #C0C0BE",
"R.	c #BFBFBD",
"S.	c #BEBEBC",
"T.	c #BDBDBB",
"U.	c #BCBCBA",
"V.	c #BBBBB9",
"W.	c #BAB9B7",
"X.	c #B9B8B7",
"Y.	c #B8B7B6",
"Z.	c #B7B7B5",
"`.	c #B7B6B4",
" +	c #B6B5B3",
".+	c #BCBBB9",
"++	c #CFCECD",
"@+	c #E4E4E2",
"#+	c #D8D8D6",
"$+	c #D5D5D3",
"%+	c #D4D4D2",
"&+	c #D2D1CF",
"*+	c #D1D0CE",
"=+	c #D0CFCD",
"-+	c #CFCECC",
";+	c #CECDCB",
">+	c #CDCCCA",
",+	c #C8C8C6",
"'+	c #C7C7C5",
")+	c #C6C6C4",
"!+	c #C5C5C3",
"~+	c #C4C4C2",
"{+	c #C2C1BF",
"]+	c #C1C0BE",
"^+	c #BEBDBB",
"/+	c #BDBCBA",
"(+	c #C8C7C6",
"_+	c #E0E0DF",
":+	c #DFDFDD",
"<+	c #B7B7B6",
"[+	c #C7C7C6",
"}+	c #C6C6C5",
"|+	c #C3C3C2",
"1+	c #C2C2C1",
"2+	c #C2C2C0",
"3+	c #C0BFBE",
"4+	c #BFBEBD",
"5+	c #BBBBBA",
"6+	c #BABAB9",
"7+	c #BABAB8",
"8+	c #B9B9B7",
"9+	c #B8B8B6",
"0+	c #B7B6B5",
"a+	c #B6B6B4",
"b+	c #B5B4B3",
"c+	c #B4B4B3",
"d+	c #B4B3B2",
"e+	c #B3B3B1",
"f+	c #B3B2B0",
"g+	c #B2B1AF",
"h+	c #A3A2A1",
"i+	c #7C7C7A",
"j+	c #7E7E7C",
"k+	c #807F7E",
"l+	c #81817F",
"m+	c #838380",
"n+	c #858482",
"o+	c #878684",
"p+	c #888786",
"q+	c #898886",
"r+	c #888785",
"s+	c #878785",
"t+	c #868583",
"u+	c #858582",
"v+	c #848482",
"w+	c #848381",
"x+	c #838280",
"y+	c #828180",
"z+	c #80807E",
"A+	c #807F7D",
"B+	c #7F7F7D",
"C+	c #7D7D7B",
"D+	c #7D7C7B",
"E+	c #7B7B79",
"F+	c #7B7A78",
"G+	c #7A7978",
"H+	c #797977",
"I+	c #787876",
"                                                                      ",
"              . + + + + + + + + + + + + + + + + + + + .               ",
"              @ # $ % % % % % % % % % % % % % % % # # @               ",
"              & * = - - - - - - - ; > - - - - - - # # @               ",
"              , ' ) ; ; ; ; ; ; ! ~ { ] ; ; ; ; ; ^ / (               ",
"              _ : / < < < < < [ } | | 1 * < < < < 2 2 +               ",
"              3 & [ 4 4 4 4 5 6 | | | | 7 4 4 4 4 & @ 3               ",
"              . _ < # # # 8 9 | | | | | | ; # # # + + .               ",
"              0 a ( @ @ b c | | | | | | | d 8 @ @ . . 0               ",
"              e e < 8 8 f d d | | | | | | | g h i i i i               ",
"              j k k k k k k k l | | | | m k k k n n n o               ",
"              p 0 0 p p p i i l | | | | q o o j j j j o               ",
"              @ * * < < < < / l | | | | r ' ' ' s s s (               ",
"              t u u > > > > > | | | | | v % % % % w w 8               ",
"              x 7 7 7 y y y y c c c c c z f f f f f A u               ",
"      i n B C q 6 6 D D D D D g g g g r r r r r r E E F G ^ a o       ",
"    e n n B H I I I I I I J J J J J J J J J J J K K K K H L 2 : M     ",
"  + n n n p N N 4 4 = - O O O O O O O O O O O - - - - - O b & & 3     ",
"  n P P P P P P P P P P P P P P k k k k k k k k k k k k k k Q Q R e   ",
"  S T T U V W U U X Y Z `  ...+.@.#.T $.$.%.&.*.=.-.;.>.,.'.).!.~.{.  ",
"  ].^./.,.(._.:.:.:.:.:.<.<.[.}.}.}.}.}.|.|.1.1.1.1.1.2.2.3.4.5.6.7.  ",
"  8.9.0.a.b.c.d.d.d.d.d.d.d.d.d.d.d.d.d.d.d.d.d.d.d.d.d.d.d.:.e.6.f.  ",
"  g.h.i.j.k.j.d.d.d.d.d.d.d.d.d.d.d.d.d.d.d.d.d.d.d.d.d.d.d.l.m.6.n.  ",
"  o.%.p.q.r.r.r.r.r.r.m.m.s.t.t.t.t.t.t.t.t.t.u.v.w.w.w.w.x.y.z.6.A.  ",
"  B.%.*.C.D.E.F.G.H.I.J.K.L.M.N.O.P.Q.R.S.T.U.V.W.X.Y.Z.`. +6..+6.++  ",
"  @+%.*.#+^.>.$+%+/.&+*+=+-+;+>+9.G.H.,+'+)+!+~+N.{+]+!.~.^+/+.+6.9.  ",
"  U %.*.#+^.>.$+%+/.&+*+=+-+;+>+9.G.H.,+'+)+!+~+N.{+]+!.~.^+/+.+6.(+  ",
"  _+%.*.#+^.>.$+%+/.&+*+=+-+;+>+9.G.H.,+'+)+!+~+N.{+]+!.~.^+/+.+6.L.  ",
"  :+%.*.#+^.>.$+%+/.&+*+=+-+;+>+9.G.H.,+'+)+!+~+N.{+]+!.~.^+/+.+6.{+  ",
"  <+H.,+[+}+)+!+~+|+1+2+{+]+3+4+S.T.U.5+6+7+8+9+0+a+5.b+c+d+e+f+g+h+  ",
"    i+j+k+l+m+n+o+p+q+r+s+o+t+u+v+w+x+y+l+z+A+B+j+C+D+i+E+F+G+H+I+    ",
"                                                                      ",
"                                                                      ",
"                                                                      ",
"                                                                      "};
