/* XPM */
static char * dollar_xpm[] = {
"57 70 2 1",
" 	c None",
".	c #B6B6AE",
"                         ....                            ",
"                         ....                            ",
"                         ....                            ",
"                         ....                            ",
"                         ....                            ",
"                         ....                            ",
"                         ....                            ",
"                         ....                            ",
"                         ....                            ",
"                 ..................                      ",
"             ..........................                  ",
"           ..............................                ",
"         ...................................             ",
"       ......................................            ",
"      ...............            .............           ",
"     ..............                ............          ",
"     .............                   ...........         ",
"    ..............                     ..........        ",
"   ................                     .......          ",
"   ................                      ....            ",
"  ...................                     .              ",
"  .....................                                  ",
"  ........................                               ",
"  ...........................                            ",
"  ...............................                        ",
"  ...................................                    ",
"  ......................................                 ",
"  .........................................              ",
"   ..........................................            ",
"   ............................................          ",
"    .............................................        ",
"    ..............................................       ",
"     ..............................................      ",
"      ..............................................     ",
"       ..............................................    ",
"         ............................................    ",
"           ...........................................   ",
"              ........................................   ",
"                  .....................................  ",
"                      .................................  ",
"    ..                     ............................  ",
"   .......                    .........................  ",
"   ..........                    ......................  ",
"   .............                    ...................  ",
"  .............                       .................  ",
"  ...........                          ................  ",
"  ...........                           ...............  ",
"  ...........                            ..............  ",
"  ...........                             ............   ",
"  ...........                             ............   ",
"   ...........                            ...........    ",
"    ..........                           ............    ",
"    ............                         ...........     ",
"     .............                     ............      ",
"      ..............                  ............       ",
"        .................        ................        ",
"         ......................................          ",
"           ..................................            ",
"              ............................               ",
"                  .....................                  ",
"                        ........                         ",
"                         ....                            ",
"                         ....                            ",
"                         ....                            ",
"                         ....                            ",
"                         ....                            ",
"                         ....                            ",
"                         ....                            ",
"                         ....                            ",
"                         ....                            "};
