/* XPM */
static char * printer_xpm[] = {
"70 67 534 2",
"  	c None",
". 	c #898989",
"+ 	c #969696",
"@ 	c #B5B5B5",
"# 	c #B6B6B6",
"$ 	c #D1D1D1",
"% 	c #F7F7F7",
"& 	c #D0D0D0",
"* 	c #D6D6D6",
"= 	c #F6F6F6",
"- 	c #E6E6E6",
"; 	c #E5E5E5",
"> 	c #D5D5D5",
", 	c #F5F5F5",
"' 	c #E1E1E1",
") 	c #E0E0E0",
"! 	c #DCDCDC",
"~ 	c #DADADA",
"{ 	c #CDCDCD",
"] 	c #C4C4C4",
"^ 	c #C6C6C6",
"/ 	c #DEDEDE",
"( 	c #D9D9D9",
"_ 	c #C8C8C8",
": 	c #CECECE",
"< 	c #D7D7D7",
"[ 	c #DFDFDF",
"} 	c #E3E3E3",
"| 	c #E2E2E2",
"1 	c #D4D4D4",
"2 	c #ABABAB",
"3 	c #B2B2B2",
"4 	c #DBDBDB",
"5 	c #E4E4E4",
"6 	c #D2D2D2",
"7 	c #C9C9C9",
"8 	c #C3C3C3",
"9 	c #A7A7A7",
"0 	c #C7C7C7",
"a 	c #CACACA",
"b 	c #E7E7E7",
"c 	c #B9B9B9",
"d 	c #E9E9E9",
"e 	c #E8E8E8",
"f 	c #B1B1B1",
"g 	c #A8A8A8",
"h 	c #EBEBEB",
"i 	c #EAEAEA",
"j 	c #AFAFAF",
"k 	c #A9A9A9",
"l 	c #EDEDED",
"m 	c #ECECEC",
"n 	c #D3D3D3",
"o 	c #B0B0B0",
"p 	c #AAAAAA",
"q 	c #D8D8D8",
"r 	c #EFEFEF",
"s 	c #EEEEEE",
"t 	c #BBBBBB",
"u 	c #B3B3B3",
"v 	c #F1F1F1",
"w 	c #B8B8B8",
"x 	c #F0F0F0",
"y 	c #F3F3F3",
"z 	c #BABABA",
"A 	c #F2F2F2",
"B 	c #F4F4F4",
"C 	c #F8F8F8",
"D 	c #F9F9F9",
"E 	c #C5C5C5",
"F 	c #ACACAC",
"G 	c #FBFBFB",
"H 	c #AEAEAE",
"I 	c #BFBFBF",
"J 	c #FAFAFA",
"K 	c #FDFDFD",
"L 	c #FCFCFC",
"M 	c #C1C1C1",
"N 	c #ADADAD",
"O 	c #BEBEBE",
"P 	c #DDDDDD",
"Q 	c #B7B7B7",
"R 	c #CBCBCB",
"S 	c #CCCCCC",
"T 	c #676767",
"U 	c #727272",
"V 	c #C0C0C0",
"W 	c #C2C2C2",
"X 	c #717171",
"Y 	c #6D6D6D",
"Z 	c #979797",
"` 	c #AEAEAD",
" .	c #A4A4A4",
"..	c #BCBCBC",
"+.	c #BDBDBD",
"@.	c #B0AFAF",
"#.	c #9C9C9C",
"$.	c #6B6B6B",
"%.	c #FBFBFA",
"&.	c #B4B4B4",
"*.	c #686868",
"=.	c #A5A5A4",
"-.	c #A2A2A2",
";.	c #A3A3A3",
">.	c #949494",
",.	c #7E7E7E",
"'.	c #F1F1F0",
").	c #919191",
"!.	c #959595",
"~.	c #929292",
"{.	c #767676",
"].	c #696969",
"^.	c #A1A1A1",
"/.	c #737373",
"(.	c #FEFEFE",
"_.	c #6F6F6F",
":.	c #919190",
"<.	c #FFFFFF",
"[.	c #8F8F8E",
"}.	c #9D9D9D",
"|.	c #EDEDEC",
"1.	c #ECECEB",
"2.	c #ECEBEB",
"3.	c #EBEBEA",
"4.	c #EAEAE9",
"5.	c #EAEAE8",
"6.	c #E9E9E8",
"7.	c #E9E8E8",
"8.	c #E8E8E7",
"9.	c #E8E7E6",
"0.	c #E7E7E6",
"a.	c #E7E6E6",
"b.	c #E6E6E5",
"c.	c #E6E5E5",
"d.	c #E5E5E4",
"e.	c #E5E4E3",
"f.	c #E4E4E3",
"g.	c #E4E3E2",
"h.	c #E3E3E2",
"i.	c #E3E2E2",
"j.	c #E2E2E1",
"k.	c #E2E2E0",
"l.	c #E2E1E0",
"m.	c #E1E1E0",
"n.	c #E1E0E0",
"o.	c #E0E0DF",
"p.	c #DFDFDE",
"q.	c #DFDEDD",
"r.	c #DEDEDD",
"s.	c #9A9A9A",
"t.	c #FAFAF9",
"u.	c #DADAD8",
"v.	c #E1E1DF",
"w.	c #E9E9E7",
"x.	c #E9E8E7",
"y.	c #E8E8E6",
"z.	c #E7E7E5",
"A.	c #E7E6E5",
"B.	c #E6E6E4",
"C.	c #E6E5E4",
"D.	c #E5E5E3",
"E.	c #E5E4E2",
"F.	c #E4E4E2",
"G.	c #E4E3E1",
"H.	c #E3E3E1",
"I.	c #E3E2E1",
"J.	c #E3E2E0",
"K.	c #E2E1DF",
"L.	c #E1E0DF",
"M.	c #E1E0DE",
"N.	c #E0DFDE",
"O.	c #E0DFDD",
"P.	c #DFDEDC",
"Q.	c #DEDDDC",
"R.	c #DEDDDB",
"S.	c #DDDCDB",
"T.	c #DDDCDA",
"U.	c #D1D0CF",
"V.	c #BCBBB9",
"W.	c #BBBAB8",
"X.	c #C7C6C5",
"Y.	c #F5F4F4",
"Z.	c #D8D8D6",
"`.	c #EEEEEC",
" +	c #EFEFED",
".+	c #EFEEED",
"++	c #EDECEB",
"@+	c #EFEEEC",
"#+	c #EEEDEC",
"$+	c #EEEDEB",
"%+	c #EDEDEB",
"&+	c #EDECEA",
"*+	c #ECECEA",
"=+	c #ECEBEA",
"-+	c #ECEBE9",
";+	c #EBEBE9",
">+	c #EBEAE9",
",+	c #EBEAE8",
"'+	c #EAE9E8",
")+	c #EAE9E7",
"!+	c #E9E8E6",
"~+	c #D7D6D5",
"{+	c #B9B8B7",
"]+	c #C6C5C4",
"^+	c #F2F2F1",
"/+	c #999998",
"(+	c #F7F7F6",
"_+	c #CDCDCB",
":+	c #C4C3C2",
"<+	c #F3F2F1",
"[+	c #D0D0CE",
"}+	c #BCBBBA",
"|+	c #F4F3F2",
"1+	c #F3F3F1",
"2+	c #F3F2F0",
"3+	c #F2F1F0",
"4+	c #F2F1EF",
"5+	c #F1F0EF",
"6+	c #BEBDBC",
"7+	c #ACABA9",
"8+	c #C6C5C3",
"9+	c #989898",
"0+	c #9C9C9B",
"a+	c #C2C2C1",
"b+	c #A5A4A3",
"c+	c #DCDCDA",
"d+	c #C6C6C4",
"e+	c #858584",
"f+	c #F7F6F5",
"g+	c #A2A1A1",
"h+	c #9F9E9D",
"i+	c #C5C4C3",
"j+	c #EDECEC",
"k+	c #9B9B9B",
"l+	c #F4F4F3",
"m+	c #BABAB8",
"n+	c #8B8B8A",
"o+	c #DDDDDC",
"p+	c #F2F2F0",
"q+	c #A9A9A7",
"r+	c #A6A6A4",
"s+	c #8A8A89",
"t+	c #6B6B6A",
"u+	c #898988",
"v+	c #959593",
"w+	c #C5C4C2",
"x+	c #EAE9E9",
"y+	c #9B9B9A",
"z+	c #F3F3F2",
"A+	c #E0E0DE",
"B+	c #B4B4B2",
"C+	c #787777",
"D+	c #D8D7D6",
"E+	c #979696",
"F+	c #8D8D8C",
"G+	c #777776",
"H+	c #C4C3C1",
"I+	c #B0B0AF",
"J+	c #D4D3D3",
"K+	c #8D8C8B",
"L+	c #C3C2C1",
"M+	c #9A9A99",
"N+	c #F0F0EF",
"O+	c #AFAFAE",
"P+	c #666666",
"Q+	c #ADADAC",
"R+	c #A6A6A5",
"S+	c #C3C2C0",
"T+	c #939393",
"U+	c #999999",
"V+	c #EEEEED",
"W+	c #DFDFDD",
"X+	c #C5C5C3",
"Y+	c #6E6E6E",
"Z+	c #A1A09F",
"`+	c #C2C1BF",
" @	c #D2D2D0",
".@	c #C8C8C7",
"+@	c #C8C7C6",
"@@	c #C7C7C6",
"#@	c #C7C7C5",
"$@	c #C5C5C4",
"%@	c #C4C4C2",
"&@	c #C3C3C2",
"*@	c #C2C2C0",
"=@	c #C2C1C0",
"-@	c #C1C1BF",
";@	c #C1C0BF",
">@	c #C0C0BE",
",@	c #C0BFBE",
"'@	c #BFBFBD",
")@	c #BEBEBC",
"!@	c #BDBDBB",
"~@	c #BDBCBB",
"{@	c #BBBBBA",
"]@	c #BBBBB9",
"^@	c #BBBAB9",
"/@	c #BAB9B8",
"(@	c #B9B9B7",
"_@	c #B8B8B6",
":@	c #B8B7B6",
"<@	c #B7B6B5",
"[@	c #B6B6B4",
"}@	c #B6B5B3",
"|@	c #B5B5B3",
"1@	c #B5B4B2",
"2@	c #B4B3B1",
"3@	c #B3B2B1",
"4@	c #B3B2B0",
"5@	c #B2B2B0",
"6@	c #B2B1AF",
"7@	c #B1B1AF",
"8@	c #B1B0AF",
"9@	c #B0B0AE",
"0@	c #B0AFAE",
"a@	c #B4B3B2",
"b@	c #DCDCDB",
"c@	c #D9D9D7",
"d@	c #D7D7D5",
"e@	c #D6D6D4",
"f@	c #D6D5D3",
"g@	c #D5D5D3",
"h@	c #D5D4D2",
"i@	c #D4D4D2",
"j@	c #D4D3D1",
"k@	c #D3D3D1",
"l@	c #D1D1CF",
"m@	c #CFCFCD",
"n@	c #CECECC",
"o@	c #CDCCCA",
"p@	c #CCCCCA",
"q@	c #CCCBC9",
"r@	c #CBCBC9",
"s@	c #CBCAC8",
"t@	c #CACAC8",
"u@	c #CAC9C7",
"v@	c #C9C9C7",
"w@	c #C9C8C6",
"x@	c #C8C8C6",
"y@	c #C8C7C5",
"z@	c #C7C6C4",
"A@	c #C3C3C1",
"B@	c #C1C0BE",
"C@	c #C0BFBD",
"D@	c #BFBEBC",
"E@	c #BEBDBB",
"F@	c #BDBCBA",
"G@	c #909090",
"H@	c #D6D6D5",
"I@	c #8F8F8F",
"J@	c #DEDEDC",
"K@	c #D4D3D2",
"L@	c #8E8E8E",
"M@	c #8D8D8D",
"N@	c #969695",
"O@	c #DDDDDB",
"P@	c #CECDCC",
"Q@	c #8D8C8C",
"R@	c #8B8B8B",
"S@	c #959594",
"T@	c #8B8A8A",
"U@	c #8A8989",
"V@	c #8C8C8B",
"W@	c #DBDBD9",
"X@	c #D8D7D5",
"Y@	c #D7D6D4",
"Z@	c #D5D4D3",
"`@	c #D4D4D3",
" #	c #D3D2D0",
".#	c #D2D1CF",
"+#	c #CFCFCE",
"@#	c #CFCECC",
"##	c #CECDCB",
"$#	c #C9C8C7",
"%#	c #828282",
"&#	c #BABAB9",
"*#	c #DBDBDA",
"=#	c #D8D8D7",
"-#	c #D7D7D6",
";#	c #D2D1D0",
">#	c #D0CFCD",
",#	c #CCCBCA",
"'#	c #CBCAC9",
")#	c #A6A5A4",
"!#	c #6A6A6A",
"~#	c #737372",
"{#	c #737272",
"]#	c #727271",
"^#	c #727171",
"/#	c #717170",
"(#	c #717070",
"_#	c #707070",
":#	c #616161",
"<#	c #747472",
"[#	c #767573",
"}#	c #777674",
"|#	c #777775",
"1#	c #787876",
"2#	c #7A7977",
"3#	c #7A7A78",
"4#	c #7B7B79",
"5#	c #7C7C7A",
"6#	c #7E7D7B",
"7#	c #7E7E7C",
"8#	c #7F7F7D",
"9#	c #80807E",
"0#	c #81817E",
"a#	c #82827F",
"b#	c #838381",
"c#	c #848381",
"d#	c #838380",
"e#	c #838280",
"f#	c #828280",
"g#	c #82817F",
"h#	c #81807E",
"i#	c #807F7D",
"j#	c #7F7E7C",
"k#	c #7E7E7B",
"l#	c #7D7D7B",
"m#	c #7D7C7A",
"n#	c #7C7C79",
"o#	c #7C7B79",
"p#	c #7B7A78",
"q#	c #797977",
"r#	c #797876",
"s#	c #787776",
"t#	c #787775",
"u#	c #767674",
"v#	c #757573",
"w#	c #757472",
"x#	c #747372",
"y#	c #737371",
"z#	c #656565",
"A#	c #595959",
"B#	c #696968",
"C#	c #95948E",
"D#	c #999791",
"E#	c #9D9B95",
"F#	c #A09F98",
"G#	c #A3A29B",
"H#	c #A7A59E",
"I#	c #AAA8A1",
"J#	c #ADACA5",
"K#	c #B1AFA8",
"L#	c #B4B2AB",
"M#	c #B7B5AE",
"N#	c #BAB9B1",
"O#	c #BEBCB4",
"P#	c #C2C0B7",
"Q#	c #C5C3BB",
"R#	c #C8C7BF",
"S#	c #CAC8C0",
"T#	c #C9C7BF",
"U#	c #C8C6BE",
"V#	c #C6C4BD",
"W#	c #C4C2BA",
"X#	c #C3C1B9",
"Y#	c #C1BFB8",
"Z#	c #C0BEB7",
"`#	c #BEBDB5",
" $	c #BDBBB4",
".$	c #BCBAB3",
"+$	c #BBB9B1",
"@$	c #B9B8B0",
"#$	c #B8B6AF",
"$$	c #B6B4AD",
"%$	c #B4B3AC",
"&$	c #B3B2AA",
"*$	c #B2B0A9",
"=$	c #AFADA6",
"-$	c #AEACA5",
";$	c #ADABA4",
">$	c #ABAAA3",
",$	c #AAA9A2",
"'$	c #A9A7A0",
")$	c #A8A69F",
"!$	c #A6A59E",
"~$	c #A5A49D",
"{$	c #A4A29C",
"]$	c #A3A19B",
"^$	c #A1A099",
"/$	c #A09E98",
"($	c #9E9D97",
"_$	c #9D9C95",
":$	c #9C9B94",
"<$	c #9B9993",
"[$	c #999892",
"}$	c #989791",
"|$	c #979690",
"1$	c #96958E",
"2$	c #94938D",
"3$	c #93928C",
"4$	c #92908A",
"5$	c #908F89",
"6$	c #636362",
"7$	c #5D5D5C",
"8$	c #686766",
"9$	c #686866",
"0$	c #696967",
"a$	c #6A6A68",
"b$	c #6B6A69",
"c$	c #6C6B6A",
"d$	c #6C6C6A",
"e$	c #6D6D6B",
"f$	c #6E6E6C",
"g$	c #6F6E6D",
"h$	c #706F6E",
"i$	c #70706E",
"j$	c #71716F",
"k$	c #727270",
"l$	c #737270",
"m$	c #747371",
"n$	c #727170",
"o$	c #71706E",
"p$	c #706F6D",
"q$	c #6F6F6D",
"r$	c #6F6E6C",
"s$	c #6E6D6C",
"t$	c #6D6C6B",
"u$	c #6B6B69",
"v$	c #6A6968",
"w$	c #696867",
"x$	c #676765",
"y$	c #676665",
"z$	c #666665",
"A$	c #666664",
"B$	c #5B5B5B",
"C$	c #585858",
"D$	c #575757",
"E$	c #565656",
"F$	c #555555",
"G$	c #545454",
"H$	c #535353",
"I$	c #525252",
"                          . . . . . . . . . . . . . . . . . . . . . . . . . . . . . . . . . . . . . . . . . . . .                           ",
"                        . + @ # # # # # # # # # # # # # # # # # # # # # # # # # # # # # # # # # # # # # # # # @ + .                         ",
"                        . $ % % % % % % % % % % % % % % % % % % % % % % % % % % % % % % % % % % % % % % % % % % & .                         ",
"                        . * = - ; ; ; ; ; ; ; ; ; ; ; ; ; ; ; ; ; ; ; ; ; ; ; ; ; ; ; ; ; ; ; ; ; ; ; ; ; ; - = > .                         ",
"                        . * , ' ) ) ! ~ ~ ~ ~ ~ ~ ~ ~ ~ ~ ~ ~ ~ ~ ~ ~ ~ ~ ~ ~ ~ ~ ~ ~ ~ ~ ~ ~ ~ ~ ~ ) ) ) ) ' , > .                         ",
"                        . * , ' ) ) { ] ] ] ] ] ] ] ] ] ] ] ] ] ] ] ] ] ] ] ] ] ] ] ] ] ] ] ] ] ] ^ / ) ) ) ' , > .                         ",
"                        . * , ' ) ) ( * * * * * * * * * * * * * * * * _ : * * * * * * * * * * * * < [ ) ) ) ' , > .                         ",
"                        . * , } | | ) [ [ [ [ [ [ [ [ [ [ [ [ [ [ [ 1 2 3 4 [ [ [ [ [ [ [ [ [ [ [ [ ' ' ' ' | , > .                         ",
"                        . * = ; 5 5 6 7 7 7 7 7 7 7 7 7 7 7 7 7 7 8 2 9 9 3 0 _ _ _ _ _ _ _ _ _ _ a ' } } } 5 , > .                         ",
"                        . * = b - - ! * * * * * * * * * * * * * : 2 9 9 9 9 c * * * * * * * * * * < 5 ; ; ; - = * .                         ",
"                        . * = d e e e e e e e e e e e e e e e ' f 9 9 9 9 9 g { e e e e e e e e b b b b b b e = * .                         ",
"                        . * = h i i ( $ $ $ $ $ $ $ $ $ $ $ { j 9 9 9 9 9 9 9 k ^ & & & & & & & & 6 e i d d i = * .                         ",
"                        . * = l m m / < < < < < < < < < < n o 9 9 9 9 9 9 9 9 9 p { < < < < < < < q i m h h m = * .                         ",
"                        . < = r r s s s s s s s s s s s i t 9 9 9 9 9 9 9 9 9 9 9 u b s s s s s s s s s l l s = * .                         ",
"                        . < % v v v | 4 4 4 4 4 4 4 4 ( t 9 9 9 9 9 9 9 9 9 9 9 9 9 w ( 4 4 4 4 4 ! s x x x x = * .                         ",
"                        . < % y y y ' ( ( ( ( ( ( ( < w 9 9 9 9 9 9 9 9 9 9 9 9 9 9 9 z < q q q q ~ x A A A A % * .                         ",
"                        . < % , , , B B B B B B B y _ 9 9 9 9 9 9 9 9 9 9 9 9 9 9 9 9 g $ y B B B B B B B B B % * .                         ",
"                        . < % % % % m - - - - - - 7 g 9 9 9 9 9 9 9 9 9 9 9 9 9 9 9 9 9 k / = = = = = = = = = % < .                         ",
"                        . < C D D D ; 4 4 4 4 4 E p p p p p 9 9 9 9 9 9 9 9 9 9 9 9 9 9 9 F d C C C C C C C C C < .                         ",
"                        . < C G G G D C C C C C , B B B B r H 9 9 9 9 9 9 9 9 9 9 I l l l l y J J J J J J J J C < .                         ",
"                        . q C K K K K K K K K K K K K K K C j 9 9 9 9 9 9 9 9 9 9 ] K L L L L L L L L L L L L C < .                         ",
"                        . < C J G G G G G G G G G G G L L % j 9 9 9 9 9 9 9 9 9 9 E K K K K K K K K K K K K K C < .                         ",
"                        . < = x x x x x v v v v v A A A A l H 9 9 9 9 9 9 9 9 9 9 M B B B B B , , , , , , , , % < .                         ",
"                        . * , - ; - - - - - - b b b b b b } N 9 9 9 9 9 9 9 9 9 9 O d d i i i i i i i i h h m = * .                         ",
"                        . n v ! 4 4 4 4 ! ! ! ! ! ! P P P ~ F 9 9 9 9 9 9 9 9 9 9 z [ [ [ [ [ ) ) ) ) ) ) ) ' A 6 .                         ",
"                        . : i 6 & $ $ $ $ $ 6 6 6 6 6 6 6 & 2 9 9 9 9 9 9 9 9 9 9 Q 1 1 > > > > > > > > * * < m : .                         ",
"                        . _ | 7 _ _ _ _ _ _ _ _ _ 7 7 7 7 0 N p p p p p p p p p p @ a a R R R R R R S S S S { } 0 .                         ",
"          T T T T T T U . V q M V V V V M M M M M M M M W M V V V V V V V V M M M M 8 8 8 8 8 8 8 8 ] ] ] ] E ( V . X T T T T T T           ",
"        T Y Z ` f f f  .. w S c w w w w c c c c c c c c z z z z z z z z z z t t t t t t t t t t t ..........+.{ w .  .o o o @.#.$.T         ",
"      T $.R %.G G G G < . N O f f f f f f f f f f 3 3 3 3 3 3 3 3 3 u u u u u u u u u u &.&.&.&.&.&.&.&.@ @ @ I H . q J J J G J w *.T       ",
"      T =.J G G G G G < . -.H k k k k k k k p p p p p p p p p p p 2 2 2 2 2 2 2 2 2 2 2 F F F F F F F F N N N o ;.. & b b b e B C >.T       ",
"    T ,.'.G G G G G G < . ).!.!.!.!.!.!.!.!.+ + + + + + + + + + + + + + + + + Z Z Z Z Z Z Z Z Z Z Z Z Z Z Z Z Z ~.. $ b b b b d J i {.T     ",
"  T $.* L G G G G G G < . . . . . . . . . . . . . . . . . . . . . . . . . . . . . . . . . . . . . . . . . . . . . . n d d d d d A L R ].T   ",
"  T p K L G G G G G G C x x x x x x x x x x x x x x x x x x x x x x x x x x x x x x x x x x x x x x x x x x x x x x x m m m m m m C K ^.T   ",
"T /.v (.G G G G G G G G G G G J C % = = , B y y y A A A A v v v v x x x x x x v v v v v v v v v v v v v v v v v v x x x x x x x x A K r _.T ",
"T :.(.<.<.<.<.<.<.<.<.<.<.<.<.<.<.<.<.<.<.<.<.<.<.<.<.<.<.<.<.<.<.<.<.<.<.<.<.<.<.<.<.<.<.<.<.<.<.<.<.<.<.<.<.<.<.<.<.<.<.<.<.<.<.<.<.K [.T ",
"T }.L '.|.|.|.|.|.|.1.1.1.2.h 3.3.3.3.4.4.4.5.6.6.6.7.8.8.8.9.0.0.0.a.b.b.b.c.d.d.d.d.e.f.f.f.g.h.h.h.i.j.j.j.k.l.l.m.n.o.o.p.q.r.r.h.C s.T ",
"T }.t.k.u.u.v.w.x.x.y.y.9.9.z.z.A.A.A.B.B.C.C.D.D.e.e.e.E.F.g.g.G.H.I.I.J.k.K.v.L.L.L.L.M.N.N.O.O.q.q.q.q.P.Q.Q.R.R.S.S.S.T.U.V.W.W.X.Y.s.T ",
"T }.C m.u.Z.L.`. +.+y.g.++.+.+@+`.#+#+#+#+#+#+#+$+%+++++++++++++&+*+=+=+=+=+=+=+-+;+>+>+>+>+>+,+,+'+'+'+'+'+'+'+'+'+)+)+x.!+~+{+W.W.]+^+/+T ",
"T #.(+v.u._+:+'+<+D.%+[+}+<+|+|+|+1+1+<+<+<+<+<+<+<+<+<+<+<+<+<+<+<+<+<+2+3+3+3+3+3+3+3+3+3+3+3+3+3+3+3+3+3+3+3+3+3+4+4+5+#+6+7+W.W.8+r 9+T ",
"T 0+, v.u.a+b+g.#+[+c+d+e+'+f+f+f+f+f+f+f+f+f+f+f+f+f+f+f+f+f+f+f+f+f+f+f+f+f+f+f+f+f+f+f+f+f+f+f+f+f+f+f+f+f+f+f+f+f+f+f+.+g+h+W.W.i+j+Z T ",
"T k+l+o.u.m+n+o+p+q+r+s+t+|+f+f+f+f+f+f+f+f+f+f+f+f+f+f+f+f+f+f+f+f+f+f+f+f+f+f+f+f+f+f+f+f+f+f+f+f+f+f+f+f+f+f+f+f+f+f+f+++u+v+W.W.w+x++ T ",
"T y+z+A+u.B+C+D+f+q.E+F+S.f+f+f+f+f+f+f+f+f+f+f+f+f+f+f+f+f+f+f+f+f+f+f+f+f+f+f+f+f+f+f+f+f+f+f+f+f+f+f+f+f+f+f+f+f+f+f+f+>+G+[.W.W.H+0.!.T ",
"T s.'.A+u.I+$.J+f+f+f+f+f+f+f+f+f+f+f+f+f+f+f+f+f+f+f+f+f+f+f+f+f+f+f+f+f+f+f+f+f+f+f+f+f+f+f+f+f+f+f+f+f+f+f+f+f+f+f+f+f+x.t+K+W.W.L+f.>.T ",
"T M+N+p.u.O+P+k+Q+Q+Q+Q+Q+Q+Q+Q+Q+Q+Q+Q+Q+Q+Q+Q+Q+Q+Q+Q+Q+Q+Q+Q+Q+Q+Q+Q+Q+Q+Q+Q+Q+Q+Q+Q+Q+Q+Q+Q+Q+Q+Q+Q+Q+Q+Q+Q+Q+Q+Q+Q+Q+R+P+F+W.W.S+l.T+T ",
"T U+V+W+u.X+Y+*.*.*.*.*.*.*.*.*.*.*.*.*.*.*.*.*.*.*.*.*.*.*.*.*.*.*.*.*.*.*.*.*.*.*.*.*.*.*.*.*.*.*.*.*.*.*.*.*.*.*.*.*.*.*.].Z+W.W.`+p.~.T ",
"T /+|.W+u.u. @.@+@@@#@X.d+$@X+i+%@:+&@L+a+*@=@-@;@>@,@'@'@)@6+!@!@~@}+{@]@^@W./@(@(@_@_@:@<@<@[@[@}@|@1@B+2@3@4@5@6@7@8@9@0@a@V.W.W.`+b@).T ",
"T 9+3.W+u.u.c@c@Z.Z.d@d@e@f@g@h@i@j@k@ @ @l@l@[+[+m@m@n@n@_+o@p@q@r@s@t@u@v@w@x@y@z@d+8+X+w+%@H+A@S+*@`+-@B@C@C@D@D@E@E@F@F@V.V.W.W.B@c@G@T ",
"T Z 4.r.u.u.c@c@Z.Z.d@d@e@f@g@h@i@j@k@ @ @l@l@[+[+m@m@n@n@_+o@p@q@r@s@t@u@v@w@x@y@z@d+8+X+w+%@H+A@S+*@`+-@B@C@C@D@D@E@E@F@F@V.V.W.W.,@H@I@T ",
"T Z 6.J@u.u.c@c@Z.Z.d@d@e@f@g@h@i@k@k@ @ @l@l@[+[+m@m@n@n@_+o@p@q@r@s@t@u@v@w@x@y@z@d+8+X+w+%@H+A@S+*@`+-@B@C@C@D@D@E@E@F@F@V.V.W.W.C@K@L@T ",
"T + 0.J@u.u.c@c@Z.Z.d@d@e@f@g@h@i@k@k@ @ @l@l@[+[+m@m@n@n@_+o@p@q@r@s@t@u@v@w@x@y@z@d+8+X+w+%@H+A@S+*@`+-@B@C@C@D@D@E@E@F@F@V.V.W.W.D@U.M@T ",
"T N@B.O@u.u.c@c@Z.Z.d@d@e@f@g@h@i@j@k@ @ @l@l@[+[+m@m@n@n@_+o@p@q@r@s@t@u@v@w@x@y@z@d+8+X+w+%@H+A@S+*@`+-@B@C@C@D@D@E@E@F@F@V.V.W.W.)@P@Q@T ",
"T !.f.O@u.u.c@c@Z.Z.d@d@e@f@g@h@i@j@k@ @ @l@l@[+[+m@m@n@n@_+o@p@q@r@s@t@u@v@w@x@y@z@d+8+X+w+%@H+A@S+*@`+-@B@C@C@D@D@E@E@F@F@V.V.W.W.E@r@R@T ",
"T S@H.O@u.u.c@c@Z.Z.d@d@e@f@g@h@i@j@k@ @ @l@l@[+[+m@m@n@n@_+o@p@q@r@s@t@u@v@w@x@y@z@d+8+X+w+%@H+A@S+*@`+-@B@C@C@D@D@E@E@F@F@V.V.W.W.F@w@T@T ",
"T >.k.c+u.u.c@c@Z.Z.d@d@e@f@g@h@i@j@k@ @ @l@l@[+[+m@m@n@n@_+o@p@q@r@s@t@u@v@w@x@y@z@d+8+X+w+%@H+A@S+*@`+-@B@C@C@D@D@E@E@F@F@V.V.W.W.F@]+U@T ",
"T V@A+J@c+c+W@W@u.u.c@c@Z.X@d@Y@e@g@g@Z@`@K@k@k@ # @.#l@[++#m@m@@#n@##_+o@p@q@s@t@u@v@$#x@y@#@z@d+8+8+w+%@H+A@S+*@`+-@;@>@C@'@D@6+E@C@A@%#T ",
"T $.&#*#W@W@u.u.c@c@=#=#-#d@d@e@e@g@g@i@i@j@k@ # @;#l@U.[+[+>#m@@#n@##_+o@p@,#r@'#t@t@u@v@w@x@y@#@z@d+8+X+w+%@H+A@L+*@=@-@-@B@B@C@C@D@)#!#T ",
"  T T _././././././././././././././././././././.~#~#~#~#{#U U U U U U U U U U U U U ]#]#]#^#^#X X X X X X X X X X X /#/#/#/#(#(#_#_#Y T T   ",
"    :#T <#[#}#|#1#2#3#4#5#6#7#8#9#0#a#b#c#c#d#e#f#g#g#0#h#h#9#i#8#j#j#7#k#6#l#m#5#n#o#4#p#3#3#2#q#q#r#1#s#t#|#}#u#u#[#v#v#w#<#x#y#y#z#:#    ",
"    A#B#C#D#E#F#G#H#I#J#K#L#M#N#O#P#Q#R#S#T#U#V#Q#W#X#Y#Z#`# $.$+$@$#$M#$$%$&$*$K#=$-$;$>$,$'$)$!$~${$]$^$/$($_$:$<$[$}$|$1$2$3$4$5$6$A#    ",
"    A#7$8$9$0$a$b$c$d$e$f$g$h$i$j$k$l$x#<#x#m$y#y#l$k$k$n$j$j$o$i$i$i$p$q$g$r$f$f$s$e$e$t$d$d$d$c$u$b$b$a$a$v$B#0$w$9$9$9$8$x$y$z$A$B$A#    ",
"      A#A#A#A#A#C$C$D$D$D$E$E$E$F$F$F$G$G$G$H$H$H$H$I$I$I$I$I$I$I$I$I$I$I$I$I$I$I$I$I$H$H$H$H$G$G$G$G$F$F$F$E$E$D$D$D$C$C$A#A#A#A#A#A#      ",
"                                                                                                                                            ",
"                                                                                                                                            ",
"                                                                                                                                            ",
"                                                                                                                                            ",
"                                                                                                                                            "};
