/* XPM */
static char * search_xpm[] = {
"70 68 534 2",
"  	c None",
". 	c #8A8A8A",
"+ 	c #8B8B8B",
"@ 	c #949494",
"# 	c #A7A7A7",
"$ 	c #B7B7B7",
"% 	c #C2C2C2",
"& 	c #CACACA",
"* 	c #CBCBCB",
"= 	c #C3C3C3",
"- 	c #B9B9B9",
"; 	c #A8A8A8",
"> 	c #979797",
", 	c #8C8C8C",
"' 	c #9A9A9A",
") 	c #C1C1C1",
"! 	c #E4E4E4",
"~ 	c #FAFAFA",
"{ 	c #FFFFFF",
"] 	c #FEFEFE",
"^ 	c #FDFDFD",
"/ 	c #E6E6E6",
"( 	c #C6C6C6",
"_ 	c #9F9F9F",
": 	c #A1A1A1",
"< 	c #D8D8D8",
"[ 	c #F9F9F9",
"} 	c #F0F0F0",
"| 	c #E8E8E8",
"1 	c #E3E3E3",
"2 	c #E0E0E0",
"3 	c #DFDFDF",
"4 	c #E1E1E1",
"5 	c #EAEAEA",
"6 	c #F2F2F2",
"7 	c #DDDDDD",
"8 	c #A9A9A9",
"9 	c #939393",
"0 	c #D0D0D0",
"a 	c #FBFBFB",
"b 	c #DCDCDC",
"c 	c #DEDEDE",
"d 	c #F4F4F4",
"e 	c #9D9D9D",
"f 	c #F1F1F1",
"g 	c #CED2D7",
"h 	c #A3B4C9",
"i 	c #7997BB",
"j 	c #5C82B2",
"k 	c #4974AB",
"l 	c #406EA8",
"m 	c #426FA9",
"n 	c #4C76AC",
"o 	c #6487B4",
"p 	c #839DBE",
"q 	c #AEBCCD",
"r 	c #D5D7DA",
"s 	c #F6F6F6",
"t 	c #FCFCFC",
"u 	c #E5E5E5",
"v 	c #B6C1CF",
"w 	c #6B8CB6",
"x 	c #3768A5",
"y 	c #3063A3",
"z 	c #3265A5",
"A 	c #3A6CAA",
"B 	c #4172AE",
"C 	c #4476B0",
"D 	c #4475B0",
"E 	c #4071AD",
"F 	c #386AA8",
"G 	c #3164A4",
"H 	c #3164A3",
"I 	c #7C98BC",
"J 	c #C7CDD5",
"K 	c #8F8F8F",
"L 	c #C4CBD4",
"M 	c #6689B5",
"N 	c #3467A6",
"O 	c #4778B2",
"P 	c #5D8CC1",
"Q 	c #709DCD",
"R 	c #729FCF",
"S 	c #73A0CF",
"T 	c #75A1D0",
"U 	c #74A0D0",
"V 	c #6C9ACB",
"W 	c #5787BD",
"X 	c #3265A4",
"Y 	c #3567A5",
"Z 	c #7F9ABD",
"` 	c #D2D5D9",
" .	c #D1D1D1",
"..	c #909090",
"+.	c #BCBCBC",
"@.	c #DADBDB",
"#.	c #9BAEC6",
"$.	c #3C6BA7",
"%.	c #3466A5",
"&.	c #4C7CB5",
"*.	c #76A1D0",
"=.	c #8CB0D8",
"-.	c #B0C9E4",
";.	c #C1D4EA",
">.	c #C9DAEC",
",.	c #CEDEEE",
"'.	c #BFD3E9",
").	c #AAC5E2",
"!.	c #8BB0D8",
"~.	c #6694C6",
"{.	c #4375B0",
"].	c #4B76AC",
"^.	c #CFCFCF",
"/.	c #8E8E8E",
"(.	c #ADADAD",
"_.	c #D9DADB",
":.	c #3E6FAC",
"<.	c #6593C6",
"[.	c #A1BFDF",
"}.	c #D3E1F0",
"|.	c #E2EBF5",
"1.	c #E1EAF5",
"2.	c #DFE9F4",
"3.	c #DDE8F3",
"4.	c #DBE6F2",
"5.	c #D8E4F2",
"6.	c #D6E3F1",
"7.	c #97B8DC",
"8.	c #74A1D0",
"9.	c #5B8AC0",
"0.	c #3669A7",
"a.	c #3A6AA6",
"b.	c #A1B2C8",
"c.	c #DBDCDC",
"d.	c #DBDBDC",
"e.	c #7896BB",
"f.	c #4878B2",
"g.	c #6E9CCC",
"h.	c #CDDDEE",
"i.	c #E5EDF6",
"j.	c #E6EEF7",
"k.	c #E3ECF5",
"l.	c #E1EBF5",
"m.	c #DFE8F3",
"n.	c #DCE7F3",
"o.	c #DAE6F2",
"p.	c #D7E3F1",
"q.	c #D4E2F1",
"r.	c #D1DFEF",
"s.	c #CEDDEE",
"t.	c #B6CDE6",
"u.	c #7FA7D3",
"v.	c #6896C8",
"w.	c #3C6EAB",
"x.	c #3667A5",
"y.	c #9DB0C7",
"z.	c #8AA2C0",
"A.	c #497AB3",
"B.	c #719ECE",
"C.	c #DBE7F3",
"D.	c #E6EDF7",
"E.	c #E8EEF7",
"F.	c #E9F0F7",
"G.	c #E6EDF6",
"H.	c #E0EAF4",
"I.	c #D5E2F1",
"J.	c #D2E0F0",
"K.	c #CFDEEE",
"L.	c #CCDBED",
"M.	c #83ABD5",
"N.	c #6B99CB",
"O.	c #3D6FAC",
"P.	c #3868A6",
"Q.	c #ECECEC",
"R.	c #989898",
"S.	c #AAAAAA",
"T.	c #EFEFEF",
"U.	c #AEBBCC",
"V.	c #3466A4",
"W.	c #4474AF",
"X.	c #99B9DC",
"Y.	c #DDE8F4",
"Z.	c #E4ECF6",
"`.	c #E7EEF7",
" +	c #EBF2F8",
".+	c #DEE8F3",
"++	c #D8E5F2",
"@+	c #D6E2F1",
"#+	c #CCDCEE",
"$+	c #BED2E8",
"%+	c #81A9D4",
"&+	c #6A98C9",
"*+	c #4270A9",
"=+	c #CBD0D6",
"-+	c #F8F8F8",
";+	c #C5C5C5",
">+	c #D1D4D8",
",+	c #4773AB",
"'+	c #6E9BCC",
")+	c #85ACD6",
"!+	c #D8E4F1",
"~+	c #E4EDF6",
"{+	c #EAF1F8",
"]+	c #ECF2F8",
"^+	c #E9F0F8",
"/+	c #D9E5F2",
"(+	c #C6D8EB",
"_+	c #B7CDE6",
":+	c #608FC3",
"<+	c #698BB6",
"[+	c #A0A0A0",
"}+	c #EBEBEB",
"|+	c #839EBE",
"1+	c #5E8CC1",
"2+	c #CADAED",
"3+	c #E3ECF6",
"4+	c #E6EEF6",
"5+	c #E9EFF7",
"6+	c #E8EFF7",
"7+	c #E2EBF4",
"8+	c #DFE9F3",
"9+	c #D0DFEF",
"0+	c #CCDCED",
"a+	c #C8DAEC",
"b+	c #C5D7EB",
"c+	c #B3CBE5",
"d+	c #AFBDCD",
"e+	c #D6D6D6",
"f+	c #F5F5F5",
"g+	c #3E6CA7",
"h+	c #4273AF",
"i+	c #719ECF",
"j+	c #9EBCDE",
"k+	c #DDE7F3",
"l+	c #E0E9F4",
"m+	c #E7EFF7",
"n+	c #E4ECF5",
"o+	c #E1EAF4",
"p+	c #DAE5F2",
"q+	c #A8C3E1",
"r+	c #6D9BCC",
"s+	c #3668A7",
"t+	c #5A80B1",
"u+	c #999999",
"v+	c #EDEDED",
"w+	c #8DA4C2",
"x+	c #CBDBED",
"y+	c #DEE9F4",
"z+	c #D4E2F0",
"A+	c #C5D8EB",
"B+	c #9DBCDD",
"C+	c #4E7EB7",
"D+	c #F7F7F7",
"E+	c #B5B5B5",
"F+	c #B2B2B2",
"G+	c #D8D9DB",
"H+	c #527BAE",
"I+	c #93B5DA",
"J+	c #DEE9F3",
"K+	c #E3EBF5",
"L+	c #E1EBF4",
"M+	c #DFEAF4",
"N+	c #D4E1F0",
"O+	c #CDDDED",
"P+	c #C9DAED",
"Q+	c #88AED6",
"R+	c #6C99CB",
"S+	c #7A97BC",
"T+	c #CCCCCC",
"U+	c #C1C9D3",
"V+	c #3365A4",
"W+	c #5080B8",
"X+	c #AEC8E4",
"Y+	c #D7E4F2",
"Z+	c #D9E5F1",
"`+	c #BCD1E8",
" @	c #4773AA",
".@	c #99ADC6",
"+@	c #6291C4",
"@@	c #C4D6EA",
"#@	c #D5E3F1",
"$@	c #D3E1EF",
"%@	c #CFDFEF",
"&@	c #A5C2E0",
"*@	c #3566A4",
"=@	c #C0C8D3",
"-@	c #969696",
";@	c #7594BA",
">@	c #3568A6",
",@	c #6D9ACC",
"'@	c #79A4D1",
")@	c #D6E3F0",
"!@	c #DBE6F3",
"~@	c #D5E2F0",
"{@	c #D0DEEF",
"]@	c #C7D9EC",
"^@	c #80A9D4",
"/@	c #618FC3",
"(@	c #A2B3C9",
"_@	c #E7E7E7",
":@	c #5D82B2",
"<@	c #3B6CAA",
"[@	c #D1E0EF",
"}@	c #DAE6F3",
"|@	c #D8E5F1",
"1@	c #D2E0EF",
"2@	c #CBDCED",
"3@	c #A9C4E2",
"4@	c #89A1C0",
"5@	c #507AAE",
"6@	c #88ADD6",
"7@	c #DAE6F1",
"8@	c #DAE5F1",
"9@	c #D7E4F1",
"0@	c #C6D7EB",
"a@	c #7CA6D2",
"b@	c #6F9CCD",
"c@	c #7996BB",
"d@	c #E9E9E9",
"e@	c #C9C9C9",
"f@	c #ACACAC",
"g@	c #D7D8DA",
"h@	c #4274AF",
"i@	c #C3D6EA",
"j@	c #C7D9EB",
"k@	c #CADBEC",
"l@	c #D5E3F0",
"m@	c #D3E0EF",
"n@	c #98B8DC",
"o@	c #7291B9",
"p@	c #CDCDCD",
"q@	c #AEAEAE",
"r@	c #D8D9DA",
"s@	c #4C77AC",
"t@	c #7EA8D3",
"u@	c #C0D4E9",
"v@	c #C8D9EC",
"w@	c #CFDEEF",
"x@	c #A9C5E2",
"y@	c #6F9DCD",
"z@	c #7392B9",
"A@	c #ABABAB",
"B@	c #3F70AD",
"C@	c #74A0CF",
"D@	c #BAD0E7",
"E@	c #C2D6EA",
"F@	c #CADBED",
"G@	c #B5CCE5",
"H@	c #3366A5",
"I@	c #7B98BC",
"J@	c #E2E2E2",
"K@	c #6286B3",
"L@	c #396BA9",
"M@	c #CDDCEE",
"N@	c #D0E0EF",
"O@	c #6A98CA",
"P@	c #8EA5C2",
"Q@	c #C7C7C7",
"R@	c #7D99BC",
"S@	c #6B99CA",
"T@	c #92B5DA",
"U@	c #C2D5EA",
"V@	c #A8B7CB",
"W@	c #EEEEEE",
"X@	c #5E8DC2",
"Y@	c #77A2D1",
"Z@	c #B6CEE6",
"`@	c #BBD1E8",
" #	c #C1D5EA",
".#	c #C4D7EA",
"+#	c #D2E1F0",
"@#	c #4A7BB4",
"##	c #AFAFAF",
"$#	c #878787",
"%#	c #C8CED5",
"&#	c #3868A5",
"*#	c #85ACD5",
"=#	c #9FBEDE",
"-#	c #BDD2E8",
";#	c #C3D6EB",
">#	c #CADAEC",
",#	c #828282",
"'#	c #C0C0C0",
")#	c #5D83B2",
"!#	c #81AAD4",
"~#	c #8FB2D9",
"{#	c #9ABADD",
"]#	c #6493C6",
"^#	c #88A1C0",
"/#	c #D4D4D4",
"(#	c #858585",
"_#	c #7D7D7D",
":#	c #F3F3F3",
"<#	c #3163A3",
"[#	c #5887BE",
"}#	c #4576B1",
"|#	c #7C7C7C",
"1#	c #D3D6D9",
"2#	c #4874AB",
"3#	c #3B6DAA",
"4#	c #709DCE",
"5#	c #6694C7",
"6#	c #6C8DB7",
"7#	c #929292",
"8#	c #777777",
"9#	c #9AADC6",
"0#	c #5282B9",
"a#	c #4071AE",
"b#	c #C3CAD4",
"c#	c #787878",
"d#	c #9C9C9C",
"e#	c #5B81B1",
"f#	c #3365A5",
"g#	c #5181B9",
"h#	c #959595",
"i#	c #727272",
"j#	c #C2CAD4",
"k#	c #3C6CA7",
"l#	c #557DAF",
"m#	c #D6D8DA",
"n#	c #757575",
"o#	c #A9B8CB",
"p#	c #6B98CA",
"q#	c #5F8DC2",
"r#	c #3567A6",
"s#	c #4571AA",
"t#	c #D9D9D9",
"u#	c #6D6D6D",
"v#	c #9AAEC6",
"w#	c #3566A5",
"x#	c #5786BD",
"y#	c #B8C3D0",
"z#	c #BABABA",
"A#	c #676767",
"B#	c #3B6AA6",
"C#	c #5282BA",
"D#	c #4677B2",
"E#	c #BCC6D1",
"F#	c #D5D5D5",
"G#	c #BDBDBD",
"H#	c #797979",
"I#	c #5C5C5C",
"J#	c #565656",
"K#	c #BAC4D1",
"L#	c #517AAE",
"M#	c #3B6DAB",
"N#	c #5A89BF",
"O#	c #4F80B8",
"P#	c #6A8CB6",
"Q#	c #CDD1D7",
"R#	c #D2D2D2",
"S#	c #BFBFBF",
"T#	c #717171",
"U#	c #515151",
"V#	c #4B4B4B",
"W#	c #D6D7DA",
"X#	c #8DA5C2",
"Y#	c #3E6DA8",
"Z#	c #376AA8",
"`#	c #5B8ABF",
" $	c #5484BB",
".$	c #A6B6CA",
"+$	c #898989",
"@$	c #A2A2A2",
"#$	c #6F6F6F",
"$$	c #484848",
"%$	c #D7D7D7",
"&$	c #D2D5D8",
"*$	c #94A9C4",
"=$	c #3869A6",
"-$	c #A4B5C9",
";$	c #A3A3A3",
">$	c #A6A6A6",
",$	c #A5A5A5",
"'$	c #494949",
")$	c #9B9B9B",
"!$	c #C6CDD5",
"~$	c #859FBF",
"{$	c #7493B9",
"]$	c #8CA4C1",
"^$	c #AAB9CB",
"/$	c #CFD3D8",
"($	c #B1B1B1",
"_$	c #868686",
":$	c #DADADA",
"<$	c #CECECE",
"[$	c #9E9E9E",
"}$	c #7A7A7A",
"|$	c #4D4D4D",
"1$	c #919191",
"2$	c #707070",
"3$	c #6C6C6C",
"4$	c #8D8D8D",
"5$	c #808080",
"6$	c #4E4E4E",
"7$	c #646464",
"8$	c #6B6B6B",
"9$	c #4F4F4F",
"0$	c #B6B6B6",
"a$	c #DBDBDB",
"b$	c #767676",
"c$	c #595959",
"d$	c #BBBBBB",
"e$	c #B0B0B0",
"f$	c #A4A4A4",
"g$	c #888888",
"h$	c #818181",
"i$	c #545454",
"j$	c #575757",
"k$	c #B3B3B3",
"l$	c #585858",
"m$	c #5B5B5B",
"n$	c #525252",
"o$	c #606060",
"p$	c #474747",
"q$	c #505050",
"r$	c #838383",
"s$	c #B4B4B4",
"t$	c #B8B8B8",
"u$	c #656565",
"v$	c #7E7E7E",
"w$	c #686868",
"x$	c #4A4A4A",
"y$	c #7B7B7B",
"z$	c #454545",
"A$	c #434343",
"B$	c #6A6A6A",
"C$	c #626262",
"D$	c #424242",
"E$	c #666666",
"F$	c #D3D3D3",
"G$	c #616161",
"H$	c #C4C4C4",
"I$	c #5A5A5A",
"                                              . . . . . . . . .                                                                             ",
"                                      . . + @ # $ % & * = - ; > , . .                                                                       ",
"                                  . . ' ) ! ~ { { ] ^ ^ ] { { ~ / ( _ , .                                                                   ",
"                              . . : < ~ ] [ } | 1 2 3 2 4 ! 5 6 ~ { ~ 7 8 , .                                                               ",
"                            . 9 0 a ^ } 1 7 b b b b b b b b b b c / d ] a < e . .                                                           ",
"                          . # } ] f 2 b b g h i j k l m n o p q r b b 1 s { 6 $ , .                                                         ",
"                        . - t ~ u b b v w x y z A B C D E F G H l I J b 7 5 ^ ~ & K .                                                       ",
"                      + ) ] s 3 b L M H N O P Q R S T U R R V W B X Y Z ` b 1 ~ t  ....                                                     ",
"                    . +.] d 7 @.#.$.%.&.V *.=.-.;.>.,.>.'.).!.T R ~.{.G ].v b 4 [ t ^./..                                                   ",
"                  . (.a s 7 _.Z X :.<.T [.}.|.|.1.2.3.4.5.6.}.;.7.8.R 9.0.a.b.c.4 a [ % , .                                                 ",
"                . > f ~ 3 d.e.H f.g.!.h.i.j.j.i.k.l.m.n.o.p.q.r.s.t.u.R v.w.x.y.b ! ] 6 (..                                                 ",
"                , < ] u b z.H A.B.7.C.D.E.F.F.E.G.k.H.3.4.5.I.J.K.L.;.M.R N.O.P.q b Q.{ 1 R..                                               ",
"              . S.t T.b U.V.W.B.X.Y.Z.`.F. + +F.`.Z.1..+n.++@+}.K.#+>.$+%+R &+F *+=+7 -+~ ;++                                               ",
"              , ! -+3 >+,+F '+)+!+l.~+E.{+]+]+^+`.~+l..+n./+6.}.K.#+>.(+_+R R :+X <+b u { 5 [+.                                             ",
"            . 8 -+}+b |+H 1+T 2+.+1.3+4+5+F.F.6+4+~+7+8+n./+6.}.9+0+a+b+c+R R R &.y d+7 s [ ( +                                             ",
"            . e+f+3 =+g+h+i+j+o.k+l+|.Z.4+E.m+j.i.n+o+2.n.p+p.}.9+#+>.b+q+R R R r+s+t+d./ t ! u+.                                           ",
"          . @ } v+b w+G :+T x+/+C..+l+|.~+i.i.i.~+|.o+y+n.o.p.z+9+h.>.A+B+R R R R C+X v c D+T.E+.                                           ",
"          . F+f ! G+H+w.B.I+I.p./+n.J+H.|.K+k.k.|.L+M+.+n./+p.N+9+O+P+b+Q+R R R R R+G S+b v+f+0 ,                                           ",
"          . T+T.3 U+V+W+R X+}.I.Y+p+n.J+H.o+L+l.o+l+2.3.4.Z+6.}.9+O+P+`+S R R R R R E  @_.u f+2 @ .                                         ",
"          , 2 }+b .@H +@R @@9+}.#@++o.n..+2.2.l+2.y+.+n.o.!+6.$@%@h.>.&@R R R R R R W+*@=@2 6 u # .                                         ",
"        . -@/ / b ;@>@,@'@P+s.r.N+)@++o.n.3.3..+.+3.n.!@/+!+~@J.{@0+]@^@R R R R R R /@y (@7 T._@E+.                                         ",
"        . [+_@1 b :@<@R %+]@0+K.[@N+6.!+p+4.n.n.n.n.}@o.|@p.~@1@K.2@3@R R R R R R R V H 4@b }+| ) .                                         ",
"        . ; u 4 _.5@E R 6@b+>.#+K.J.z+6.!+/+p+4.o.7@8@Z+9@6.N+[@s.0@a@R R R R R R R b@N c@b d@| e@.                                         ",
"        . f@! 2 g@].h@R )+i@j@k@O+K.1@z+l@p.!+/+/+Z+|@5.p.~@m@9+0+n@    R R R R R R Q 0.o@b / _@p@.                                         ",
"        . q@u 4 r@s@h+R t@u@b+v@x+h.w@[@}.~@6.p.9@!+!+9@l@z+1@K.x@        R R R R R y@s+z@b u ! ^..                                         ",
"        . A@_@1 @.H+B@R C@D@E@b+v@F@O+K.[@}.z+l@6.p.p.)@~@N+[@G@          R R R R R b@H@I@b ! J@T+.                                         ",
"        . # | u b K@L@B.R ).'.E@b+v@F@M@K.N@1@}.q.~@6.I.N+1@                R R R R O@y P@b 1 2 Q@.                                         ",
"        . e / d@b R@%.S@R T@`+'.U@b+]@F@#+,.{@[@$@z+~@q.K.                  R R R R 9.y V@7 u 2 +..                                         ",
"        . 9 1 W@7 h y X@R Y@Z@`@'. #.#]@P+2@O+K.r.+#r.                        R R R @#x J 2 | 3 ##$#                                        ",
"          + < f J@%#&#@#R R *#=#c+-#;.;#(+>.x+>#E@                            R R R A 5@d.! d@7 u+,#                                        ",
"          . '#6 5 d.)#F b@R R R T !#~#7.{#                                    R R ]#y ^#b 5 | /#(#_#                                        ",
"          . 8 Q.:#7 y.<#[#R R R R R                                           R R }#x.L 2 T.! - |#                                          ",
"          . ..4 D+/ 1#2#3#4#R R R R                                           R 5#z 6#b d@} 7 7#8#                                          ",
"            . ) d d 7 9#H 0#R R R R                                           R a#V.b#3 :#5 = c#                                            ",
"            . d#/ t d@_.e#f#<.R R R                                         R g#<#p b v+d 3 h#i#                                            ",
"              + ( f+a 2 j#k#L@S@R R R                                       P H@l#m#! -+5 = n#                                              ",
"              . ' 2 ^ d 7 o#V.w.p#R R                                     q#r#s#L 3 -+f+t#$#u#                                              ",
"                . $ }+] W@b v#w#A ]#R R                                 x#N *+y#7 f+t u z#i#A#                                              ",
"                . K T+} ] Q.b b.B#r#C#B.                              D#G ].E#7 :#] d@| F#G#H#I#J#                                          ",
"                  . R.e+:#{ v+b K#L#y M#N#                        O#s+H P#Q#c d { Q._@5 b R#S#T#U#V#                                        ",
"                    . [+t#6 { :#c W#X#Y#y Z#O `#             $h+%.y n .$d.J@-+] 5 u }+& K +$# @$#$$$$$                                      ",
"                      . [+%$Q.] a _@7 &$*$H+w#y y %.s+>@f#y <#=$K@-$_.7 Q.^ t / J@}+%$;$h#+$$#>$,$T#'$$$                                    ",
"                        . )$ .! -+{ s / 7 b !$(@~$o@<+w {$]$^$/$b c d@~ ] :#2 p@F#/ ($f@;$> . _$,$>$n#V#$$                                  ",
"                          . 7#= 7 }+~ { ~ T.u 2 7 b b b b c 4 | 6 t { D+/ :$(.. <$t#[$# (.,$R.+ (#;$# }$|$$$                                ",
"                            . + ; 0 c | f+^ { ^ ~ -+s s -+a ] { a 6 u b ;+1$2$3$(.b f@[$>$f@>$' 4$(#: ; 5$6$$$                              ",
"                                . K (.p@b 3 / Q.6 f+D+s f+f }+! c b & ' c#2$  7$8$( +.q@e ,$f@; )$/._$_ 8 (#9$$$                            ",
"                                  . . , e 0$T+:$b b b b b b a$<$$ -@_#b$        c$8$[$d$e$d#f$f@8 e .._$e S.+$U#$$                          ",
"                                        . . + 4$R.: >$# ;$)$K g$h$|#              6$I#R.z#F+d#;$A@S.[$1$_$)$A@K i$$$                        ",
"                                                . . . . . . g$                      $$j$7#- k$d#@$A@A@[+9 $#R.A@9 l$$$                      ",
"                                                                                      $$i$/.$ E+e [+S.A@: @ g$-@A@> m$$$                    ",
"                                                                                        $$n$+$E+$ e [+8 f@;$-@+$9 f@u+o$'$$$                ",
"                                                                                          p$q$r$s$t$[$_ ; f@f$> + 1$A@e u$'$$$              ",
"                                                                                            p$|$v$F+t$_ e # f@,$u+, ..A@[+w$'$$$            ",
"                                                                                              p$x$y$##- [+d#>$(.# ' /./.S.f$c#'$$$          ",
"                                                                                                z$'$b$f@z#@$)$f$f@; d#K 8 4 d@;$'$          ",
"                                                    ! d@}+v+W@v+Q.d@u                             z$'$#$8 z#f$' f$A@8 d$a$c | d@h$$$        ",
"                                                J@d@W@6 f+-+[ [ D+:#T.d@J@                          A$'$B$>$- >$' @$$ a$b b 7 | 0 C$        ",
"                                                2 _@Q.f d D+[ -+s 6 v+_@3 F#                          D$$$E$;$- ; ' * b b b b 7 3 g$        ",
"                                                    7 J@u _@| _@u 2 a$F$                                  $$G$[$- ($:$b b b b J@b 2$        ",
"                                                                                                            $$I#)$H$u b b b 3 5 e$x$        ",
"                                                                                                              $$l$# }+/ 7 c d@b I$p$        ",
"                                                                                                                $$l$+.d@_@_@< w$$$          ",
"                                                                                                                  p$'$n#(.# 7$$$            ",
"                                                                                                                      p$c$G$                ",
"                                                                                                                                            ",
"                                                                                                                                            ",
"                                                                                                                                            ",
"                                                                                                                                            "};
