<?xml version="1.0" encoding="UTF-8" standalone="no"?>
<!-- Created with Inkscape (http://www.inkscape.org/) -->
<svg
   xmlns:dc="http://purl.org/dc/elements/1.1/"
   xmlns:cc="http://web.resource.org/cc/"
   xmlns:rdf="http://www.w3.org/1999/02/22-rdf-syntax-ns#"
   xmlns:svg="http://www.w3.org/2000/svg"
   xmlns="http://www.w3.org/2000/svg"
   xmlns:xlink="http://www.w3.org/1999/xlink"
   xmlns:sodipodi="http://inkscape.sourceforge.net/DTD/sodipodi-0.dtd"
   xmlns:inkscape="http://www.inkscape.org/namespaces/inkscape"
   id="svg1355"
   sodipodi:version="0.32"
   inkscape:version="0.43"
   width="210mm"
   height="297mm"
   sodipodi:docbase="/donmanolo/icons"
   sodipodi:docname="scaner.svg">
  <metadata
     id="metadata1360">
    <rdf:RDF>
      <cc:Work
         rdf:about="">
        <dc:format>image/svg+xml</dc:format>
        <dc:type
           rdf:resource="http://purl.org/dc/dcmitype/StillImage" />
      </cc:Work>
    </rdf:RDF>
  </metadata>
  <defs
     id="defs1358">
    <linearGradient
       inkscape:collect="always"
       id="linearGradient2247">
      <stop
         style="stop-color:#536f9f;stop-opacity:1;"
         offset="0"
         id="stop2249" />
      <stop
         style="stop-color:#536f9f;stop-opacity:0;"
         offset="1"
         id="stop2251" />
    </linearGradient>
    <radialGradient
       inkscape:collect="always"
       xlink:href="#linearGradient2247"
       id="radialGradient2282"
       gradientUnits="userSpaceOnUse"
       gradientTransform="matrix(-1.059107,-0.584771,-0.558311,1.011185,186.1613,15.20008)"
       cx="32.33128"
       cy="38.337173"
       fx="32.33128"
       fy="38.337173"
       r="24.028439" />
    <radialGradient
       inkscape:collect="always"
       xlink:href="#linearGradient2247"
       id="radialGradient3174"
       gradientUnits="userSpaceOnUse"
       gradientTransform="matrix(-1.059107,-0.584771,-0.558311,1.011185,186.1613,15.20008)"
       cx="32.33128"
       cy="38.337173"
       fx="32.33128"
       fy="38.337173"
       r="24.028439" />
  </defs>
  <sodipodi:namedview
     guidetolerance="10.0"
     gridtolerance="10.0"
     objecttolerance="10.0"
     inkscape:window-height="895"
     inkscape:window-width="1211"
     inkscape:pageshadow="2"
     inkscape:pageopacity="0.0"
     borderopacity="1.0"
     bordercolor="#666666"
     pagecolor="#ffffff"
     id="base"
     showguides="false"
     inkscape:zoom="3.2834681"
     inkscape:cx="105.31473"
     inkscape:cy="987.01159"
     inkscape:window-x="24"
     inkscape:window-y="49"
     inkscape:current-layer="svg1355" />
  <g
     id="g3164"
     transform="matrix(0.47054,0,0,0.642164,-1.376425,-7.090724)">
    <path
       sodipodi:nodetypes="cssss"
       id="path2263"
       d="M 78.247959,80.477374 C 72.921853,87.419364 52.869023,104.65239 49.157092,108.9636 C 47.245077,111.18253 50.123925,112.00528 50.749714,111.41774 C 55.57468,106.88765 72.239039,88.168274 80.368646,82.325594 C 82.735937,80.624244 79.22835,79.199534 78.247959,80.477374 z "
       style="fill:#404f79;fill-opacity:1;fill-rule:evenodd;stroke:#000000;stroke-width:1.00000012px;stroke-linecap:butt;stroke-linejoin:miter;stroke-opacity:1" />
    <path
       sodipodi:nodetypes="csssssssss"
       id="path1364"
       d="M 164.70654,25.662848 C 167.73701,22.128073 151.10054,18.981839 136.6283,21.744849 C 127.03987,23.575452 122.63303,26.169369 118.21193,26.519323 C 108.03053,27.325233 85.151221,56.657784 73.70738,71.29472 C 62.263541,85.931655 61.105637,92.061182 66.202388,92.237294 C 71.29914,92.413407 76.210082,94.354906 82.775545,91.010845 C 92.067673,86.277981 94.603694,83.18721 101.6833,76.234362 C 112.21533,65.890889 114.7585,52.108034 117.94102,51.272961 C 128.39508,48.529879 159.48784,60.913997 168.79397,50.71894 C 175.0455,43.870251 159.53494,31.695069 164.70654,25.662848 z "
       style="fill:#756f7b;fill-opacity:1;fill-rule:evenodd;stroke:#000000;stroke-width:1.00000012px;stroke-linecap:butt;stroke-linejoin:miter;stroke-opacity:1" />
    <path
       sodipodi:nodetypes="cssss"
       id="path2239"
       d="M 152.4024,22.97571 C 150.83629,20.562431 166.61838,21.117466 164.76778,24.6903 C 160.77523,32.398466 173.05964,40.712396 170.18529,49.66823 C 168.13653,56.051694 149.40507,57.597527 151.32745,52.956617 C 161.46738,28.477241 156.38396,29.111045 152.4024,22.97571 z "
       style="fill:#536f9f;fill-opacity:0.77366255;fill-rule:evenodd;stroke:#000000;stroke-width:1.00000012px;stroke-linecap:butt;stroke-linejoin:miter;stroke-opacity:1" />
    <path
       sodipodi:nodetypes="cssss"
       id="path2241"
       d="M 149.13511,22.786225 C 159.44188,24.236489 152.88505,42.453408 144.50674,44.879966 C 136.12843,47.306525 131.27693,40.946081 120.83211,40.238963 C 110.38728,39.531846 110.48745,43.584346 106.88253,40.342104 C 102.10126,36.041854 118.86439,18.526833 149.13511,22.786225 z "
       style="fill:url(#radialGradient3174);fill-opacity:1;fill-rule:evenodd;stroke:#000000;stroke-width:1.00000012px;stroke-linecap:butt;stroke-linejoin:miter;stroke-opacity:1" />
    <path
       sodipodi:nodetypes="cs"
       id="path2243"
       d="M 149.73483,50.502483 C 91.312445,33.435753 107.528,70.489738 84.512466,83.747758"
       style="fill:none;fill-opacity:0.75;fill-rule:evenodd;stroke:#0a0509;stroke-width:1.00000012px;stroke-linecap:butt;stroke-linejoin:miter;stroke-opacity:1" />
    <path
       sodipodi:nodetypes="csss"
       id="path2259"
       d="M 145.37345,24.312732 C 143.65513,25.213976 142.30659,31.501597 145.92681,36.522419 C 147.3419,38.484992 152.212,33.890785 152.11631,31.255409 C 151.87645,24.649586 147.09176,23.411489 145.37345,24.312732 z "
       style="fill:#534f45;fill-opacity:1;fill-rule:evenodd;stroke:#000000;stroke-width:1.00000012px;stroke-linecap:butt;stroke-linejoin:miter;stroke-opacity:1" />
    <path
       sodipodi:nodetypes="cssss"
       id="path2261"
       d="M 64.606931,92.51983 C 59.280826,99.461822 58.771693,98.051747 55.059763,102.36297 C 53.147748,104.58189 56.764937,105.17734 57.390726,104.58979 C 62.215691,100.0597 61.207838,100.88607 69.337444,95.043381 C 71.704735,93.342027 65.587323,91.241998 64.606931,92.51983 z "
       style="fill:#404f79;fill-opacity:1;fill-rule:evenodd;stroke:#000000;stroke-width:1.00000012px;stroke-linecap:butt;stroke-linejoin:miter;stroke-opacity:1" />
    <path
       sodipodi:nodetypes="css"
       id="path3162"
       d="M 68.124246,94.161986 C 67.644434,97.004831 71.922811,97.347306 72.607761,96.384145 C 76.243781,91.271255 68.729686,90.574812 68.124246,94.161986 z "
       style="fill:#536f9f;fill-opacity:1;fill-rule:evenodd;stroke:#000000;stroke-width:0.78604633px;stroke-linecap:butt;stroke-linejoin:miter;stroke-opacity:1" />
  </g>
</svg>
