/* XPM */
static char * stop_xpm[] = {
"53 53 829 2",
"  	c None",
". 	c #B4281C",
"+ 	c #BF483E",
"@ 	c #DC9089",
"# 	c #E7AFAB",
"$ 	c #EBB7B2",
"% 	c #EDBDB9",
"& 	c #F0C3BF",
"* 	c #F1C6C2",
"= 	c #EEBFBB",
"- 	c #EBB6B2",
"; 	c #E8AEA9",
"> 	c #E4A59F",
", 	c #D88780",
"' 	c #B4291D",
") 	c #C4574E",
"! 	c #E3A5A1",
"~ 	c #F1C5C1",
"{ 	c #F5CBC7",
"] 	c #F4C1BD",
"^ 	c #F2B5B0",
"/ 	c #F1B0AB",
"( 	c #F0ACA6",
"_ 	c #EEA7A1",
": 	c #EDA49E",
"< 	c #EC9F99",
"[ 	c #EA9B94",
"} 	c #E99790",
"| 	c #E8938C",
"1 	c #E99C96",
"2 	c #ECB0AB",
"3 	c #E9B3AF",
"4 	c #DD9792",
"5 	c #C4564D",
"6 	c #CA625A",
"7 	c #F2CCC8",
"8 	c #F7D0CC",
"9 	c #F5C2BE",
"0 	c #F4BAB5",
"a 	c #F2B6B1",
"b 	c #F1B2AD",
"c 	c #F0AEA8",
"d 	c #EFA9A4",
"e 	c #EEA69F",
"f 	c #ECA19B",
"g 	c #EB9D96",
"h 	c #EA9992",
"i 	c #E9958D",
"j 	c #E79089",
"k 	c #E58B84",
"l 	c #E48780",
"m 	c #E2837B",
"n 	c #E17E76",
"o 	c #E18079",
"p 	c #E3968E",
"q 	c #E9B6B3",
"r 	c #C75F56",
"s 	c #C25045",
"t 	c #EFC3BF",
"u 	c #F7D1CE",
"v 	c #F5C1BD",
"w 	c #F4BCB7",
"x 	c #F3B7B3",
"y 	c #F2B4AF",
"z 	c #F1AFAA",
"A 	c #F0ABA5",
"B 	c #EFA7A2",
"C 	c #EEA39D",
"D 	c #EC9E98",
"E 	c #EB9A93",
"F 	c #E99690",
"G 	c #E8928A",
"H 	c #E78D86",
"I 	c #E58A82",
"J 	c #E3857D",
"K 	c #E28078",
"L 	c #E07C73",
"M 	c #DF7770",
"N 	c #DC736A",
"O 	c #DB6E66",
"P 	c #DA6D63",
"Q 	c #E39993",
"R 	c #E5ADA7",
"S 	c #C24E44",
"T 	c #B52A1E",
"U 	c #E4A6A1",
"V 	c #F7D3D0",
"W 	c #F6C4C0",
"X 	c #F5BEB9",
"Y 	c #F4B9B4",
"Z 	c #F3B6B1",
"` 	c #F2B1AC",
" .	c #F1ADA8",
"..	c #EFA9A3",
"+.	c #EEA59F",
"@.	c #EDA19A",
"#.	c #EB9C95",
"$.	c #EA9891",
"%.	c #E9948D",
"&.	c #E88F88",
"*.	c #E68B84",
"=.	c #E4877F",
"-.	c #E3827A",
";.	c #E17D76",
">.	c #E07A71",
",.	c #DE756D",
"'.	c #DC7068",
").	c #DA6C64",
"!.	c #D9685E",
"~.	c #D7635A",
"{.	c #D45F55",
"].	c #D45E55",
"^.	c #E1958E",
"/.	c #DB958F",
"(.	c #B83328",
"_.	c #EDC1BC",
":.	c #F7CCC8",
"<.	c #F5C0BB",
"[.	c #F5BBB7",
"}.	c #F4B8B3",
"|.	c #F3B3AE",
"1.	c #F1AFA9",
"2.	c #F0AAA5",
"3.	c #EFA7A1",
"4.	c #EEA29C",
"5.	c #ED9E97",
"6.	c #EB9A94",
"7.	c #EA968F",
"8.	c #E8918A",
"9.	c #E78D85",
"0.	c #E68981",
"a.	c #E4847D",
"b.	c #E17C74",
"c.	c #DF776F",
"d.	c #DE726A",
"e.	c #DB6E65",
"f.	c #DA6A61",
"g.	c #D8655C",
"h.	c #D66158",
"i.	c #D45D53",
"j.	c #D2574E",
"k.	c #D05348",
"l.	c #CE4F45",
"m.	c #D56B63",
"n.	c #E4ABA7",
"o.	c #BE453A",
"p.	c #F3CDCA",
"q.	c #F7C8C4",
"r.	c #F5BDB8",
"s.	c #F3B5B0",
"t.	c #F2B1AB",
"u.	c #F1ACA7",
"v.	c #F0A9A3",
"w.	c #EFA49E",
"x.	c #EDA09A",
"y.	c #EC9B95",
"z.	c #EB9891",
"A.	c #E9938C",
"B.	c #E88E87",
"C.	c #E78B83",
"D.	c #E5867F",
"E.	c #E27E76",
"F.	c #E07971",
"G.	c #DF756C",
"H.	c #DD7067",
"I.	c #DB6C63",
"J.	c #D9675E",
"K.	c #D76359",
"L.	c #D65E55",
"M.	c #D35A50",
"N.	c #D1554B",
"O.	c #CF5147",
"P.	c #CD4C42",
"Q.	c #CB483D",
"R.	c #C94339",
"S.	c #CD5349",
"T.	c #E5AFAB",
"U.	c #BE4439",
"V.	c #F5D3D0",
"W.	c #F6C1BD",
"X.	c #F5BBB6",
"Y.	c #F4B7B2",
"Z.	c #F3B3AD",
"`.	c #F2AEA9",
" +	c #EFA6A0",
".+	c #EEA29B",
"++	c #ED9D97",
"@+	c #EC9A93",
"#+	c #EA958E",
"$+	c #E99189",
"%+	c #E88D85",
"&+	c #E68880",
"*+	c #E5847C",
"=+	c #E37F77",
"-+	c #E17B73",
";+	c #E0766E",
">+	c #DE7269",
",+	c #DC6E65",
"'+	c #DA6960",
")+	c #D8645B",
"!+	c #D76157",
"~+	c #D55C52",
"{+	c #D2574D",
"]+	c #D15349",
"^+	c #CF4F44",
"/+	c #CD493F",
"(+	c #CB453A",
"_+	c #C84136",
":+	c #C63C31",
"<+	c #C4372B",
"[+	c #C4392E",
"}+	c #E2A7A2",
"|+	c #F2CCC9",
"1+	c #F6BFBA",
"2+	c #F3B4AF",
"3+	c #F2B0AB",
"4+	c #F1ACA6",
"5+	c #F0A8A2",
"6+	c #EE9F99",
"7+	c #ED9B95",
"8+	c #EB9790",
"9+	c #EA928B",
"0+	c #E88E86",
"a+	c #E78A83",
"b+	c #E6867E",
"c+	c #E48179",
"d+	c #E27E75",
"e+	c #E17970",
"f+	c #DF746C",
"g+	c #DD6F66",
"h+	c #DC6B63",
"i+	c #D9675D",
"j+	c #D8635A",
"k+	c #D65E54",
"l+	c #D45950",
"m+	c #D2554A",
"n+	c #D05046",
"o+	c #CE4C41",
"p+	c #CC473C",
"q+	c #CA4338",
"r+	c #C73E33",
"s+	c #C5392E",
"t+	c #C33529",
"u+	c #C13025",
"v+	c #BE2B1F",
"w+	c #BE2B21",
"x+	c #E3ABA7",
"y+	c #EDBFBA",
"z+	c #F4B6B1",
"A+	c #F3B2AD",
"B+	c #F2AEA8",
"C+	c #F1AAA4",
"D+	c #F0A69F",
"E+	c #EEA19B",
"F+	c #EC9992",
"G+	c #EB958D",
"H+	c #E99089",
"I+	c #E88C85",
"J+	c #E5837B",
"K+	c #E47F77",
"L+	c #E27B73",
"M+	c #E0766D",
"N+	c #DE7169",
"O+	c #DD6E64",
"P+	c #DB6960",
"Q+	c #D9655B",
"R+	c #D76057",
"S+	c #D55C51",
"T+	c #D4564D",
"U+	c #D15348",
"V+	c #CF4E44",
"W+	c #CD493E",
"X+	c #C94036",
"Y+	c #C63B30",
"Z+	c #C23227",
"`+	c #C02E22",
" @	c #BE281C",
".@	c #BB2418",
"+@	c #B81E12",
"@@	c #BE3227",
"#@	c #E1A8A2",
"$@	c #E3A39D",
"%@	c #F6C2BE",
"&@	c #F4B4AF",
"*@	c #F3AFAA",
"=@	c #F2ACA6",
"-@	c #F1A7A2",
";@	c #EFA39D",
">@	c #EE9E98",
",@	c #ED9B94",
"'@	c #EC9690",
")@	c #E98E87",
"!@	c #E78A82",
"~@	c #E6857D",
"{@	c #E48178",
"]@	c #E37D74",
"^@	c #E17870",
"/@	c #DF736B",
"(@	c #DE6F67",
"_@	c #DC6B62",
":@	c #DB665D",
"<@	c #D86259",
"[@	c #D75D54",
"}@	c #D5594F",
"|@	c #D3554B",
"1@	c #D05045",
"2@	c #CE4B41",
"3@	c #CC473B",
"4@	c #CB4237",
"5@	c #C83D32",
"6@	c #C33025",
"7@	c #C0281B",
"8@	c #BD2216",
"9@	c #BB1E12",
"0@	c #BA1C0F",
"a@	c #B7190D",
"b@	c #B6180B",
"c@	c #B5170B",
"d@	c #B4170A",
"e@	c #C3483F",
"f@	c #DA938D",
"g@	c #F3B1AC",
"h@	c #F2ADA7",
"i@	c #F1A9A3",
"j@	c #F0A59F",
"k@	c #EFA19A",
"l@	c #EE9D96",
"m@	c #EC9991",
"n@	c #EB948D",
"o@	c #EA9089",
"p@	c #E88C84",
"q@	c #EDA9A3",
"r@	c #F7D7D4",
"s@	c #EBA09A",
"t@	c #E37A72",
"u@	c #DF7269",
"v@	c #DD6D64",
"w@	c #DC685F",
"x@	c #DA645B",
"y@	c #D86056",
"z@	c #D65B51",
"A@	c #D4574D",
"B@	c #D25248",
"C@	c #D04E43",
"D@	c #CE483E",
"E@	c #CA4034",
"F@	c #D9746C",
"G@	c #F4DAD8",
"H@	c #D1635A",
"I@	c #BC1B0E",
"J@	c #BB1A0D",
"K@	c #BA1A0D",
"L@	c #B9190C",
"M@	c #B7180C",
"N@	c #B3160A",
"O@	c #B11609",
"P@	c #D5847D",
"Q@	c #EEBFBC",
"R@	c #F3B2AC",
"S@	c #F2ABA6",
"T@	c #F1A7A1",
"U@	c #F0A29C",
"V@	c #EE9F98",
"W@	c #ED9A94",
"X@	c #EC968F",
"Y@	c #EB918A",
"Z@	c #EA8E86",
"`@	c #E88981",
" #	c #EDA7A1",
".#	c #F8DCDA",
"+#	c #F7DBD9",
"@#	c #F7D9D7",
"##	c #E89891",
"$#	c #DE6F66",
"%#	c #DD6A61",
"&#	c #DB675D",
"*#	c #DA6258",
"=#	c #D75D53",
"-#	c #D5584E",
";#	c #D4554A",
">#	c #D24F45",
",#	c #CF4A3F",
"'#	c #C9362A",
")#	c #C32316",
"!#	c #D5685F",
"~#	c #F6DFDD",
"{#	c #F6E1E0",
"]#	c #B01509",
"^#	c #B21D11",
"/#	c #E1A7A2",
"(#	c #C96259",
"_#	c #F5C5C1",
":#	c #F2A9A3",
"<#	c #F1A49E",
"[#	c #EFA09A",
"}#	c #EE9C95",
"|#	c #ED9891",
"1#	c #EC938C",
"2#	c #EA9088",
"3#	c #E98B83",
"4#	c #E7867F",
"5#	c #EDA69F",
"6#	c #F7DBD8",
"7#	c #F7DAD8",
"8#	c #F6D9D7",
"9#	c #E6908A",
"0#	c #DB645A",
"a#	c #D95F56",
"b#	c #D65B50",
"c#	c #D5564D",
"d#	c #D35247",
"e#	c #D14C42",
"f#	c #CA382B",
"g#	c #C32115",
"h#	c #C11D0F",
"i#	c #F7E2E1",
"j#	c #F7E4E3",
"k#	c #F8E7E5",
"l#	c #F7E6E4",
"m#	c #D0645B",
"n#	c #AF1508",
"o#	c #AE1408",
"p#	c #CE726A",
"q#	c #C75E54",
"r#	c #F1C7C4",
"s#	c #F0A29B",
"t#	c #EF9E98",
"u#	c #EE9A93",
"v#	c #EC958E",
"w#	c #EB928A",
"x#	c #EA8D86",
"y#	c #E98981",
"z#	c #E7847C",
"A#	c #ECA49D",
"B#	c #F7DAD7",
"C#	c #F6DAD7",
"D#	c #E38A83",
"E#	c #D6594E",
"F#	c #D4544A",
"G#	c #D24E43",
"H#	c #CC382D",
"I#	c #C42316",
"J#	c #C21D10",
"K#	c #D56960",
"L#	c #F6E0DE",
"M#	c #F7E5E4",
"N#	c #F8E9E7",
"O#	c #F9EBEA",
"P#	c #F9EAE9",
"Q#	c #CE655C",
"R#	c #AD1408",
"S#	c #AC160A",
"T#	c #E2ACA8",
"U#	c #F4BFBA",
"V#	c #F0A09A",
"W#	c #EF9C95",
"X#	c #ED9790",
"Y#	c #EB8F87",
"Z#	c #EA8A83",
"`#	c #E8867E",
" $	c #E6827A",
".$	c #ECA29C",
"+$	c #F6DBD8",
"@$	c #E0837C",
"#$	c #D04539",
"$$	c #C72518",
"%$	c #C31E10",
"&$	c #D66A62",
"*$	c #F9E9E8",
"=$	c #FAEEED",
"-$	c #FAF0EF",
";$	c #FAEFEE",
">$	c #CE665E",
",$	c #AB1307",
"'$	c #AA1307",
")$	c #C86961",
"!$	c #E3A39F",
"~$	c #F0A49D",
"{$	c #EE9992",
"]$	c #ED958D",
"^$	c #EC918A",
"/$	c #EA8D85",
"($	c #E98880",
"_$	c #E8847C",
":$	c #E68077",
"<$	c #E47B72",
"[$	c #F6D3D1",
"}$	c #F7D9D6",
"|$	c #F6DAD8",
"1$	c #F7DCD9",
"2$	c #F6DCDB",
"3$	c #F5D8D6",
"4$	c #F7E3E2",
"5$	c #F8E8E6",
"6$	c #F9ECEB",
"7$	c #FBF2F2",
"8$	c #FBF4F3",
"9$	c #A91206",
"0$	c #AD2015",
"a$	c #D8928C",
"b$	c #EFBEBA",
"c$	c #EE9690",
"d$	c #EB8E87",
"e$	c #EA8A82",
"f$	c #E9857D",
"g$	c #E78279",
"h$	c #E57D75",
"i$	c #E47970",
"j$	c #E3756C",
"k$	c #E8928B",
"l$	c #F6D7D4",
"m$	c #F6DBD9",
"n$	c #F6DBDA",
"o$	c #F5D8D5",
"p$	c #F5D7D5",
"q$	c #F4D7D5",
"r$	c #D46158",
"s$	c #D66B63",
"t$	c #F6E1DF",
"u$	c #F8E6E5",
"v$	c #FAF1F0",
"w$	c #FCF5F4",
"x$	c #FBF1F1",
"y$	c #C85B52",
"z$	c #A81206",
"A$	c #A61105",
"B$	c #DB9D97",
"C$	c #F2B9B4",
"D$	c #EC9189",
"E$	c #EB8C84",
"F$	c #E9887F",
"G$	c #E77F77",
"H$	c #E57A72",
"I$	c #E4776E",
"J$	c #E27269",
"K$	c #E16E64",
"L$	c #DF6A60",
"M$	c #F4D7D4",
"N$	c #F5DAD8",
"O$	c #F5DCDA",
"P$	c #F5DBD8",
"Q$	c #E29791",
"R$	c #A51105",
"S$	c #CB766F",
"T$	c #DB8E88",
"U$	c #EA8982",
"V$	c #E9867D",
"W$	c #E88179",
"X$	c #E67D74",
"Y$	c #E4786F",
"Z$	c #E3756B",
"`$	c #E27066",
" %	c #E06C62",
".%	c #DF675D",
"+%	c #DC6359",
"@%	c #DB5E54",
"#%	c #E3847D",
"$%	c #F4D6D4",
"%%	c #F6DEDC",
"&%	c #F7E3E1",
"*%	c #FAEDEC",
"=%	c #FBF3F3",
"-%	c #A41004",
";%	c #AF2D23",
">%	c #D3827B",
",%	c #E6ABA6",
"'%	c #EA8880",
")%	c #E9837B",
"!%	c #E77F76",
"~%	c #E67A71",
"{%	c #E4766D",
"]%	c #E37268",
"^%	c #E16E65",
"/%	c #E06A5F",
"(%	c #DE655B",
"_%	c #DC6056",
":%	c #DA5C52",
"<%	c #D8574D",
"[%	c #D75348",
"}%	c #E07C74",
"|%	c #F5D9D6",
"1%	c #F6DCDA",
"2%	c #F7E1DF",
"3%	c #FCF6F5",
"4%	c #A30F04",
"5%	c #A21004",
"6%	c #DA9993",
"7%	c #E9B0AB",
"8%	c #E88178",
"9%	c #E77C73",
"0%	c #E6796F",
"a%	c #E4746B",
"b%	c #E26F65",
"c%	c #E16B62",
"d%	c #DD6258",
"e%	c #DB5F54",
"f%	c #DA594F",
"g%	c #D8544A",
"h%	c #D65045",
"i%	c #D44C41",
"j%	c #D2473C",
"k%	c #DC726A",
"l%	c #F4D5D2",
"m%	c #F5DBD9",
"n%	c #FCF4F4",
"o%	c #A20F03",
"p%	c #A00E03",
"q%	c #DA9B94",
"r%	c #EAB3AE",
"s%	c #E77A72",
"t%	c #E5766D",
"u%	c #E37168",
"v%	c #E26E64",
"w%	c #E0695F",
"x%	c #DF645A",
"y%	c #DD6056",
"z%	c #DB5C52",
"A%	c #D9574C",
"B%	c #D75248",
"C%	c #D64E43",
"D%	c #D4493E",
"E%	c #D14539",
"F%	c #CF3E33",
"G%	c #C72417",
"H%	c #9F0E02",
"I%	c #D99A94",
"J%	c #EDB6B1",
"K%	c #E5736A",
"L%	c #E36F66",
"M%	c #E16B61",
"N%	c #E0665C",
"O%	c #DE6257",
"P%	c #DD5E53",
"Q%	c #D85449",
"R%	c #D75046",
"S%	c #D54C40",
"T%	c #D3463C",
"U%	c #D04236",
"V%	c #CE3D32",
"W%	c #C82518",
"X%	c #C51E11",
"Y%	c #D35C53",
"Z%	c #F7E2E0",
"`%	c #FCF7F6",
" &	c #C95C53",
".&	c #9E0D02",
"+&	c #D89A94",
"@&	c #EEB7B2",
"#&	c #E26D63",
"$&	c #E1695E",
"%&	c #DE6055",
"&&	c #DC5B51",
"*&	c #DA574C",
"=&	c #D85247",
"-&	c #D64D43",
";&	c #D34439",
">&	c #D04034",
",&	c #CE3B30",
"'&	c #C92C1F",
")&	c #E1928B",
"!&	c #FDFAF9",
"~&	c #DC9892",
"{&	c #9D0D02",
"]&	c #D79993",
"^&	c #EBB3AE",
"/&	c #E0665B",
"(&	c #DF6258",
"_&	c #DD5E52",
":&	c #DB584E",
"<&	c #D95449",
"[&	c #D75045",
"}&	c #D64B40",
"|&	c #D4463B",
"1&	c #D24237",
"2&	c #CF3E32",
"3&	c #CD382D",
"4&	c #CB3125",
"5&	c #C51F12",
"6&	c #FEFBFB",
"7&	c #CC6960",
"8&	c #9C0C01",
"9&	c #D79994",
"0&	c #E8ADA8",
"a&	c #DE5F55",
"b&	c #DD5B50",
"c&	c #DB564B",
"d&	c #D95247",
"e&	c #D74D42",
"f&	c #D5483D",
"g&	c #D34438",
"h&	c #D13F34",
"i&	c #CF3B2F",
"j&	c #CD362A",
"k&	c #CB3226",
"l&	c #C62215",
"m&	c #FDF8F7",
"n&	c #FEFCFC",
"o&	c #FFFEFE",
"p&	c #CA6860",
"q&	c #9A0C01",
"r&	c #D89994",
"s&	c #E6A9A3",
"t&	c #DC584D",
"u&	c #DB5449",
"v&	c #D85045",
"w&	c #D64B3F",
"x&	c #D34236",
"y&	c #D13D32",
"z&	c #CE382C",
"A&	c #CC3428",
"B&	c #CA3023",
"C&	c #C72619",
"D&	c #FEFAFA",
"E&	c #C86760",
"F&	c #990B00",
"G&	c #DA5247",
"H&	c #D6483D",
"I&	c #D44439",
"J&	c #D23F33",
"K&	c #D03A2F",
"L&	c #CD3629",
"M&	c #CC3126",
"N&	c #CA2D20",
"O&	c #C7271A",
"P&	c #F9EAE8",
"Q&	c #FDF9F8",
"R&	c #C7675F",
"S&	c #980C01",
"T&	c #D99893",
"U&	c #D88781",
"V&	c #DC6257",
"W&	c #D5463B",
"X&	c #D34136",
"Y&	c #D23D31",
"Z&	c #D0382C",
"`&	c #CD3427",
" *	c #CB2F23",
".*	c #C92A1D",
"+*	c #C32012",
"@*	c #FEFDFD",
"#*	c #C5665E",
"$*	c #980B00",
"%*	c #A52A20",
"&*	c #D2827B",
"**	c #E49089",
"=*	c #D33F33",
"-*	c #D13A2E",
";*	c #CF362A",
">*	c #CC3125",
",*	c #CA2C20",
"'*	c #C8281A",
")*	c #C62317",
"!*	c #C31F11",
"~*	c #F8E5E4",
"{*	c #FBF1F0",
"]*	c #DA918B",
"^*	c #FDFAFA",
"/*	c #C4655E",
"(*	c #C5736D",
"_*	c #E6A7A1",
":*	c #D1392C",
"<*	c #CF3327",
"[*	c #CC2F22",
"}*	c #CA2A1D",
"|*	c #C82618",
"1*	c #C62114",
"2*	c #C7584E",
"3*	c #C2645D",
"4*	c #D89C96",
"5*	c #DD9690",
"6*	c #CB2C1F",
"7*	c #C9281B",
"8*	c #C72316",
"9*	c #C01C0F",
"0*	c #F9E9E7",
"a*	c #C7594F",
"b*	c #C86159",
"c*	c #F8EEED",
"d*	c #9E190F",
"e*	c #D6918C",
"f*	c #DB786E",
"g*	c #C92519",
"h*	c #C62113",
"i*	c #BF1C0F",
"j*	c #D67068",
"k*	c #C85A50",
"l*	c #C66159",
"m*	c #C36A63",
"n*	c #BF655E",
"o*	c #E7AEAA",
"p*	c #C72214",
"q*	c #BD1B0E",
"r*	c #D57169",
"s*	c #C85B51",
"t*	c #C56058",
"u*	c #990E03",
"v*	c #DFABA7",
"w*	c #C75E55",
"x*	c #DA776F",
"y*	c #D4726A",
"z*	c #C35F57",
"A*	c #C26D66",
"B*	c #C75D54",
"C*	c #E4A9A3",
"D*	c #C42518",
"E*	c #D3736C",
"F*	c #C15E57",
"G*	c #9C1409",
"H*	c #DDA6A1",
"I*	c #DD8780",
"J*	c #D2756D",
"K*	c #BF5D56",
"L*	c #F9F0EF",
"M*	c #CB7F79",
"N*	c #CD5046",
"O*	c #B1433B",
"P*	c #D8938E",
"Q*	c #E3A9A5",
"R*	c #C43529",
"S*	c #A4271D",
"T*	c #DEA8A3",
"U*	c #E4ADA9",
"V*	c #BD2316",
"W*	c #9C150A",
"X*	c #DDAAA6",
"Y*	c #E2A6A1",
"Z*	c #BA2015",
"`*	c #DAA49F",
" =	c #BD3025",
"                                                                                                          ",
"                                        . . . . . . . . . . . . .                                         ",
"                                  . . . + @ # $ % & * = - ; > , + . . .                                   ",
"                              . ' ) ! ~ { ] ^ / ( _ : < [ } | 1 2 3 4 5 ' .                               ",
"                          . . 6 7 8 9 0 a b c d e f g h i j k l m n o p q r . .                           ",
"                        . s t u v w x y z A B C D E F G H I J K L M N O P Q R S .                         ",
"                    . T U V W X Y Z `  ...+.@.#.$.%.&.*.=.-.;.>.,.'.).!.~.{.].^./.T .                     ",
"                  . (._.:.<.[.}.|.1.2.3.4.5.6.7.8.9.0.a.K b.c.d.e.f.g.h.i.j.k.l.m.n.(..                   ",
"                . o.p.q.r.Y s.t.u.v.w.x.y.z.A.B.C.D.-.E.F.G.H.I.J.K.L.M.N.O.P.Q.R.S.T.U..                 ",
"              . o.V.W.X.Y.Z.`.A  +.+++@+#+$+%+&+*+=+-+;+>+,+'+)+!+~+{+]+^+/+(+_+:+<+[+}+U..               ",
"            . (.|+1+Y 2+3+4+5+w.6+7+8+9+0+a+b+c+d+e+f+g+h+i+j+k+l+m+n+o+p+q+r+s+t+u+v+w+x+(..             ",
"            T y+W.z+A+B+C+D+E+5.F+G+H+I+&+J+K+L+M+N+O+P+Q+R+S+T+U+V+W+(+X+Y+<+Z+`+ @.@+@@@#@T             ",
"          . $@%@&@*@=@-@;@>@,@'@9+)@!@~@{@]@^@/@(@_@:@<@[@}@|@1@2@3@4@5@6@7@8@9@0@a@b@c@d@e@f@.           ",
"        . s { g@h@i@j@k@l@m@n@o@p@q@r@s@t@M+u@v@w@x@y@z@A@B@C@D@E@F@G@H@I@J@K@L@M@b@c@d@N@O@P@S .         ",
"        . Q@R@S@T@U@V@W@X@Y@Z@`@ #.#+#@###$#%#&#*#=#-#;#>#,#'#)#!#~#{#{#H@K@L@M@b@c@d@N@O@]#^#/#.         ",
"      . (#_#:#<#[#}#|#1#2#3#4#5#+#6#7#7#8#9#0#a#b#c#d#e#f#g#h#!#~#i#j#k#l#m#M@b@c@d@N@O@]#n#o#p#q#.       ",
"      ' r#T@s#t#u#v#w#x#y#z#A#7#B#7#C#7#7#C#D#E#F#G#H#I#J#h#K#L#i#M#k#N#O#P#Q#c@d@N@O@]#n#o#R#S#T#'       ",
"    . ) U#V#W#X#1#Y#Z#`# $.$B#@#@#B#@#7#+$+$+$@$#$$$%$J#h#&$L#i#M#k#*$O#=$-$;$>$N@O@]#n#o#R#,$'$)$5 .     ",
"    . !$~${$]$^$/$($_$:$<$[$}$@#@#B#|$C#+#1$2$3$h.%$J#h#&$L#4$M#5$*$6$=$-$7$8$M#O@]#n#o#R#,$'$9$0$a$.     ",
"    . b$c$1#d$e$f$g$h$i$j$k$l$}$@#8#|$7#m$n$o$p$q$r$h#s$t$4$u$5$P#6$=$v$7$w$x$y$]#n#o#R#,$'$9$z$A$B$.     ",
"  . + C$D$E$F$_$G$H$I$J$K$L$k l$C#8#6#m$|$M$p$N$O$P$Q$t$j#u$5$P#6$;$v$7$w$x$y$]#n#o#R#,$'$9$z$A$R$S$+ .   ",
"  . T$}#U$V$W$X$Y$Z$`$ %.%+%@%#%l$|$m$|$$%p$N$O$%%L#&%j#u$N#P#*%;$x$=%w$7$y$]#n#o#R#,$'$9$z$A$R$-%;%>%.   ",
"  . ,%'%)%!%~%{%]%^%/%(%_%:%<%[%}%|%|$M$3$N$1%%%2%&%j#k#N#O#*%;$x$=%3%7$y$]#n#o#R#,$'$9$z$A$R$-%4%5%6%.   ",
"  . 7%8%9%0%a%b%c%.%d%e%f%g%h%i%j%k%l%3$m%1%~#2%&%M#k#*$O#*%-$x$n%3%7$y$]#n#o#R#,$'$9$z$A$R$-%4%o%p%q%.   ",
"  . r%s%t%u%v%w%x%y%z%A%B%C%D%E%F%G%~+3$1%~#2%4$M#k#*$O#=$-$7$n%3%=%y$]#n#o#R#,$'$9$z$A$R$-%4%o%p%H%I%.   ",
"  . J%K%L%M%N%O%P%f%Q%R%S%T%U%V%W%X%%$Y%1%Z%4$M#5$*$6$=$v$7$n%`%=% &]#n#o#R#,$'$9$z$A$R$-%4%o%p%H%.&+&.   ",
"  . @&#&$&x%%&&&*&=&-&D%;&>&,&'&X%%$J#h#)&4$u$5$P#6$=$v$7$w$`%!&~&]#n#o#R#,$'$9$z$A$R$-%4%o%p%H%.&{&]&.   ",
"  . ^&/&(&_&:&<&[&}&|&1&2&3&4&5&%$J#h#!#4$u$N#P#6$;$v$=%w$`%!&6&6&7&o#R#,$'$9$z$A$R$-%4%o%p%H%.&{&8&9&.   ",
"  . 0&a&b&c&d&e&f&g&h&i&j&k&l&%$J#h#K#4$k#N#P#*%;$x$=%w$m&!&n&o&o&6&p&,$'$9$z$A$R$-%4%o%p%H%.&{&8&q&r&.   ",
"  . s&t&u&v&w&|&x&y&z&A&B&C&%$J#h#K#j#k#N#O#*%-$x$=%3%m&D&n&o&o&o&o&6&E&9$z$A$R$-%4%o%p%H%.&{&8&q&F&+&.   ",
"  . $@G&e&H&I&J&K&L&M&N&O&%$J#h#K#j#k#P&O#=$-$x$n%3%Q&D&n&o&o&o&o&o&o&6&R&A$R$-%4%o%p%H%.&{&8&q&F&S&T&.   ",
"  . U&V&W&X&Y&Z&`& *.*C&+*J#h#K#j#5$P&O#=$-$7$n%`%Q&D&@*o&o&o&o&o&o&o&o&6&#*-%4%o%p%H%.&{&8&q&F&$*%*&*.   ",
"  . + **=*-*;*>*,*'*)*!*J#h#K#~*5$P&6$=${*7$w$`%Q&w$]*^*o&o&o&o&o&o&o&o&o&6&/*o%p%H%.&{&8&q&F&$*$*(*+ .   ",
"    . _*:*<*[*}*|*1*%$J#h#K#~*5$P#6$;${*7$w$`%!&w$2*]#(#^*o&o&o&o&o&o&o&o&o&6&3*H%.&{&8&q&F&$*$*$*4*.     ",
"    . 5*y&6*7*8*X%%$J#h#9*~#0*P#*%;${*=%w$m&!&w$a*]#n#o#b*^*o&o&o&o&o&o&o&o&o&c*.&{&8&q&F&$*$*$*d*e*.     ",
"    . 5 f*g*h*X%%$J#h#9*i*j*P#*%;$x$=%3%m&!&3%k*]#n#o#R#,$l*^*o&o&o&o&o&o&o&@*m*{&8&q&F&$*$*$*$*n*5 .     ",
"      ' o*p*X%%$J#h#9*i*q*I@r*;$x$n%3%m&D&`%s*]#n#o#R#,$'$9$t*^*o&o&o&o&o&@*m*{&8&q&F&$*$*$*$*u*v*'       ",
"      . w*x*%$J#h#9*i*q*I@J@K@y*=%3%Q&D&m&y$]#n#o#R#,$'$9$z$A$z*^*o&o&o&@*m*{&8&q&F&$*$*$*$*$*A*B*.       ",
"        . C*D*h#9*i*q*I@J@K@L@M@E*m&6&m&y$]#n#o#R#,$'$9$z$A$R$-%F*^*o&@*m*{&8&q&F&$*$*$*$*$*G*H*.         ",
"        . S I*9*i*q*I@J@K@L@M@b@c@J*;$ &]#n#o#R#,$'$9$z$A$R$-%4%o%K*L*m*{&8&q&F&$*$*$*$*$*$*M*S .         ",
"          . /.N*q*I@J@K@L@M@b@c@d@N@O@]#n#o#R#,$'$9$z$A$R$-%4%o%p%H%.&{&8&q&F&$*$*$*$*$*$*O*P*.           ",
"            T Q*R*J@K@L@M@b@c@d@N@O@]#n#o#R#,$'$9$z$A$R$-%4%o%p%H%.&{&8&q&F&$*$*$*$*$*$*S*T*T             ",
"            . (.U*V*L@M@b@c@d@N@O@]#n#o#R#,$'$9$z$A$R$-%4%o%p%H%.&{&8&q&F&$*$*$*$*$*$*W*X*(..             ",
"              . U.Y*Z*b@c@d@N@O@]#n#o#R#,$'$9$z$A$R$-%4%o%p%H%.&{&8&q&F&$*$*$*$*$*$*W*`*U..               ",
"                . U.x+ =d@N@O@]#n#o#R#,$'$9$z$A$R$-%4%o%p%H%.&{&8&q&F&$*$*$*$*$*$*S*X*U..                 ",
"                  . (.#@e@O@]#n#o#R#,$'$9$z$A$R$-%4%o%p%H%.&{&8&q&F&$*$*$*$*$*$*O*T*(..                   ",
"                    . T f@P@^#o#R#,$'$9$z$A$R$-%4%o%p%H%.&{&8&q&F&$*$*$*$*$*G*M*P*T .                     ",
"                        . S /#p#S#'$9$z$A$R$-%4%o%p%H%.&{&8&q&F&$*$*$*$*u*A*H*S .                         ",
"                          . . q#T#)$0$A$R$-%4%o%p%H%.&{&8&q&F&$*$*$*d*n*v*B*. .                           ",
"                              . ' 5 a$B$S$;%5%p%H%.&{&8&q&F&S&%*(*4*e*5 ' .                               ",
"                                  . . . + >%6%q%I%+&]&9&r&+&T&&*+ . . .                                   ",
"                                        . . . . . . . . . . . . .                                         ",
"                                                                                                          "};
